<svg width="1906" height="958" viewBox="0 0 1906 958" fill="none" xmlns="http://www.w3.org/2000/svg">
<g opacity="0.4" clip-path="url(#clip0_1959_35046)">
<path d="M778.35 61.8057L776.314 60.5237C776.015 60.3366 775.756 60.0924 775.551 59.805C775.346 59.5176 775.2 59.1928 775.121 58.849C775.042 58.5051 775.031 58.1491 775.09 57.8012C775.148 57.4532 775.275 57.1202 775.462 56.8211L776.748 54.7787C777.061 54.2818 777.164 53.6809 777.033 53.1082C776.903 52.5356 776.551 52.0381 776.054 51.7252L774.024 50.4472C773.725 50.2597 773.465 50.0149 773.26 49.7269C773.056 49.4389 772.91 49.1133 772.831 48.7688C772.752 48.4242 772.742 48.0675 772.801 47.7191C772.861 47.3707 772.988 47.0374 773.176 46.7383L774.458 44.7021C774.771 44.2052 774.874 43.6043 774.744 43.0316C774.614 42.459 774.262 41.9615 773.765 41.6486L758.338 31.9354C758.007 31.7269 757.607 31.6584 757.225 31.7452C756.843 31.832 756.511 32.0668 756.303 32.3981L754.376 35.4586C754.063 35.9556 753.565 36.3079 752.993 36.4381C752.42 36.5682 751.819 36.4656 751.322 36.1527L748.886 34.619C748.39 34.3061 747.789 34.2035 747.216 34.3337C746.643 34.4638 746.146 34.8161 745.833 35.3131L744.299 37.749C743.986 38.2459 743.489 38.5983 742.916 38.7284C742.344 38.8586 741.743 38.7559 741.246 38.443L739.216 37.165C738.917 36.9778 738.658 36.7336 738.453 36.4462C738.248 36.1589 738.102 35.834 738.023 35.4902C737.944 35.1464 737.933 34.7903 737.992 34.4424C738.05 34.0945 738.177 33.7614 738.364 33.4624L739.65 31.4199C739.963 30.923 740.066 30.3221 739.936 29.7494C739.805 29.1768 739.453 28.6793 738.956 28.3664L736.926 27.0884C736.627 26.9009 736.367 26.6561 736.162 26.3681C735.958 26.0801 735.812 25.7545 735.733 25.41C735.654 25.0655 735.644 24.7088 735.703 24.3603C735.763 24.0119 735.89 23.6786 736.078 23.3795L737.36 21.3434C737.673 20.8464 737.776 20.2455 737.646 19.6729C737.516 19.1002 737.164 18.6027 736.667 18.2898L721.234 8.57275C720.903 8.36416 720.502 8.29572 720.121 8.38249C719.739 8.46926 719.407 8.70414 719.199 9.03544L717.272 12.0959C716.959 12.5929 716.461 12.9452 715.888 13.0754C715.316 13.2055 714.715 13.1029 714.218 12.79L711.158 10.8631C710.827 10.6545 710.426 10.5861 710.044 10.6728C709.662 10.7596 709.331 10.9945 709.122 11.3258L707.195 14.3863C706.882 14.8832 706.385 15.2356 705.812 15.3657C705.239 15.4959 704.639 15.3932 704.142 15.0803L701.081 13.1534C700.75 12.9448 700.35 12.8764 699.968 12.9632C699.586 13.0499 699.254 13.2848 699.046 13.6161L685.438 35.227C685.125 35.724 685.023 36.3249 685.153 36.8975C685.283 37.4702 685.635 37.9677 686.132 38.2805L688.168 39.5625C688.467 39.7508 688.726 39.9963 688.93 40.2849C689.134 40.5734 689.279 40.8994 689.357 41.2442C689.435 41.5889 689.444 41.9457 689.384 42.2939C689.324 42.6422 689.195 42.9751 689.006 43.2737L683.831 51.4933C683.518 51.9903 683.415 52.5912 683.545 53.1638C683.675 53.7365 684.027 54.234 684.524 54.5468L686.96 56.0805C687.457 56.3934 687.809 56.8909 687.939 57.4635C688.07 58.0362 687.967 58.6371 687.654 59.134L686.12 61.5699C685.807 62.0669 685.705 62.6678 685.835 63.2404C685.965 63.8131 686.317 64.3106 686.814 64.6234L688.856 65.9094C689.155 66.0977 689.414 66.3431 689.618 66.6317C689.822 66.9203 689.967 67.2463 690.045 67.591C690.123 67.9358 690.132 68.2925 690.072 68.6407C690.012 68.989 689.883 69.322 689.694 69.6205L688.42 71.6442C688.107 72.1412 688.004 72.7421 688.134 73.3147C688.264 73.8874 688.617 74.3848 689.114 74.6977L691.168 75.9915C691.467 76.1798 691.726 76.4253 691.93 76.7138C692.135 77.0024 692.28 77.3284 692.357 77.6732C692.435 78.0179 692.444 78.3746 692.384 78.7229C692.324 79.0712 692.195 79.4041 692.006 79.7027L690.728 81.7326C690.415 82.2296 690.313 82.8305 690.443 83.4031C690.573 83.9757 690.925 84.4732 691.422 84.7861L693.858 86.3198C694.355 86.6327 694.707 87.1301 694.837 87.7028C694.967 88.2754 694.864 88.8763 694.551 89.3733L693.018 91.8092C692.705 92.3062 692.602 92.9071 692.732 93.4797C692.862 94.0523 693.215 94.5498 693.712 94.8627L695.748 96.1447C696.047 96.3333 696.306 96.5793 696.511 96.8685C696.715 97.1578 696.86 97.4845 696.937 97.83C697.015 98.1754 697.023 98.5328 696.962 98.8815C696.901 99.2303 696.772 99.5635 696.581 99.8621L695.307 101.886C694.994 102.383 694.892 102.984 695.022 103.556C695.152 104.129 695.504 104.626 696.001 104.939L698.437 106.473C698.934 106.786 699.535 106.889 700.107 106.758C700.68 106.628 701.177 106.276 701.49 105.779L703.024 103.343C703.337 102.846 703.834 102.494 704.407 102.364C704.98 102.233 705.581 102.336 706.077 102.649L709.138 104.576C709.469 104.784 709.87 104.853 710.251 104.766C710.633 104.679 710.965 104.444 711.173 104.113L713.1 101.053C713.413 100.556 713.911 100.203 714.483 100.073C715.056 99.9431 715.657 100.046 716.154 100.359L718.59 101.892C719.087 102.205 719.687 102.308 720.26 102.178C720.833 102.048 721.33 101.695 721.643 101.198L723.177 98.7623C723.49 98.2654 723.987 97.9131 724.56 97.7829C725.133 97.6528 725.733 97.7554 726.23 98.0683L728.641 99.5862C729.138 99.8991 729.739 100.002 730.311 99.8716C730.884 99.7414 731.382 99.3891 731.695 98.8922L733.228 96.4563C733.541 95.9593 734.039 95.607 734.611 95.4768C735.184 95.3467 735.785 95.4493 736.282 95.7622L738.717 97.2959C739.214 97.6088 739.815 97.7114 740.388 97.5813C740.961 97.4511 741.458 97.0988 741.771 96.6018L743.305 94.1659C743.618 93.669 744.115 93.3167 744.688 93.1865C745.26 93.0563 745.861 93.159 746.358 93.4719L748.794 95.0055C749.291 95.3184 749.892 95.4211 750.464 95.2909C751.037 95.1608 751.534 94.8085 751.847 94.3115L757.275 85.6921C757.587 85.1952 758.085 84.8429 758.658 84.7127C759.23 84.5825 759.831 84.6852 760.328 84.9981L762.77 86.5357C763.267 86.8486 763.868 86.9512 764.44 86.8211C765.013 86.6909 765.511 86.3386 765.823 85.8416L779.038 64.8553C779.35 64.3594 779.453 63.76 779.324 63.1884C779.195 62.6168 778.845 62.1196 778.35 61.8057ZM759.64 81.9485C759.328 82.4455 758.83 82.7978 758.257 82.9279C757.685 83.0581 757.084 82.9554 756.587 82.6425L754.151 81.1089C753.654 80.796 753.054 80.6933 752.481 80.8235C751.908 80.9537 751.411 81.306 751.098 81.8029L745.667 90.4286C745.354 90.9255 744.856 91.2778 744.284 91.408C743.711 91.5381 743.11 91.4355 742.613 91.1226L740.171 89.585C739.674 89.2721 739.073 89.1695 738.501 89.2996C737.928 89.4298 737.431 89.7821 737.118 90.279L735.832 92.3215C735.451 92.9223 734.848 93.3477 734.154 93.5044C733.46 93.6611 732.733 93.5363 732.131 93.1573L730.101 91.8793C729.604 91.5664 729.003 91.4637 728.431 91.5939C727.858 91.724 727.361 92.0764 727.048 92.5733L725.518 95.003C725.205 95.4999 724.707 95.8522 724.135 95.9824C723.562 96.1126 722.961 96.0099 722.464 95.697L719.404 93.7701C719.073 93.5615 718.672 93.4931 718.29 93.5799C717.909 93.6666 717.577 93.9015 717.368 94.2328L715.441 97.2933C715.128 97.7903 714.631 98.1426 714.058 98.2727C713.486 98.4029 712.885 98.3002 712.388 97.9874L709.952 96.4537C709.455 96.1408 708.854 96.0382 708.282 96.1683C707.709 96.2985 707.212 96.6508 706.899 97.1477L705.365 99.5837C705.052 100.081 704.555 100.433 703.982 100.563C703.409 100.693 702.808 100.591 702.311 100.278L700.282 98.9997C699.983 98.8125 699.723 98.5683 699.519 98.2809C699.314 97.9935 699.168 97.6687 699.089 97.3249C699.01 96.981 698.999 96.625 699.058 96.2771C699.116 95.9291 699.243 95.5961 699.43 95.297L700.716 93.2546C701.029 92.7577 701.131 92.1568 701.001 91.5841C700.871 91.0115 700.519 90.514 700.022 90.2011L697.992 88.9231C697.693 88.7359 697.434 88.4917 697.229 88.2043C697.025 87.9169 696.878 87.5921 696.799 87.2483C696.72 86.9044 696.71 86.5484 696.768 86.2005C696.827 85.8525 696.953 85.5195 697.14 85.2204L698.426 83.178C698.739 82.6811 698.842 82.0802 698.712 81.5075C698.582 80.9349 698.229 80.4374 697.732 80.1245L695.703 78.8465C695.403 78.659 695.143 78.4142 694.939 78.1262C694.734 77.8382 694.588 77.5126 694.509 77.1681C694.43 76.8235 694.42 76.4668 694.479 76.1184C694.539 75.77 694.666 75.4367 694.855 75.1376L696.133 73.1077C696.446 72.6107 696.548 72.0098 696.418 71.4372C696.288 70.8645 695.936 70.367 695.439 70.0542L693.409 68.7761C693.11 68.589 692.851 68.3447 692.646 68.0574C692.441 67.77 692.295 67.4451 692.216 67.1013C692.137 66.7575 692.127 66.4015 692.185 66.0535C692.244 65.7056 692.37 65.3726 692.557 65.0735L693.843 63.0311C694.156 62.5341 694.259 61.9332 694.129 61.3606C693.999 60.7879 693.646 60.2904 693.149 59.9776L691.113 58.6956C690.814 58.5081 690.554 58.2633 690.349 57.9753C690.144 57.6873 689.998 57.3617 689.92 57.0172C689.841 56.6727 689.831 56.316 689.89 55.9675C689.949 55.6191 690.077 55.2858 690.265 54.9867L695.445 46.7608C695.758 46.2639 695.86 45.663 695.73 45.0903C695.6 44.5177 695.248 44.0202 694.751 43.7073L692.721 42.4293C692.422 42.2418 692.162 41.997 691.957 41.709C691.752 41.421 691.606 41.0954 691.527 40.7509C691.449 40.4064 691.439 40.0497 691.498 39.7012C691.557 39.3528 691.685 39.0195 691.873 38.7204L704.576 18.5461C704.764 18.2456 705.009 17.9853 705.298 17.7799C705.587 17.5744 705.913 17.428 706.259 17.349C706.604 17.27 706.962 17.2599 707.311 17.3193C707.661 17.3788 707.995 17.5066 708.295 17.6954L710.325 18.9735C710.822 19.2863 711.422 19.389 711.995 19.2588C712.568 19.1287 713.065 18.7764 713.378 18.2794L714.912 15.8435C715.225 15.3465 715.722 14.9942 716.295 14.8641C716.868 14.7339 717.468 14.8366 717.965 15.1495L732.773 24.4733C733.27 24.7862 733.622 25.2837 733.753 25.8563C733.883 26.429 733.78 27.0299 733.467 27.5268L731.933 29.9627C731.62 30.4597 731.518 31.0606 731.648 31.6332C731.778 32.2059 732.13 32.7034 732.627 33.0162L734.663 34.2982C734.963 34.4869 735.222 34.7329 735.426 35.0221C735.63 35.3113 735.775 35.638 735.853 35.9835C735.93 36.3289 735.939 36.6863 735.878 37.0351C735.817 37.3838 735.687 37.7171 735.497 38.0156L734.223 40.0393C733.91 40.5363 733.807 41.1372 733.937 41.7098C734.067 42.2825 734.42 42.78 734.917 43.0928L737.352 44.6265C737.849 44.9394 738.45 45.042 739.023 44.9119C739.595 44.7817 740.093 44.4294 740.406 43.9325L741.94 41.4965C742.253 40.9996 742.75 40.6473 743.323 40.5171C743.895 40.387 744.496 40.4896 744.993 40.8025L748.053 42.7294C748.385 42.938 748.785 43.0064 749.167 42.9197C749.549 42.8329 749.88 42.598 750.089 42.2667L752.016 39.2062C752.329 38.7092 752.826 38.3569 753.399 38.2268C753.972 38.0966 754.573 38.1993 755.069 38.5122L769.871 47.8321C770.368 48.145 770.72 48.6424 770.85 49.2151C770.981 49.7877 770.878 50.3886 770.565 50.8856L769.031 53.3215C768.718 53.8185 768.616 54.4194 768.746 54.992C768.876 55.5646 769.228 56.0621 769.725 56.375L771.761 57.657C772.061 57.8456 772.32 58.0916 772.524 58.3808C772.728 58.6701 772.873 58.9968 772.951 59.3423C773.028 59.6877 773.037 60.0451 772.976 60.3938C772.915 60.7426 772.785 61.0758 772.595 61.3744L759.64 81.9485Z" fill="#FF6F95"/>
</g>
<g opacity="0.4" clip-path="url(#clip1_1959_35046)">
<path d="M1433.52 207.419L1433.4 207.662C1433.42 207.619 1433.44 207.577 1433.46 207.538C1433.48 207.496 1433.5 207.457 1433.52 207.419Z" fill="#FF6F95"/>
<path d="M1529.1 210.224L1526.94 209.121C1526.62 208.959 1526.34 208.737 1526.1 208.467C1525.87 208.196 1525.69 207.884 1525.58 207.546C1525.47 207.209 1525.43 206.854 1525.45 206.501C1525.48 206.148 1525.58 205.804 1525.74 205.489L1530.16 196.835C1530.43 196.312 1530.48 195.703 1530.29 195.142C1530.11 194.581 1529.71 194.115 1529.18 193.844L1526.59 192.52C1526.06 192.25 1525.66 191.783 1525.48 191.222C1525.29 190.662 1525.34 190.053 1525.61 189.53L1526.92 186.967C1527.18 186.444 1527.23 185.835 1527.05 185.275C1526.86 184.714 1526.46 184.247 1525.93 183.977L1523.33 182.646C1522.8 182.376 1522.4 181.909 1522.22 181.348C1522.03 180.787 1522.08 180.179 1522.35 179.656L1523.66 177.093C1523.92 176.57 1523.97 175.961 1523.78 175.4C1523.6 174.84 1523.2 174.373 1522.67 174.103L1513.51 169.42C1512.99 169.15 1512.59 168.683 1512.4 168.123C1512.22 167.562 1512.26 166.953 1512.53 166.43L1513.84 163.867C1514.11 163.344 1514.16 162.736 1513.97 162.175C1513.79 161.614 1513.39 161.147 1512.86 160.877L1483.97 146.107C1483.44 145.837 1482.83 145.785 1482.27 145.964C1481.71 146.143 1481.24 146.537 1480.97 147.06L1479.66 149.622C1479.39 150.145 1478.93 150.539 1478.37 150.718C1477.8 150.897 1477.19 150.845 1476.66 150.575L1467.5 145.889C1466.97 145.619 1466.36 145.568 1465.79 145.747C1465.23 145.925 1464.76 146.319 1464.5 146.842L1463.41 148.978C1463.25 149.293 1463.02 149.573 1462.75 149.802C1462.48 150.031 1462.17 150.205 1461.83 150.313C1461.49 150.421 1461.14 150.461 1460.78 150.432C1460.43 150.402 1460.08 150.303 1459.76 150.141L1457.59 149.03C1457.06 148.76 1456.45 148.709 1455.89 148.888C1455.32 149.066 1454.86 149.46 1454.59 149.983L1449.95 159.059C1449.68 159.581 1449.64 160.19 1449.82 160.751C1450 161.312 1450.41 161.779 1450.93 162.049L1460.1 166.738C1460.63 167.008 1461.03 167.475 1461.22 168.036C1461.4 168.596 1461.36 169.205 1461.09 169.728L1459.78 172.291C1459.51 172.814 1459.46 173.423 1459.65 173.983C1459.83 174.544 1460.23 175.011 1460.76 175.281L1476.5 183.328C1477.03 183.599 1477.43 184.065 1477.61 184.626C1477.8 185.187 1477.75 185.796 1477.48 186.319L1476.17 188.882C1475.9 189.404 1475.86 190.013 1476.04 190.574C1476.23 191.135 1476.63 191.602 1477.16 191.872L1492.89 199.919C1493.42 200.189 1493.82 200.656 1494.01 201.217C1494.19 201.778 1494.14 202.386 1493.88 202.909L1492.57 205.472C1492.3 205.995 1491.83 206.389 1491.27 206.568C1490.71 206.746 1490.09 206.695 1489.57 206.425L1473.17 198.038C1472.81 197.858 1472.4 197.824 1472.03 197.943C1471.65 198.062 1471.34 198.325 1471.16 198.673L1469.52 201.893C1469.25 202.416 1468.78 202.81 1468.22 202.989C1467.66 203.168 1467.05 203.116 1466.52 202.846L1450.78 194.799C1450.25 194.529 1449.64 194.477 1449.08 194.656C1448.51 194.835 1448.05 195.229 1447.78 195.752L1446.47 198.315C1446.2 198.837 1445.74 199.232 1445.17 199.41C1444.61 199.589 1444 199.538 1443.47 199.267L1434.3 194.578C1433.77 194.308 1433.16 194.257 1432.6 194.435C1432.03 194.614 1431.57 195.008 1431.3 195.531L1426.66 204.6C1426.39 205.123 1426.35 205.731 1426.53 206.292C1426.72 206.853 1427.12 207.32 1427.65 207.59L1430.24 208.918C1430.77 209.188 1431.17 209.655 1431.36 210.215C1431.54 210.776 1431.49 211.385 1431.23 211.908L1429.92 214.471C1429.65 214.994 1429.6 215.602 1429.79 216.163C1429.97 216.724 1430.37 217.191 1430.9 217.461L1440.06 222.147C1440.59 222.417 1440.99 222.884 1441.18 223.444C1441.36 224.005 1441.31 224.614 1441.05 225.137L1439.74 227.7C1439.47 228.222 1439.42 228.831 1439.61 229.392C1439.79 229.953 1440.19 230.42 1440.72 230.69L1469.61 245.46C1470.13 245.73 1470.75 245.782 1471.31 245.603C1471.87 245.424 1472.34 245.03 1472.61 244.507L1473.92 241.944C1474.18 241.422 1474.65 241.027 1475.21 240.849C1475.78 240.67 1476.39 240.721 1476.92 240.992L1486.74 246.014C1487.09 246.194 1487.5 246.228 1487.87 246.109C1488.25 245.99 1488.56 245.727 1488.74 245.378L1490.17 242.585C1490.49 241.949 1491.06 241.47 1491.74 241.252C1492.43 241.035 1493.17 241.097 1493.82 241.426L1495.98 242.533C1496.51 242.803 1497.12 242.855 1497.68 242.676C1498.25 242.497 1498.71 242.103 1498.98 241.58L1500.29 239.011C1500.56 238.488 1501.03 238.094 1501.59 237.915C1502.15 237.736 1502.77 237.788 1503.3 238.058L1505.88 239.382C1506.41 239.652 1507.03 239.704 1507.59 239.525C1508.15 239.346 1508.62 238.952 1508.89 238.429L1513.52 229.367C1513.79 228.844 1514.25 228.45 1514.82 228.271C1515.38 228.093 1515.99 228.144 1516.52 228.414L1519.77 230.078C1519.95 230.167 1520.14 230.222 1520.33 230.238C1520.53 230.254 1520.72 230.232 1520.91 230.173C1521.09 230.114 1521.27 230.019 1521.41 229.894C1521.56 229.769 1521.68 229.615 1521.77 229.443L1530.07 213.211C1530.34 212.689 1530.39 212.082 1530.2 211.522C1530.02 210.962 1529.62 210.496 1529.1 210.224ZM1515.54 225.428C1515.27 225.95 1514.81 226.345 1514.25 226.523C1513.68 226.702 1513.07 226.651 1512.54 226.38L1509.95 225.056C1509.42 224.786 1508.81 224.735 1508.25 224.913C1507.69 225.092 1507.22 225.486 1506.95 226.009L1502.32 235.071C1502.05 235.594 1501.58 235.988 1501.02 236.167C1500.46 236.346 1499.85 236.294 1499.32 236.024L1496.05 234.353C1495.7 234.173 1495.29 234.139 1494.91 234.258C1494.54 234.377 1494.23 234.64 1494.05 234.989L1492.62 237.782C1492.46 238.097 1492.24 238.377 1491.97 238.606C1491.7 238.835 1491.39 239.008 1491.05 239.116C1490.71 239.224 1490.35 239.265 1490 239.235C1489.64 239.206 1489.3 239.107 1488.98 238.944L1480.25 234.479C1479.72 234.209 1479.11 234.158 1478.54 234.336C1477.98 234.515 1477.51 234.909 1477.25 235.432L1475.94 237.995C1475.67 238.518 1475.2 238.912 1474.64 239.091C1474.08 239.269 1473.46 239.218 1472.94 238.948L1444.05 224.177C1443.52 223.907 1443.12 223.44 1442.94 222.88C1442.75 222.319 1442.8 221.71 1443.07 221.187L1444.38 218.624C1444.64 218.101 1444.69 217.493 1444.51 216.932C1444.32 216.371 1443.92 215.904 1443.39 215.634L1434.65 211.166C1434.03 210.849 1433.56 210.308 1433.32 209.654C1433.09 209.001 1433.12 208.285 1433.4 207.656C1433.42 207.613 1433.44 207.571 1433.46 207.531C1433.48 207.49 1433.5 207.45 1433.52 207.413L1434.56 205.395C1434.82 204.872 1435.29 204.478 1435.85 204.3C1436.42 204.121 1437.03 204.172 1437.56 204.442L1440.15 205.767C1440.67 206.037 1441.29 206.088 1441.85 205.91C1442.41 205.731 1442.88 205.337 1443.15 204.814L1444.24 202.685C1444.4 202.37 1444.62 202.09 1444.89 201.861C1445.16 201.632 1445.47 201.459 1445.81 201.352C1446.15 201.244 1446.51 201.204 1446.86 201.234C1447.22 201.264 1447.57 201.363 1447.89 201.525L1463.82 209.675C1464.17 209.855 1464.58 209.889 1464.96 209.77C1465.33 209.651 1465.64 209.388 1465.82 209.039L1467.47 205.819C1467.74 205.296 1468.2 204.902 1468.77 204.724C1469.33 204.545 1469.94 204.596 1470.47 204.866L1486.21 212.914C1486.73 213.184 1487.35 213.235 1487.91 213.057C1488.47 212.878 1488.94 212.484 1489.21 211.961L1490.52 209.398C1490.78 208.875 1491.25 208.481 1491.81 208.302C1492.38 208.124 1492.99 208.175 1493.52 208.445L1496.11 209.769C1496.64 210.04 1497.25 210.091 1497.81 209.912C1498.37 209.734 1498.84 209.34 1499.11 208.817L1500.42 206.254C1500.69 205.731 1500.73 205.122 1500.55 204.561C1500.36 204.001 1499.96 203.534 1499.43 203.264L1496.84 201.939C1496.32 201.669 1495.92 201.202 1495.73 200.642C1495.55 200.081 1495.59 199.472 1495.86 198.949L1497.17 196.386C1497.44 195.863 1497.48 195.255 1497.3 194.694C1497.12 194.133 1496.72 193.666 1496.19 193.396L1480.91 185.586C1480.6 185.425 1480.31 185.202 1480.08 184.932C1479.85 184.662 1479.67 184.349 1479.56 184.012C1479.45 183.675 1479.4 183.319 1479.43 182.966C1479.46 182.613 1479.55 182.27 1479.71 181.955L1480.81 179.813C1481.08 179.29 1481.12 178.681 1480.94 178.12C1480.75 177.56 1480.35 177.093 1479.83 176.823L1464.09 168.775C1463.56 168.505 1463.16 168.038 1462.97 167.478C1462.79 166.917 1462.84 166.308 1463.1 165.785L1464.42 163.216C1464.69 162.693 1464.73 162.084 1464.55 161.523C1464.36 160.962 1463.96 160.496 1463.43 160.225L1460.84 158.901C1460.32 158.631 1459.92 158.164 1459.73 157.604C1459.55 157.043 1459.59 156.434 1459.86 155.911L1460.89 153.9C1460.91 153.857 1460.93 153.815 1460.95 153.775C1460.97 153.734 1460.99 153.695 1461.01 153.657C1461.36 153.057 1461.92 152.614 1462.59 152.419C1463.26 152.225 1463.97 152.294 1464.6 152.613L1473.33 157.081C1473.86 157.351 1474.48 157.403 1475.04 157.224C1475.6 157.045 1476.07 156.651 1476.33 156.128L1477.65 153.565C1477.91 153.043 1478.38 152.648 1478.94 152.47C1479.5 152.291 1480.12 152.342 1480.65 152.613L1509.53 167.383C1510.06 167.653 1510.46 168.12 1510.64 168.681C1510.83 169.242 1510.78 169.85 1510.51 170.373L1509.2 172.936C1508.94 173.459 1508.89 174.068 1509.07 174.628C1509.26 175.189 1509.66 175.656 1510.19 175.926L1519.34 180.609C1519.87 180.879 1520.27 181.346 1520.46 181.906C1520.64 182.467 1520.6 183.076 1520.33 183.599L1519.02 186.162C1518.75 186.685 1518.7 187.293 1518.89 187.854C1519.07 188.415 1519.47 188.882 1520 189.152L1522.6 190.479C1522.86 190.613 1523.09 190.797 1523.28 191.019C1523.48 191.242 1523.62 191.5 1523.71 191.777C1523.8 192.055 1523.84 192.347 1523.82 192.638C1523.79 192.928 1523.71 193.211 1523.58 193.47L1518.94 202.545C1518.67 203.068 1518.63 203.677 1518.81 204.237C1519 204.798 1519.4 205.265 1519.93 205.535L1522.52 206.859C1523.04 207.129 1523.44 207.596 1523.63 208.157C1523.81 208.718 1523.77 209.327 1523.5 209.849L1515.54 225.428Z" fill="#FF6F95"/>
<path d="M1461.01 153.657L1460.89 153.9C1460.91 153.857 1460.93 153.815 1460.95 153.775C1460.97 153.734 1460.99 153.695 1461.01 153.657Z" fill="#FF6F95"/>
</g>
<g opacity="0.4" clip-path="url(#clip2_1959_35046)">
<path d="M430.854 242.441L358.208 212.839C357.662 212.616 357.051 212.619 356.508 212.847C355.966 213.074 355.536 213.508 355.314 214.052L312.835 318.298C312.614 318.842 312.618 319.452 312.847 319.994C313.076 320.536 313.511 320.966 314.057 321.188L391.435 352.719C391.981 352.941 392.593 352.938 393.135 352.711C393.678 352.483 394.108 352.05 394.329 351.506L436.808 247.259C437.03 246.715 437.026 246.105 436.797 245.563C436.568 245.021 436.132 244.592 435.587 244.369L430.854 242.441ZM425.336 255.983L390.298 341.968C390.076 342.512 389.647 342.945 389.104 343.173C388.561 343.4 387.95 343.403 387.404 343.181L323.614 317.187C323.068 316.965 322.633 316.535 322.403 315.993C322.174 315.451 322.17 314.841 322.392 314.297L359.353 223.593C359.574 223.049 360.004 222.615 360.547 222.387C361.089 222.16 361.701 222.157 362.246 222.379L426.037 248.373C426.583 248.595 427.018 249.025 427.247 249.567C427.476 250.109 427.48 250.719 427.259 251.263L425.336 255.983Z" fill="#24E5C2"/>
<path d="M394.413 306.552L391.737 305.462C390.601 304.999 389.305 305.542 388.844 306.675L387.757 309.343C387.295 310.476 387.842 311.77 388.978 312.233L391.653 313.323C392.79 313.786 394.086 313.243 394.547 312.11L395.634 309.442C396.096 308.309 395.549 307.015 394.413 306.552Z" fill="#24E5C2"/>
<path d="M404.963 247.681L366.271 231.915C365.725 231.692 365.113 231.695 364.571 231.923C364.028 232.15 363.599 232.584 363.377 233.128L348.492 269.657C348.27 270.201 348.274 270.812 348.503 271.354C348.732 271.896 349.168 272.325 349.713 272.548L399.922 293.007C400.468 293.23 401.08 293.227 401.622 292.999C402.165 292.772 402.595 292.338 402.816 291.794L417.701 255.265C417.923 254.72 417.919 254.11 417.69 253.568C417.461 253.026 417.026 252.597 416.48 252.374L404.963 247.681ZM406.233 263.997L398.792 282.259C398.57 282.803 398.14 283.236 397.598 283.464C397.055 283.691 396.444 283.694 395.898 283.472L359.27 268.546C358.724 268.324 358.289 267.895 358.06 267.353C357.831 266.811 357.826 266.2 358.048 265.656L367.415 242.669C367.637 242.125 368.066 241.691 368.609 241.464C369.152 241.236 369.763 241.233 370.309 241.456L406.937 256.381C407.483 256.603 407.918 257.033 408.147 257.575C408.376 258.117 408.38 258.727 408.159 259.271L406.233 263.997Z" fill="#24E5C2"/>
<path d="M378.071 307.789L375.396 306.699C374.259 306.236 372.964 306.779 372.502 307.912L371.415 310.58C370.953 311.713 371.5 313.007 372.637 313.47L375.312 314.56C376.448 315.023 377.744 314.48 378.205 313.347L379.292 310.679C379.754 309.546 379.207 308.252 378.071 307.789Z" fill="#24E5C2"/>
<path d="M353.671 289.943L350.996 288.853C350.45 288.63 349.839 288.633 349.296 288.861C348.753 289.088 348.324 289.522 348.102 290.066L347.015 292.733C346.793 293.277 346.364 293.711 345.821 293.938C345.278 294.166 344.667 294.169 344.121 293.947L341.439 292.854C340.894 292.631 340.282 292.634 339.739 292.862C339.197 293.089 338.767 293.523 338.545 294.067L337.459 296.734C337.237 297.279 337.241 297.889 337.47 298.431C337.699 298.973 338.134 299.402 338.68 299.625L341.362 300.718C341.908 300.94 342.343 301.369 342.572 301.911C342.801 302.453 342.806 303.064 342.584 303.608L341.497 306.275C341.275 306.819 341.279 307.43 341.508 307.972C341.737 308.514 342.173 308.943 342.719 309.166L345.394 310.256C345.939 310.478 346.551 310.475 347.094 310.248C347.636 310.02 348.066 309.586 348.287 309.042L349.374 306.375C349.596 305.831 350.026 305.397 350.568 305.17C351.111 304.942 351.722 304.939 352.268 305.162L354.943 306.252C355.489 306.474 356.101 306.471 356.643 306.244C357.186 306.016 357.615 305.583 357.837 305.038L358.924 302.371C359.146 301.827 359.142 301.217 358.913 300.675C358.683 300.132 358.248 299.703 357.702 299.481L355.027 298.391C354.482 298.168 354.046 297.739 353.817 297.197C353.588 296.655 353.584 296.044 353.806 295.5L354.893 292.833C355.114 292.289 355.11 291.678 354.881 291.136C354.652 290.594 354.217 290.165 353.671 289.943Z" fill="#24E5C2"/>
</g>
<g opacity="0.4" clip-path="url(#clip3_1959_35046)">
<path d="M1916.49 315.705L1914.06 317.173C1913.56 317.473 1912.96 317.562 1912.4 317.422C1911.84 317.282 1911.35 316.923 1911.05 316.426L1909.58 313.987C1909.28 313.489 1908.8 313.131 1908.23 312.99C1907.67 312.85 1907.07 312.94 1906.58 313.239L1904.14 314.707C1903.64 315.007 1903.05 315.096 1902.49 314.956C1901.92 314.816 1901.44 314.457 1901.14 313.96L1899.67 311.521C1899.37 311.023 1898.88 310.665 1898.32 310.524C1897.76 310.384 1897.16 310.474 1896.66 310.773L1894.63 311.996C1894.34 312.18 1894 312.302 1893.66 312.356C1893.31 312.41 1892.96 312.396 1892.62 312.312C1892.28 312.229 1891.96 312.079 1891.67 311.871C1891.39 311.663 1891.15 311.402 1890.97 311.101L1889.74 309.062C1889.44 308.564 1888.96 308.206 1888.39 308.066C1887.83 307.926 1887.23 308.015 1886.74 308.315L1858.96 325.059C1858.63 325.259 1858.39 325.582 1858.3 325.958C1858.21 326.334 1858.27 326.731 1858.47 327.063L1860.32 330.128C1860.62 330.625 1860.71 331.221 1860.57 331.785C1860.43 332.349 1860.07 332.834 1859.57 333.133L1820.46 356.716C1820.16 356.897 1819.83 357.017 1819.48 357.07C1819.14 357.122 1818.78 357.106 1818.44 357.022C1818.1 356.939 1817.79 356.789 1817.5 356.581C1817.22 356.373 1816.98 356.112 1816.8 355.813L1815.58 353.774C1815.28 353.276 1814.79 352.918 1814.23 352.778C1813.66 352.638 1813.07 352.727 1812.57 353.027L1785.41 369.398C1784.92 369.698 1784.56 370.183 1784.42 370.746C1784.28 371.31 1784.37 371.906 1784.67 372.404L1786.14 374.843C1786.44 375.341 1786.53 375.937 1786.39 376.501C1786.26 377.064 1785.9 377.549 1785.4 377.849L1782.34 379.693C1782.01 379.892 1781.77 380.216 1781.68 380.592C1781.59 380.967 1781.65 381.365 1781.85 381.697L1783.7 384.761C1784 385.259 1784.09 385.855 1783.95 386.419C1783.81 386.982 1783.45 387.467 1782.95 387.767L1780.52 389.235C1780.02 389.534 1779.67 390.019 1779.53 390.582C1779.39 391.146 1779.48 391.742 1779.78 392.24L1781 394.273C1781.18 394.572 1781.31 394.903 1781.36 395.249C1781.41 395.595 1781.4 395.947 1781.31 396.287C1781.23 396.626 1781.08 396.945 1780.87 397.227C1780.67 397.508 1780.41 397.745 1780.11 397.926L1778.07 399.153C1777.83 399.301 1777.61 399.496 1777.44 399.727C1777.27 399.959 1777.15 400.221 1777.08 400.5C1777.01 400.78 1777 401.07 1777.04 401.354C1777.08 401.638 1777.18 401.912 1777.33 402.158L1804.93 447.948C1805.23 448.445 1805.72 448.804 1806.28 448.944C1806.85 449.084 1807.44 448.994 1807.94 448.695L1810.37 447.227C1810.87 446.928 1811.47 446.838 1812.03 446.978C1812.59 447.118 1813.08 447.477 1813.38 447.974L1814.85 450.414C1815.15 450.911 1815.63 451.27 1816.2 451.41C1816.76 451.55 1817.36 451.46 1817.85 451.161L1820.29 449.693C1820.78 449.394 1821.38 449.304 1821.94 449.444C1822.51 449.584 1822.99 449.943 1823.29 450.44L1824.76 452.88C1825.06 453.377 1825.55 453.736 1826.11 453.876C1826.67 454.016 1827.27 453.926 1827.77 453.627L1848.74 440.981C1849.24 440.682 1849.6 440.197 1849.74 439.633C1849.87 439.07 1849.78 438.473 1849.48 437.976L1848.26 435.943C1847.89 435.337 1847.78 434.612 1847.95 433.926C1848.12 433.241 1848.56 432.651 1849.16 432.286L1851.81 430.687C1852.15 430.487 1852.38 430.164 1852.48 429.788C1852.57 429.412 1852.51 429.015 1852.31 428.683L1850.71 426.025C1850.52 425.722 1850.4 425.387 1850.35 425.038C1850.3 424.688 1850.32 424.332 1850.4 423.991C1850.49 423.649 1850.65 423.327 1850.86 423.046C1851.07 422.764 1851.34 422.527 1851.64 422.349L1903.12 391.315C1903.62 391.015 1904.21 390.926 1904.77 391.066C1905.34 391.206 1905.82 391.564 1906.12 392.062L1907.59 394.501C1907.89 394.999 1908.38 395.357 1908.94 395.497C1909.51 395.637 1910.1 395.548 1910.6 395.248L1913.03 393.781C1913.53 393.481 1914.12 393.392 1914.69 393.532C1915.25 393.672 1915.74 394.03 1916.04 394.528L1917.51 396.967C1917.81 397.465 1918.29 397.823 1918.86 397.963C1919.42 398.103 1920.01 398.014 1920.51 397.714L1941.49 385.065C1941.99 384.765 1942.35 384.281 1942.49 383.717C1942.63 383.153 1942.53 382.557 1942.23 382.059L1940.76 379.62C1940.46 379.122 1940.37 378.526 1940.51 377.963C1940.65 377.399 1941.01 376.914 1941.51 376.615L1943.94 375.147C1944.44 374.847 1944.79 374.363 1944.93 373.799C1945.07 373.235 1944.98 372.639 1944.68 372.141L1943.46 370.109C1943.09 369.503 1942.98 368.778 1943.15 368.092C1943.32 367.406 1943.76 366.816 1944.36 366.452L1947.01 364.852C1947.34 364.653 1947.58 364.33 1947.67 363.954C1947.77 363.578 1947.71 363.181 1947.51 362.849L1919.53 316.434C1919.38 316.185 1919.18 315.968 1918.94 315.796C1918.71 315.624 1918.44 315.501 1918.16 315.433C1917.88 315.365 1917.58 315.354 1917.3 315.401C1917.01 315.448 1916.74 315.551 1916.49 315.705ZM1940.92 365.968C1941.22 366.466 1941.31 367.062 1941.17 367.626C1941.03 368.189 1940.67 368.674 1940.18 368.974L1937.74 370.441C1937.25 370.741 1936.89 371.226 1936.75 371.789C1936.61 372.353 1936.7 372.949 1937 373.447L1938.47 375.886C1938.77 376.384 1938.86 376.98 1938.72 377.544C1938.58 378.107 1938.23 378.592 1937.73 378.892L1916.75 391.541C1916.25 391.841 1915.65 391.93 1915.09 391.79C1914.53 391.65 1914.04 391.292 1913.74 390.794L1912.27 388.355C1911.97 387.857 1911.49 387.499 1910.92 387.359C1910.36 387.218 1909.76 387.308 1909.27 387.607L1907.24 388.831C1906.94 389.012 1906.61 389.132 1906.26 389.184C1905.92 389.237 1905.57 389.221 1905.23 389.137C1904.89 389.053 1904.57 388.903 1904.29 388.696C1904.01 388.488 1903.77 388.227 1903.59 387.928L1902.35 385.882C1902.05 385.385 1901.57 385.026 1901.01 384.886C1900.44 384.746 1899.85 384.836 1899.35 385.135L1846.84 416.791C1846.51 416.991 1846.27 417.314 1846.18 417.69C1846.09 418.065 1846.15 418.463 1846.35 418.795L1848.2 421.866C1848.5 422.363 1848.59 422.96 1848.45 423.523C1848.31 424.087 1847.95 424.572 1847.46 424.871L1845.02 426.339C1844.53 426.638 1844.17 427.123 1844.03 427.687C1843.89 428.251 1843.98 428.847 1844.28 429.344L1845.51 431.377C1845.69 431.676 1845.81 432.008 1845.86 432.353C1845.91 432.699 1845.9 433.052 1845.82 433.391C1845.73 433.73 1845.58 434.05 1845.38 434.331C1845.17 434.612 1844.91 434.85 1844.61 435.03L1824.01 447.45C1823.51 447.749 1822.92 447.839 1822.35 447.699C1821.79 447.559 1821.3 447.2 1821 446.703L1819.53 444.263C1819.23 443.766 1818.75 443.407 1818.18 443.267C1817.62 443.127 1817.03 443.217 1816.53 443.516L1814.53 444.724C1814.23 444.905 1813.9 445.026 1813.55 445.078C1813.21 445.131 1812.85 445.115 1812.51 445.031C1812.17 444.947 1811.86 444.797 1811.57 444.589C1811.29 444.382 1811.05 444.121 1810.87 443.821L1783.76 398.839C1783.39 398.233 1783.28 397.508 1783.45 396.822C1783.62 396.136 1784.05 395.546 1784.66 395.182L1787.31 393.582C1787.64 393.383 1787.88 393.059 1787.97 392.684C1788.07 392.308 1788.01 391.91 1787.81 391.579L1786.21 388.927C1785.84 388.321 1785.73 387.595 1785.9 386.908C1786.07 386.222 1786.5 385.63 1787.11 385.264L1789.13 384.041C1789.63 383.741 1789.99 383.256 1790.13 382.693C1790.27 382.129 1790.18 381.533 1789.88 381.035L1788.65 379.003C1788.29 378.397 1788.18 377.672 1788.34 376.986C1788.51 376.3 1788.95 375.71 1789.55 375.346L1816.3 359.219C1816.8 358.919 1817.4 358.83 1817.96 358.97C1818.52 359.11 1819.01 359.468 1819.31 359.966L1820.78 362.405C1821.08 362.903 1821.56 363.261 1822.13 363.401C1822.69 363.541 1823.29 363.452 1823.78 363.153L1863.93 338.949C1864.26 338.749 1864.5 338.426 1864.59 338.05C1864.69 337.674 1864.63 337.277 1864.43 336.945L1862.82 334.287C1862.46 333.681 1862.35 332.956 1862.52 332.27C1862.69 331.584 1863.12 330.994 1863.73 330.63L1890.47 314.507C1890.97 314.207 1891.56 314.118 1892.13 314.258C1892.69 314.398 1893.17 314.756 1893.47 315.254L1894.94 317.693C1895.24 318.191 1895.73 318.549 1896.29 318.689C1896.86 318.83 1897.45 318.74 1897.95 318.441L1900.38 316.973C1900.88 316.673 1901.48 316.584 1902.04 316.724C1902.6 316.864 1903.09 317.222 1903.39 317.72L1904.86 320.159C1905.16 320.657 1905.64 321.015 1906.21 321.155C1906.77 321.296 1907.37 321.206 1907.86 320.907L1910.3 319.439C1910.54 319.291 1910.82 319.192 1911.1 319.15C1911.38 319.107 1911.67 319.121 1911.95 319.19C1912.23 319.259 1912.49 319.383 1912.73 319.554C1912.96 319.725 1913.15 319.94 1913.3 320.186L1940.92 365.968Z" fill="#24E5C2"/>
<path d="M1902.98 340.735C1902.48 341.035 1902.13 341.519 1901.99 342.083C1901.85 342.647 1901.94 343.243 1902.24 343.741L1907.44 352.372C1907.74 352.87 1908.23 353.228 1908.79 353.368C1909.35 353.508 1909.95 353.419 1910.45 353.119L1919.06 347.925C1919.56 347.626 1919.92 347.141 1920.05 346.577C1920.19 346.014 1920.1 345.418 1919.8 344.92L1914.6 336.289C1914.3 335.791 1913.81 335.433 1913.25 335.293C1912.69 335.152 1912.09 335.242 1911.6 335.541L1902.98 340.735Z" fill="#24E5C2"/>
<path d="M1899.23 342.993C1899.73 342.694 1900.09 342.209 1900.23 341.645C1900.37 341.082 1900.28 340.486 1899.98 339.988L1894.77 331.357C1894.47 330.859 1893.99 330.501 1893.42 330.361C1892.86 330.22 1892.26 330.31 1891.77 330.609L1883.15 335.807C1882.65 336.106 1882.29 336.591 1882.15 337.155C1882.01 337.719 1882.1 338.315 1882.4 338.812L1887.61 347.444C1887.91 347.941 1888.39 348.3 1888.96 348.44C1889.52 348.58 1890.12 348.49 1890.61 348.191L1899.23 342.993Z" fill="#24E5C2"/>
<path d="M1898.08 360.575C1897.58 360.874 1897.22 361.359 1897.08 361.923C1896.95 362.487 1897.04 363.083 1897.34 363.58L1902.54 372.212C1902.84 372.709 1903.32 373.068 1903.89 373.208C1904.45 373.348 1905.05 373.258 1905.54 372.959L1914.17 367.761C1914.66 367.462 1915.02 366.977 1915.16 366.414C1915.3 365.85 1915.21 365.254 1914.91 364.756L1909.7 356.125C1909.4 355.627 1908.92 355.269 1908.36 355.129C1907.79 354.988 1907.2 355.078 1906.7 355.377L1898.08 360.575Z" fill="#24E5C2"/>
<path d="M1889.87 351.196C1889.57 350.699 1889.09 350.34 1888.52 350.2C1887.96 350.06 1887.36 350.15 1886.87 350.449L1878.25 355.643C1877.76 355.942 1877.4 356.427 1877.26 356.991C1877.12 357.554 1877.21 358.151 1877.51 358.648L1882.71 367.28C1883.01 367.777 1883.5 368.136 1884.06 368.276C1884.63 368.416 1885.22 368.326 1885.72 368.027L1894.33 362.833C1894.83 362.534 1895.19 362.049 1895.33 361.485C1895.47 360.922 1895.37 360.325 1895.07 359.828L1889.87 351.196Z" fill="#24E5C2"/>
<path d="M1872.06 367.819L1869.62 369.287C1868.59 369.911 1868.26 371.256 1868.88 372.292L1870.35 374.732C1870.98 375.768 1872.32 376.103 1873.36 375.479L1875.79 374.011C1876.82 373.388 1877.16 372.042 1876.53 371.006L1875.06 368.566C1874.44 367.53 1873.09 367.196 1872.06 367.819Z" fill="#24E5C2"/>
<path d="M1869.61 377.737L1867.18 379.205C1866.14 379.828 1865.81 381.174 1866.43 382.21L1867.9 384.65C1868.53 385.686 1869.87 386.02 1870.91 385.397L1873.34 383.929C1874.38 383.306 1874.71 381.96 1874.08 380.924L1872.61 378.484C1871.99 377.448 1870.64 377.113 1869.61 377.737Z" fill="#24E5C2"/>
<path d="M1853.52 378.997L1851.08 380.465C1850.05 381.088 1849.72 382.434 1850.34 383.47L1851.81 385.909C1852.44 386.946 1853.78 387.28 1854.81 386.657L1857.25 385.189C1858.28 384.565 1858.62 383.22 1857.99 382.183L1856.52 379.744C1855.9 378.708 1854.55 378.373 1853.52 378.997Z" fill="#24E5C2"/>
<path d="M1851.07 388.915L1848.63 390.383C1847.6 391.006 1847.27 392.352 1847.89 393.388L1849.36 395.827C1849.99 396.864 1851.33 397.198 1852.37 396.575L1854.8 395.107C1855.84 394.483 1856.17 393.138 1855.54 392.101L1854.07 389.662C1853.45 388.626 1852.1 388.291 1851.07 388.915Z" fill="#24E5C2"/>
<path d="M1822.62 389.181C1822.12 389.48 1821.53 389.569 1820.97 389.429C1820.4 389.289 1819.92 388.931 1819.62 388.433L1814.41 379.802C1814.11 379.304 1813.63 378.946 1813.07 378.806C1812.5 378.666 1811.91 378.755 1811.41 379.055L1802.79 384.249C1802.3 384.548 1801.94 385.033 1801.8 385.596C1801.66 386.16 1801.75 386.756 1802.05 387.254L1807.26 395.885C1807.56 396.383 1807.65 396.979 1807.51 397.543C1807.37 398.106 1807.01 398.591 1806.51 398.891L1797.9 404.085C1797.4 404.384 1797.05 404.869 1796.91 405.432C1796.77 405.996 1796.86 406.592 1797.16 407.09L1802.36 415.721C1802.66 416.219 1803.15 416.577 1803.71 416.717C1804.27 416.858 1804.87 416.768 1805.37 416.469L1813.98 411.275C1814.48 410.975 1815.07 410.886 1815.64 411.026C1816.2 411.166 1816.68 411.524 1816.98 412.022L1822.19 420.653C1822.49 421.151 1822.97 421.509 1823.54 421.649C1824.1 421.79 1824.7 421.7 1825.19 421.401L1833.81 416.207C1834.3 415.907 1834.66 415.422 1834.8 414.859C1834.94 414.295 1834.85 413.699 1834.55 413.201L1829.35 404.57C1829.05 404.072 1828.96 403.476 1829.09 402.913C1829.23 402.349 1829.59 401.864 1830.09 401.565L1838.7 396.371C1839.2 396.071 1839.56 395.586 1839.7 395.023C1839.83 394.459 1839.74 393.863 1839.44 393.365L1834.24 384.734C1833.94 384.236 1833.46 383.878 1832.89 383.738C1832.33 383.598 1831.73 383.687 1831.24 383.987L1822.62 389.181Z" fill="#24E5C2"/>
</g>
<g opacity="0.4" clip-path="url(#clip4_1959_35046)">
<path d="M1495.78 457.346L1492.16 456.235C1491.57 456.055 1491.08 455.649 1490.79 455.108C1490.51 454.566 1490.44 453.933 1490.62 453.347L1491.51 450.476C1491.69 449.89 1491.62 449.257 1491.34 448.715C1491.05 448.174 1490.56 447.769 1489.97 447.589L1487.1 446.706C1486.51 446.526 1486.02 446.121 1485.73 445.579C1485.44 445.038 1485.38 444.404 1485.56 443.819L1486.44 440.947C1486.62 440.362 1486.56 439.728 1486.27 439.187C1485.99 438.645 1485.49 438.24 1484.91 438.06L1482.03 437.177C1481.45 436.997 1480.95 436.592 1480.67 436.05C1480.38 435.509 1480.32 434.876 1480.5 434.29L1481.38 431.419C1481.56 430.833 1481.5 430.2 1481.21 429.658C1480.92 429.117 1480.43 428.711 1479.85 428.531L1476.97 427.649C1476.38 427.469 1475.75 427.529 1475.21 427.816C1474.67 428.102 1474.26 428.593 1474.08 429.178L1473.2 432.05C1473.02 432.635 1472.61 433.126 1472.07 433.413C1471.53 433.7 1470.9 433.76 1470.31 433.58L1452.83 428.217C1452.25 428.037 1451.76 427.631 1451.47 427.09C1451.18 426.548 1451.12 425.915 1451.3 425.329L1452.41 421.722C1452.53 421.331 1452.49 420.909 1452.29 420.548C1452.1 420.187 1451.78 419.917 1451.38 419.797L1447.77 418.688C1447.18 418.508 1446.55 418.568 1446.01 418.855C1445.47 419.142 1445.06 419.632 1444.88 420.218L1443.77 423.825C1443.65 424.216 1443.38 424.543 1443.02 424.734C1442.66 424.925 1442.24 424.965 1441.85 424.845L1438.23 423.736C1437.65 423.556 1437.01 423.616 1436.47 423.903C1435.93 424.19 1435.52 424.68 1435.34 425.266L1434.46 428.137C1434.28 428.723 1433.88 429.213 1433.34 429.5C1432.79 429.787 1432.16 429.847 1431.57 429.667L1428.7 428.785C1428.41 428.696 1428.1 428.664 1427.8 428.693C1427.5 428.722 1427.2 428.81 1426.94 428.952C1426.67 429.094 1426.43 429.287 1426.24 429.521C1426.04 429.755 1425.9 430.024 1425.81 430.314L1424.93 433.186C1424.75 433.771 1424.34 434.262 1423.8 434.549C1423.26 434.836 1422.62 434.896 1422.04 434.716L1419.16 433.833C1418.58 433.653 1417.94 433.713 1417.4 434C1416.86 434.287 1416.45 434.777 1416.27 435.363L1410.92 452.819C1410.74 453.404 1410.8 454.038 1411.08 454.579C1411.37 455.121 1411.86 455.526 1412.45 455.706L1415.32 456.589C1415.91 456.769 1416.55 456.709 1417.09 456.422C1417.63 456.135 1418.03 455.644 1418.21 455.059L1421.33 444.899C1421.51 444.313 1421.92 443.823 1422.46 443.536C1423 443.249 1423.64 443.189 1424.22 443.369L1427.1 444.252C1427.68 444.432 1428.18 444.837 1428.46 445.379C1428.75 445.92 1428.81 446.553 1428.63 447.139L1425.51 457.299C1425.33 457.885 1425.4 458.518 1425.68 459.059C1425.97 459.601 1426.46 460.006 1427.05 460.186L1429.92 461.069C1430.51 461.249 1431 461.654 1431.29 462.196C1431.58 462.737 1431.64 463.371 1431.46 463.956L1430.58 466.828C1430.49 467.118 1430.46 467.422 1430.49 467.724C1430.52 468.027 1430.6 468.32 1430.75 468.588C1430.89 468.856 1431.08 469.094 1431.32 469.287C1431.55 469.481 1431.82 469.626 1432.11 469.715L1443.02 473.064C1443.42 473.184 1443.84 473.144 1444.2 472.953C1444.56 472.762 1444.83 472.435 1444.95 472.044L1446.28 467.7C1446.4 467.31 1446.36 466.888 1446.17 466.527C1445.98 466.166 1445.65 465.896 1445.26 465.775L1434.35 462.427C1433.76 462.247 1433.27 461.841 1432.98 461.3C1432.69 460.758 1432.63 460.125 1432.81 459.539L1433.7 456.668C1433.87 456.082 1434.28 455.592 1434.82 455.305C1435.36 455.018 1436 454.958 1436.59 455.138L1468.67 464.983C1469.25 465.164 1469.74 465.569 1470.03 466.11C1470.32 466.652 1470.38 467.285 1470.2 467.871L1469.47 470.264C1469.36 470.617 1469.18 470.945 1468.95 471.229C1468.71 471.514 1468.43 471.75 1468.1 471.923C1467.77 472.096 1467.42 472.203 1467.05 472.238C1466.68 472.273 1466.31 472.236 1465.96 472.127L1456.25 469.147C1455.66 468.967 1455.03 469.027 1454.48 469.314C1453.94 469.601 1453.54 470.091 1453.36 470.677L1452.48 473.548C1452.3 474.134 1452.36 474.767 1452.64 475.309C1452.93 475.85 1453.42 476.256 1454.01 476.436L1464.19 479.561C1464.78 479.741 1465.41 479.681 1465.96 479.394C1466.5 479.107 1466.9 478.617 1467.08 478.031L1467.81 475.667C1468.03 474.955 1468.52 474.358 1469.18 474.009C1469.84 473.66 1470.61 473.587 1471.32 473.806L1473.72 474.542C1474.31 474.722 1474.94 474.662 1475.48 474.375C1476.03 474.088 1476.43 473.598 1476.61 473.012L1479.74 462.823C1479.92 462.237 1480.32 461.747 1480.86 461.46C1481.41 461.173 1482.04 461.113 1482.63 461.293L1485.5 462.173C1486.08 462.353 1486.57 462.758 1486.86 463.3C1487.15 463.841 1487.21 464.475 1487.03 465.061L1483.91 475.22C1483.73 475.806 1483.79 476.439 1484.08 476.981C1484.37 477.522 1484.86 477.928 1485.45 478.108L1489.06 479.217C1489.45 479.337 1489.87 479.297 1490.23 479.105C1490.6 478.914 1490.87 478.587 1490.99 478.197L1496.79 459.269C1496.91 458.879 1496.87 458.459 1496.68 458.098C1496.49 457.738 1496.17 457.467 1495.78 457.346ZM1446.6 440.642C1446.48 441.033 1446.21 441.36 1445.85 441.551C1445.49 441.742 1445.06 441.782 1444.67 441.662L1441.06 440.554C1440.47 440.374 1439.98 439.968 1439.7 439.427C1439.41 438.885 1439.35 438.252 1439.53 437.666L1440.41 434.795C1440.59 434.209 1440.99 433.719 1441.53 433.432C1442.08 433.145 1442.71 433.085 1443.3 433.265L1446.91 434.374C1447.3 434.494 1447.63 434.764 1447.82 435.125C1448.01 435.486 1448.05 435.908 1447.93 436.299L1446.6 440.642ZM1476.03 448.869C1475.85 449.455 1475.45 449.945 1474.91 450.232C1474.36 450.519 1473.73 450.579 1473.14 450.399L1470.26 449.514C1469.67 449.334 1469.18 448.929 1468.89 448.387C1468.61 447.846 1468.55 447.213 1468.73 446.627L1469.61 443.756C1469.79 443.17 1470.19 442.68 1470.73 442.393C1471.28 442.106 1471.91 442.046 1472.5 442.226L1475.38 443.11C1475.97 443.291 1476.46 443.696 1476.74 444.237C1477.03 444.779 1477.09 445.412 1476.91 445.998L1476.03 448.869Z" fill="#24E5C2"/>
<path d="M1489.39 423.485L1486.51 422.603C1485.29 422.228 1484 422.913 1483.62 424.132L1482.74 427.004C1482.37 428.224 1483.05 429.516 1484.28 429.891L1487.15 430.774C1488.37 431.149 1489.67 430.464 1490.04 429.244L1490.92 426.373C1491.3 425.153 1490.61 423.86 1489.39 423.485Z" fill="#24E5C2"/>
<path d="M1445.58 410.042L1442.71 409.159C1441.49 408.784 1440.19 409.469 1439.82 410.689L1438.94 413.56C1438.56 414.78 1439.25 416.073 1440.47 416.448L1443.35 417.33C1444.57 417.705 1445.86 417.02 1446.24 415.801L1447.12 412.929C1447.49 411.709 1446.81 410.417 1445.58 410.042Z" fill="#24E5C2"/>
</g>
<g opacity="0.4" clip-path="url(#clip5_1959_35046)">
<path d="M1421.46 764.317L1418.66 764.989C1417.48 765.274 1416.74 766.476 1417.03 767.674L1417.71 770.492C1418 771.689 1419.19 772.428 1420.38 772.142L1423.18 771.471C1424.37 771.185 1425.1 769.983 1424.81 768.786L1424.14 765.968C1423.85 764.771 1422.65 764.032 1421.46 764.317Z" fill="#24E5C2"/>
<path d="M1418.03 750.003L1415.23 750.675C1414.04 750.961 1413.31 752.162 1413.59 753.36L1414.27 756.185C1414.56 757.382 1415.76 758.121 1416.95 757.836L1419.74 757.164C1420.93 756.878 1421.66 755.676 1421.38 754.479L1420.7 751.654C1420.41 750.457 1419.22 749.718 1418.03 750.003Z" fill="#24E5C2"/>
<path d="M1408.97 774.882L1406.17 775.553C1404.98 775.839 1404.25 777.041 1404.54 778.238L1405.22 781.056C1405.5 782.253 1406.7 782.992 1407.89 782.707L1410.69 782.035C1411.88 781.75 1412.61 780.548 1412.32 779.35L1411.64 776.532C1411.36 775.335 1410.16 774.596 1408.97 774.882Z" fill="#24E5C2"/>
<path d="M1405.54 760.575L1402.74 761.247C1401.55 761.532 1400.82 762.734 1401.1 763.931L1401.78 766.749C1402.07 767.947 1403.27 768.686 1404.45 768.4L1407.25 767.728C1408.44 767.443 1409.17 766.241 1408.89 765.044L1408.21 762.226C1407.92 761.029 1406.72 760.29 1405.54 760.575Z" fill="#24E5C2"/>
<path d="M1425.37 717.977L1422.57 718.651C1422 718.788 1421.39 718.691 1420.89 718.381C1420.39 718.072 1420.03 717.575 1419.89 717L1419.22 714.182C1419.08 713.607 1418.72 713.11 1418.22 712.8C1417.72 712.491 1417.12 712.394 1416.55 712.531L1407.11 714.796C1406.76 714.881 1406.41 714.896 1406.06 714.841C1405.71 714.786 1405.37 714.663 1405.07 714.477C1404.77 714.291 1404.5 714.047 1404.29 713.759C1404.08 713.47 1403.93 713.143 1403.85 712.797L1403.28 710.441C1403.15 709.866 1402.79 709.369 1402.29 709.06C1401.78 708.75 1401.18 708.653 1400.61 708.79L1391.18 711.054C1390.84 711.137 1390.48 711.152 1390.13 711.096C1389.78 711.041 1389.45 710.917 1389.15 710.731C1388.84 710.545 1388.58 710.301 1388.37 710.013C1388.16 709.725 1388.01 709.399 1387.93 709.053L1387.37 706.697C1387.23 706.122 1386.87 705.625 1386.37 705.316C1385.87 705.006 1385.26 704.909 1384.69 705.046L1367.68 709.129C1367.11 709.266 1366.62 709.626 1366.31 710.129C1366.01 710.633 1365.91 711.239 1366.05 711.814L1366.73 714.632C1366.87 715.207 1366.77 715.812 1366.46 716.316C1366.16 716.819 1365.67 717.179 1365.1 717.316L1355.19 719.694C1354.62 719.831 1354.13 720.19 1353.82 720.694C1353.52 721.197 1353.42 721.803 1353.56 722.378L1354.24 725.196C1354.37 725.771 1354.28 726.377 1353.97 726.88C1353.67 727.384 1353.17 727.744 1352.6 727.881L1341.97 730.432C1341.59 730.523 1341.27 730.763 1341.06 731.099C1340.86 731.435 1340.79 731.838 1340.89 732.222L1341.74 735.762C1341.87 736.337 1341.78 736.943 1341.47 737.446C1341.17 737.95 1340.67 738.31 1340.1 738.447L1337.3 739.119C1336.73 739.256 1336.24 739.616 1335.93 740.119C1335.63 740.622 1335.53 741.228 1335.67 741.803L1348.37 794.702C1348.51 795.277 1348.87 795.774 1349.37 796.083C1349.87 796.393 1350.47 796.49 1351.04 796.353L1353.38 795.791C1353.73 795.709 1354.08 795.695 1354.43 795.752C1354.78 795.808 1355.12 795.933 1355.42 796.12C1355.72 796.307 1355.98 796.552 1356.19 796.84C1356.4 797.129 1356.55 797.455 1356.63 797.802L1357.19 800.15C1357.33 800.725 1357.69 801.222 1358.19 801.531C1358.69 801.841 1359.29 801.938 1359.87 801.801L1369.32 799.532C1369.66 799.449 1370.02 799.436 1370.37 799.492C1370.72 799.549 1371.05 799.674 1371.35 799.861C1371.65 800.048 1371.92 800.292 1372.12 800.581C1372.33 800.869 1372.48 801.196 1372.56 801.542L1373.13 803.891C1373.26 804.465 1373.62 804.962 1374.12 805.272C1374.63 805.582 1375.23 805.679 1375.8 805.541L1385.24 803.274C1385.59 803.192 1385.94 803.178 1386.29 803.235C1386.64 803.291 1386.98 803.416 1387.28 803.603C1387.58 803.79 1387.84 804.035 1388.05 804.323C1388.26 804.612 1388.41 804.938 1388.49 805.285L1389.05 807.633C1389.19 808.208 1389.55 808.705 1390.05 809.014C1390.55 809.324 1391.16 809.421 1391.73 809.284L1408.73 805.201C1409.31 805.064 1409.8 804.704 1410.1 804.201C1410.41 803.697 1410.51 803.091 1410.37 802.516L1409.69 799.698C1409.55 799.123 1409.65 798.518 1409.95 798.014C1410.26 797.511 1410.75 797.151 1411.32 797.014L1421.22 794.638C1421.79 794.501 1422.28 794.141 1422.59 793.638C1422.9 793.134 1422.99 792.529 1422.85 791.954L1422.18 789.136C1422.04 788.561 1422.13 787.955 1422.44 787.451C1422.74 786.948 1423.24 786.588 1423.81 786.451L1433.71 784.074C1434.28 783.937 1434.78 783.577 1435.08 783.073C1435.39 782.57 1435.48 781.964 1435.34 781.389L1434.67 778.571C1434.53 777.996 1434.62 777.39 1434.93 776.887C1435.24 776.384 1435.73 776.024 1436.3 775.887L1439.11 775.213C1439.68 775.076 1440.17 774.716 1440.48 774.213C1440.78 773.709 1440.88 773.103 1440.74 772.529L1428.04 719.63C1427.9 719.056 1427.54 718.56 1427.05 718.25C1426.55 717.94 1425.94 717.842 1425.37 717.977ZM1394.44 798.767C1394.58 799.342 1394.48 799.947 1394.18 800.451C1393.87 800.954 1393.38 801.314 1392.81 801.451L1390.47 802.011C1390.13 802.095 1389.77 802.109 1389.42 802.054C1389.08 801.998 1388.74 801.874 1388.44 801.688C1388.14 801.502 1387.87 801.258 1387.66 800.97C1387.46 800.682 1387.31 800.356 1387.22 800.01L1386.66 797.654C1386.52 797.079 1386.16 796.582 1385.66 796.273C1385.16 795.963 1384.56 795.866 1383.98 796.003L1374.55 798.269C1374.2 798.352 1373.85 798.367 1373.5 798.311C1373.15 798.256 1372.81 798.131 1372.51 797.946C1372.21 797.76 1371.95 797.516 1371.74 797.228C1371.53 796.94 1371.38 796.614 1371.3 796.268L1370.73 793.912C1370.59 793.337 1370.23 792.84 1369.73 792.531C1369.23 792.221 1368.63 792.124 1368.06 792.261L1358.61 794.528C1358.27 794.612 1357.91 794.626 1357.56 794.571C1357.21 794.515 1356.88 794.391 1356.58 794.205C1356.28 794.019 1356.01 793.775 1355.8 793.487C1355.6 793.199 1355.45 792.873 1355.36 792.527L1346.04 753.682C1345.95 753.299 1346.01 752.895 1346.21 752.559C1346.42 752.223 1346.75 751.984 1347.13 751.892L1357.3 749.451C1357.64 749.369 1358 749.355 1358.34 749.412C1358.69 749.468 1359.03 749.593 1359.33 749.78C1359.63 749.967 1359.89 750.211 1360.1 750.5C1360.31 750.788 1360.46 751.115 1360.54 751.461L1361.1 753.81C1361.24 754.385 1361.6 754.881 1362.1 755.191C1362.6 755.501 1363.21 755.598 1363.78 755.46L1373.22 753.193C1373.57 753.111 1373.92 753.097 1374.27 753.154C1374.62 753.21 1374.96 753.335 1375.26 753.522C1375.56 753.709 1375.82 753.954 1376.03 754.242C1376.24 754.531 1376.38 754.857 1376.47 755.204L1377.03 757.552C1377.17 758.127 1377.53 758.624 1378.03 758.933C1378.53 759.243 1379.13 759.34 1379.7 759.203L1382.5 758.531C1383.07 758.394 1383.68 758.491 1384.18 758.8C1384.68 759.11 1385.04 759.607 1385.18 760.182L1394.44 798.767ZM1433.63 774.227C1433.77 774.802 1433.68 775.408 1433.37 775.911C1433.06 776.414 1432.57 776.774 1432 776.911L1422.09 779.29C1421.52 779.428 1421.03 779.787 1420.72 780.291C1420.41 780.794 1420.32 781.4 1420.46 781.975L1421.13 784.793C1421.27 785.368 1421.18 785.974 1420.87 786.477C1420.56 786.981 1420.07 787.34 1419.5 787.478L1409.6 789.853C1409.03 789.99 1408.54 790.35 1408.23 790.854C1407.93 791.357 1407.83 791.963 1407.97 792.538L1408.65 795.356C1408.79 795.931 1408.69 796.536 1408.39 797.04C1408.08 797.543 1407.59 797.903 1407.02 798.04L1404.22 798.712C1403.65 798.849 1403.04 798.752 1402.54 798.443C1402.04 798.133 1401.68 797.636 1401.54 797.061L1392.28 758.476C1392.14 757.901 1392.24 757.296 1392.54 756.792C1392.85 756.289 1393.34 755.929 1393.91 755.792L1396.71 755.12C1397.28 754.983 1397.78 754.623 1398.08 754.12C1398.39 753.616 1398.48 753.01 1398.34 752.435L1397.67 749.617C1397.53 749.042 1397.62 748.437 1397.93 747.933C1398.24 747.43 1398.73 747.07 1399.3 746.933L1409.2 744.557C1409.77 744.42 1410.26 744.06 1410.57 743.557C1410.87 743.053 1410.97 742.448 1410.83 741.873L1410.15 739.055C1410.02 738.48 1410.11 737.874 1410.42 737.371C1410.72 736.867 1411.22 736.507 1411.79 736.37L1421.69 733.993C1422.26 733.856 1422.86 733.953 1423.36 734.262C1423.87 734.572 1424.22 735.069 1424.36 735.644L1433.63 774.227ZM1421.61 724.146C1421.75 724.721 1421.65 725.327 1421.35 725.83C1421.04 726.334 1420.55 726.693 1419.98 726.83L1410.07 729.21C1409.5 729.347 1409 729.706 1408.7 730.21C1408.39 730.713 1408.3 731.319 1408.43 731.894L1409.11 734.712C1409.25 735.287 1409.15 735.893 1408.85 736.396C1408.54 736.9 1408.05 737.26 1407.48 737.397L1397.58 739.772C1397.01 739.909 1396.52 740.269 1396.21 740.773C1395.91 741.276 1395.81 741.882 1395.95 742.457L1396.63 745.275C1396.76 745.85 1396.67 746.456 1396.36 746.959C1396.06 747.462 1395.56 747.822 1394.99 747.959L1378.49 751.922C1378.14 752.005 1377.79 752.019 1377.44 751.964C1377.09 751.909 1376.75 751.784 1376.45 751.598C1376.15 751.412 1375.89 751.169 1375.68 750.881C1375.47 750.593 1375.32 750.266 1375.24 749.92L1374.67 747.572C1374.54 746.997 1374.18 746.5 1373.67 746.191C1373.17 745.881 1372.57 745.784 1372 745.921L1362.53 748.195C1362.18 748.279 1361.83 748.293 1361.48 748.238C1361.13 748.182 1360.79 748.058 1360.49 747.872C1360.19 747.686 1359.93 747.442 1359.72 747.154C1359.51 746.866 1359.36 746.54 1359.28 746.194L1358.71 743.838C1358.57 743.263 1358.21 742.766 1357.71 742.457C1357.21 742.147 1356.61 742.05 1356.04 742.187L1346.13 744.566C1345.56 744.704 1344.95 744.607 1344.45 744.297C1343.95 743.987 1343.59 743.491 1343.45 742.916L1342.78 740.098C1342.64 739.523 1342.73 738.917 1343.04 738.413C1343.35 737.91 1343.84 737.55 1344.41 737.413L1354.32 735.034C1354.89 734.897 1355.38 734.537 1355.69 734.034C1356 733.53 1356.09 732.924 1355.95 732.349L1355.28 729.531C1355.14 728.957 1355.23 728.351 1355.54 727.847C1355.84 727.344 1356.34 726.984 1356.91 726.847L1366.81 724.47C1367.38 724.332 1367.88 723.973 1368.18 723.469C1368.49 722.966 1368.58 722.36 1368.44 721.785L1367.77 718.967C1367.63 718.392 1367.72 717.786 1368.03 717.283C1368.34 716.779 1368.83 716.42 1369.4 716.283L1385.95 712.31C1386.29 712.227 1386.65 712.214 1387 712.27C1387.35 712.327 1387.68 712.452 1387.99 712.639C1388.29 712.825 1388.55 713.07 1388.76 713.359C1388.96 713.647 1389.11 713.974 1389.2 714.32L1389.76 716.668C1389.9 717.243 1390.26 717.74 1390.76 718.05C1391.26 718.359 1391.86 718.456 1392.43 718.319L1401.88 716.052C1402.22 715.971 1402.58 715.958 1402.92 716.015C1403.27 716.072 1403.61 716.198 1403.91 716.385C1404.21 716.572 1404.47 716.816 1404.68 717.104C1404.88 717.392 1405.03 717.719 1405.11 718.064L1405.68 720.413C1405.82 720.987 1406.18 721.484 1406.68 721.794C1407.18 722.104 1407.78 722.2 1408.35 722.063L1418.26 719.686C1418.54 719.618 1418.83 719.607 1419.12 719.653C1419.41 719.699 1419.68 719.802 1419.93 719.955C1420.18 720.109 1420.39 720.31 1420.57 720.547C1420.74 720.784 1420.86 721.052 1420.93 721.337L1421.61 724.146Z" fill="#24E5C2"/>
<path d="M1382.74 728.212L1379.94 728.884C1378.75 729.169 1378.02 730.371 1378.31 731.568L1378.98 734.386C1379.27 735.583 1380.47 736.322 1381.66 736.037L1384.46 735.365C1385.65 735.08 1386.38 733.878 1386.09 732.681L1385.41 729.863C1385.12 728.665 1383.93 727.926 1382.74 728.212Z" fill="#24E5C2"/>
<path d="M1380.55 781.704L1377.75 782.376C1376.56 782.661 1375.83 783.863 1376.12 785.06L1376.8 787.878C1377.08 789.075 1378.28 789.815 1379.47 789.529L1382.27 788.857C1383.46 788.572 1384.19 787.37 1383.9 786.173L1383.22 783.355C1382.94 782.158 1381.74 781.418 1380.55 781.704Z" fill="#24E5C2"/>
<path d="M1361.19 763.647L1358.38 764.321C1357.19 764.607 1356.46 765.808 1356.75 767.006L1357.43 769.831C1357.72 771.028 1358.91 771.767 1360.1 771.482L1362.91 770.808C1364.1 770.523 1364.83 769.321 1364.54 768.124L1363.86 765.298C1363.58 764.101 1362.38 763.362 1361.19 763.647Z" fill="#24E5C2"/>
</g>
<g opacity="0.4" clip-path="url(#clip6_1959_35046)">
<path d="M1912.41 837.986L1909.9 836.565C1908.83 835.961 1907.48 836.338 1906.87 837.406L1905.45 839.921C1904.85 840.989 1905.22 842.345 1906.29 842.949L1908.81 844.37C1909.88 844.973 1911.23 844.597 1911.83 843.528L1913.26 841.013C1913.86 839.945 1913.48 838.589 1912.41 837.986Z" fill="#24E5C2"/>
<path d="M1902.42 840.763L1899.91 839.342C1898.84 838.738 1897.48 839.115 1896.88 840.183L1895.46 842.698C1894.85 843.766 1895.23 845.122 1896.3 845.726L1898.82 847.147C1899.88 847.75 1901.24 847.373 1901.84 846.305L1903.26 843.79C1903.87 842.722 1903.49 841.366 1902.42 840.763Z" fill="#24E5C2"/>
<path d="M1909.64 827.995L1907.12 826.574C1906.05 825.97 1904.7 826.347 1904.09 827.415L1902.67 829.93C1902.07 830.998 1902.45 832.354 1903.51 832.957L1906.03 834.378C1907.1 834.982 1908.45 834.605 1909.06 833.537L1910.48 831.022C1911.08 829.954 1910.71 828.598 1909.64 827.995Z" fill="#24E5C2"/>
<path d="M1899.64 830.771L1897.13 829.35C1896.06 828.747 1894.71 829.123 1894.1 830.192L1892.68 832.707C1892.08 833.775 1892.45 835.131 1893.52 835.734L1896.04 837.155C1897.11 837.759 1898.46 837.382 1899.07 836.314L1900.49 833.799C1901.09 832.731 1900.71 831.375 1899.64 830.771Z" fill="#24E5C2"/>
<path d="M1883.26 804.668L1840.5 780.508C1839.98 780.218 1839.38 780.144 1838.81 780.301C1838.24 780.459 1837.76 780.836 1837.47 781.349L1821.62 809.4C1821.33 809.913 1821.26 810.52 1821.41 811.088C1821.57 811.656 1821.95 812.137 1822.46 812.427L1876.06 842.709C1876.57 842.999 1877.18 843.073 1877.74 842.915C1878.31 842.758 1878.79 842.381 1879.08 841.868L1894.93 813.817C1895.22 813.304 1895.3 812.697 1895.14 812.129C1894.98 811.561 1894.6 811.079 1894.09 810.789L1883.26 804.668ZM1882.43 821.043L1876.31 831.877C1876.02 832.39 1875.53 832.767 1874.97 832.924C1874.4 833.082 1873.79 833.008 1873.28 832.718L1832.45 809.651C1831.94 809.361 1831.56 808.879 1831.4 808.311C1831.25 807.743 1831.32 807.136 1831.61 806.623L1840.25 791.34C1840.54 790.827 1841.02 790.45 1841.59 790.292C1842.15 790.135 1842.76 790.209 1843.27 790.499L1884.1 813.566C1884.61 813.856 1884.99 814.338 1885.15 814.906C1885.31 815.474 1885.23 816.081 1884.94 816.594L1882.43 821.043Z" fill="#24E5C2"/>
<path d="M1820.25 777.491L1817.74 776.07C1817.48 775.926 1817.2 775.834 1816.91 775.799C1816.63 775.763 1816.33 775.785 1816.05 775.864C1815.77 775.942 1815.51 776.074 1815.28 776.254C1815.05 776.434 1814.85 776.657 1814.71 776.911L1813.29 779.426C1813 779.939 1812.52 780.316 1811.95 780.474C1811.38 780.632 1810.78 780.558 1810.26 780.268L1807.75 778.847C1807.23 778.557 1806.63 778.483 1806.06 778.64C1805.49 778.798 1805.01 779.175 1804.72 779.688L1803.3 782.203C1803.01 782.716 1802.93 783.323 1803.09 783.891C1803.25 784.459 1803.63 784.941 1804.14 785.231L1806.66 786.652C1807.17 786.941 1807.55 787.423 1807.7 787.991C1807.86 788.559 1807.79 789.166 1807.5 789.679L1806.08 792.194C1805.79 792.707 1805.71 793.314 1805.87 793.882C1806.03 794.45 1806.4 794.932 1806.92 795.222L1809.43 796.643C1809.95 796.933 1810.55 797.007 1811.12 796.849C1811.69 796.691 1812.17 796.314 1812.46 795.801L1813.88 793.286C1814.17 792.773 1814.65 792.396 1815.22 792.239C1815.79 792.081 1816.4 792.155 1816.91 792.445L1819.42 793.866C1819.94 794.156 1820.54 794.23 1821.11 794.072C1821.68 793.914 1822.16 793.537 1822.45 793.024L1823.87 790.51C1824.16 789.996 1824.24 789.389 1824.08 788.821C1823.92 788.254 1823.54 787.772 1823.03 787.482L1820.52 786.061C1820 785.771 1819.63 785.289 1819.47 784.721C1819.31 784.154 1819.38 783.546 1819.67 783.033L1821.09 780.518C1821.24 780.264 1821.33 779.985 1821.37 779.695C1821.4 779.405 1821.38 779.112 1821.3 778.83C1821.22 778.549 1821.09 778.286 1820.91 778.056C1820.73 777.827 1820.51 777.634 1820.25 777.491Z" fill="#24E5C2"/>
<path d="M1936 826.048L1933.47 824.62C1932.96 824.33 1932.59 823.848 1932.43 823.28C1932.27 822.713 1932.34 822.105 1932.63 821.592L1934.05 819.077C1934.34 818.564 1934.42 817.957 1934.26 817.389C1934.1 816.822 1933.73 816.34 1933.21 816.05L1815.79 749.7C1815.27 749.41 1814.67 749.336 1814.1 749.494C1813.53 749.652 1813.05 750.029 1812.76 750.542L1811.34 753.057C1811.05 753.57 1810.57 753.947 1810 754.104C1809.43 754.262 1808.82 754.188 1808.31 753.898L1805.79 752.477C1805.28 752.187 1804.67 752.113 1804.11 752.271C1803.54 752.429 1803.06 752.805 1802.77 753.318L1779.7 794.137C1779.41 794.65 1779.34 795.257 1779.5 795.825C1779.65 796.393 1780.03 796.875 1780.54 797.165L1783.06 798.586C1783.57 798.875 1783.95 799.357 1784.11 799.925C1784.27 800.493 1784.19 801.1 1783.9 801.613L1782.48 804.134C1782.19 804.648 1782.11 805.255 1782.27 805.823C1782.43 806.39 1782.8 806.872 1783.32 807.162L1900.75 873.512C1901.26 873.802 1901.87 873.876 1902.43 873.718C1903 873.56 1903.48 873.183 1903.77 872.67L1904.96 870.568C1905.14 870.259 1905.37 869.987 1905.65 869.769C1905.93 869.55 1906.25 869.388 1906.59 869.293C1906.93 869.198 1907.29 869.171 1907.64 869.215C1907.99 869.258 1908.34 869.37 1908.64 869.544L1910.74 870.728C1911.25 871.018 1911.86 871.093 1912.43 870.935C1913 870.777 1913.48 870.4 1913.77 869.887L1936.83 829.069C1937.12 828.558 1937.19 827.953 1937.04 827.388C1936.88 826.822 1936.51 826.34 1936 826.048ZM1907.62 865.861C1907.45 866.17 1907.21 866.442 1906.94 866.661C1906.66 866.88 1906.34 867.042 1906 867.137C1905.65 867.233 1905.3 867.26 1904.94 867.217C1904.59 867.174 1904.25 867.063 1903.94 866.888L1786.93 800.772C1786.42 800.482 1786.04 800 1785.88 799.432C1785.72 798.864 1785.8 798.257 1786.09 797.744L1809.15 756.926C1809.44 756.413 1809.92 756.036 1810.49 755.878C1811.06 755.72 1811.67 755.794 1812.18 756.084L1929.21 822.208C1929.83 822.564 1930.28 823.152 1930.47 823.841C1930.65 824.53 1930.56 825.266 1930.21 825.887L1907.62 865.861Z" fill="#24E5C2"/>
</g>
<g opacity="0.4" clip-path="url(#clip7_1959_35046)">
<path d="M622.532 869.512L619.82 870.457C619.268 870.649 618.662 870.613 618.135 870.356C617.608 870.1 617.203 869.644 617.009 869.088L616.061 866.367C615.868 865.812 615.463 865.356 614.936 865.099C614.409 864.843 613.803 864.807 613.251 864.999L610.546 865.941C609.994 866.134 609.388 866.098 608.861 865.841C608.334 865.584 607.929 865.128 607.736 864.573L606.788 861.852C606.594 861.297 606.189 860.841 605.662 860.584C605.135 860.328 604.529 860.291 603.977 860.484L601.272 861.426C600.72 861.619 600.114 861.582 599.587 861.326C599.06 861.069 598.655 860.613 598.462 860.058L597.514 857.337C597.32 856.782 596.915 856.326 596.388 856.069C595.861 855.812 595.255 855.776 594.703 855.968L591.998 856.911C591.446 857.103 590.84 857.067 590.313 856.811C589.786 856.554 589.381 856.098 589.188 855.543L588.24 852.821C588.046 852.266 587.642 851.81 587.115 851.554C586.588 851.297 585.981 851.261 585.43 851.453L582.724 852.396C582.172 852.588 581.566 852.552 581.039 852.295C580.512 852.039 580.107 851.583 579.914 851.027L578.966 848.306C578.772 847.751 578.368 847.295 577.841 847.038C577.314 846.782 576.708 846.746 576.156 846.938L573.45 847.88C572.898 848.073 572.292 848.037 571.765 847.78C571.238 847.523 570.834 847.067 570.64 846.512L569.692 843.791C569.499 843.236 569.094 842.78 568.567 842.523C568.04 842.267 567.434 842.23 566.882 842.423L564.176 843.365C563.625 843.558 563.018 843.521 562.491 843.265C561.964 843.008 561.56 842.552 561.366 841.997L560.418 839.276C560.225 838.721 559.82 838.265 559.293 838.008C558.766 837.751 558.16 837.715 557.608 837.907L554.903 838.85C554.351 839.042 553.745 839.006 553.218 838.75C552.691 838.493 552.286 838.037 552.092 837.482L551.144 834.761C550.951 834.205 550.546 833.749 550.019 833.493C549.492 833.236 548.886 833.2 548.334 833.392L545.629 834.335C545.077 834.527 544.471 834.491 543.944 834.234C543.417 833.978 543.012 833.522 542.818 832.967L541.87 830.245C541.677 829.69 541.272 829.234 540.745 828.977C540.218 828.721 539.612 828.685 539.06 828.877L536.355 829.82C535.803 830.012 535.197 829.976 534.67 829.719C534.143 829.462 533.738 829.006 533.545 828.451L532.597 825.73C532.403 825.175 531.998 824.719 531.471 824.462C530.944 824.206 530.338 824.169 529.786 824.362L527.081 825.304C526.529 825.497 526.077 825.902 525.823 826.43C525.57 826.959 525.536 827.567 525.729 828.123L560.373 927.56C560.567 928.115 560.971 928.571 561.498 928.827C562.025 929.084 562.631 929.12 563.183 928.928L565.889 927.985C566.441 927.793 566.893 927.388 567.147 926.86C567.4 926.331 567.434 925.722 567.24 925.167L566.292 922.446C566.099 921.891 566.133 921.282 566.386 920.753C566.64 920.225 567.092 919.82 567.644 919.628L571.043 918.443C571.411 918.315 571.712 918.045 571.881 917.693C572.05 917.341 572.073 916.935 571.944 916.565L570.911 913.599C570.675 912.924 570.717 912.183 571.025 911.54C571.333 910.897 571.884 910.404 572.555 910.17L574.81 909.385C575.362 909.192 575.814 908.788 576.068 908.259C576.321 907.73 576.355 907.122 576.161 906.566L575.371 904.299C575.136 903.623 575.177 902.883 575.486 902.24C575.794 901.597 576.344 901.104 577.016 900.87L579.27 900.084C579.822 899.892 580.428 899.928 580.955 900.185C581.482 900.442 581.887 900.898 582.081 901.453L583.029 904.174C583.222 904.729 583.627 905.185 584.154 905.442C584.681 905.698 585.287 905.735 585.839 905.542L588.544 904.6C589.096 904.407 589.702 904.444 590.229 904.7C590.756 904.957 591.161 905.413 591.354 905.968L594.709 915.597C594.903 916.152 595.307 916.608 595.834 916.865C596.361 917.121 596.968 917.158 597.519 916.965L600.225 916.023C600.777 915.83 601.383 915.867 601.91 916.123C602.437 916.38 602.842 916.836 603.035 917.391L608.799 933.935C608.992 934.49 609.397 934.946 609.924 935.203C610.451 935.459 611.057 935.495 611.609 935.303L614.314 934.36C614.866 934.168 615.472 934.204 615.999 934.461C616.526 934.718 616.931 935.174 617.125 935.729L618.073 938.45C618.266 939.005 618.671 939.461 619.198 939.718C619.725 939.974 620.331 940.011 620.883 939.818L630.462 936.481C631.014 936.288 631.467 935.884 631.72 935.355C631.974 934.826 632.007 934.218 631.814 933.663L631.024 931.395C630.907 931.06 630.858 930.706 630.877 930.353C630.897 930 630.985 929.654 631.138 929.336C631.291 929.017 631.505 928.732 631.767 928.497C632.03 928.262 632.336 928.082 632.669 927.966L635.61 926.941C635.978 926.813 636.279 926.543 636.448 926.191C636.617 925.838 636.64 925.432 636.511 925.062L632.911 914.729C632.717 914.173 632.312 913.717 631.785 913.461C631.258 913.204 630.652 913.168 630.1 913.36L627.395 914.303C626.843 914.495 626.237 914.459 625.71 914.202C625.183 913.946 624.778 913.49 624.585 912.935L621.23 903.306C621.037 902.75 620.632 902.294 620.105 902.038C619.578 901.781 618.972 901.745 618.42 901.937L615.714 902.88C615.163 903.072 614.556 903.036 614.029 902.779C613.502 902.523 613.098 902.067 612.904 901.512L609.549 891.883C609.356 891.327 608.951 890.871 608.424 890.615C607.897 890.358 607.291 890.322 606.739 890.514L604.034 891.457C603.482 891.649 602.876 891.613 602.349 891.356C601.822 891.1 601.417 890.644 601.224 890.089L600.032 886.67C599.903 886.299 599.926 885.894 600.095 885.541C600.264 885.189 600.566 884.919 600.934 884.791L624.941 876.427C625.493 876.234 625.945 875.829 626.199 875.301C626.452 874.772 626.486 874.163 626.293 873.608L625.342 870.88C625.149 870.325 624.744 869.869 624.217 869.612C623.69 869.356 623.084 869.319 622.532 869.512ZM610.149 871.479C610.343 872.034 610.309 872.643 610.055 873.171C609.802 873.7 609.349 874.105 608.798 874.297L592.351 880.027C591.799 880.219 591.347 880.624 591.093 881.153C590.84 881.681 590.806 882.29 590.999 882.845L594.354 892.474C594.547 893.029 594.952 893.485 595.479 893.742C596.006 893.999 596.612 894.035 597.164 893.842L599.87 892.9C600.421 892.708 601.028 892.744 601.555 893C602.082 893.257 602.486 893.713 602.68 894.268L606.035 903.897C606.228 904.452 606.633 904.908 607.16 905.165C607.687 905.422 608.293 905.458 608.845 905.265L611.557 904.32C612.109 904.128 612.715 904.164 613.242 904.421C613.769 904.678 614.174 905.134 614.367 905.689L617.722 915.318C617.915 915.873 618.32 916.329 618.847 916.586C619.374 916.842 619.98 916.878 620.532 916.686L623.238 915.743C623.789 915.551 624.396 915.587 624.923 915.844C625.45 916.101 625.854 916.557 626.048 917.112L629.247 926.294C629.364 926.628 629.415 926.982 629.396 927.335C629.377 927.688 629.289 928.033 629.137 928.351C628.985 928.67 628.772 928.955 628.51 929.189C628.247 929.424 627.942 929.605 627.609 929.721L618.474 932.903C617.922 933.096 617.316 933.06 616.789 932.803C616.262 932.546 615.857 932.09 615.664 931.535L609.902 914.998C609.709 914.443 609.304 913.987 608.777 913.731C608.25 913.474 607.644 913.438 607.092 913.63L604.387 914.573C603.835 914.765 603.229 914.729 602.702 914.472C602.175 914.216 601.77 913.76 601.576 913.204L598.222 903.575C598.028 903.02 597.623 902.564 597.096 902.308C596.569 902.051 595.963 902.015 595.411 902.207L592.706 903.15C592.154 903.342 591.548 903.306 591.021 903.049C590.494 902.793 590.089 902.337 589.896 901.781L588.948 899.06C588.754 898.505 588.35 898.049 587.823 897.792C587.296 897.536 586.689 897.5 586.138 897.692L583.432 898.634C582.88 898.827 582.274 898.791 581.747 898.534C581.22 898.277 580.815 897.821 580.622 897.266L579.674 894.545C579.48 893.99 579.076 893.534 578.549 893.277C578.022 893.021 577.416 892.984 576.864 893.177L574.158 894.119C573.606 894.311 573.154 894.716 572.901 895.245C572.647 895.773 572.613 896.382 572.807 896.937L573.597 899.205C573.714 899.539 573.765 899.893 573.746 900.246C573.727 900.599 573.639 900.944 573.487 901.262C573.335 901.581 573.122 901.866 572.859 902.1C572.597 902.335 572.291 902.516 571.959 902.632L569.004 903.661C568.636 903.789 568.335 904.059 568.166 904.412C567.997 904.764 567.974 905.17 568.103 905.54L569.136 908.505C569.254 908.839 569.304 909.193 569.285 909.546C569.267 909.899 569.179 910.244 569.026 910.563C568.874 910.881 568.661 911.166 568.399 911.401C568.137 911.636 567.831 911.816 567.499 911.932L565.237 912.72C564.685 912.912 564.079 912.876 563.552 912.619C563.025 912.363 562.62 911.907 562.427 911.352L537.41 839.546C537.216 838.99 537.25 838.382 537.504 837.853C537.757 837.325 538.21 836.92 538.762 836.727L541.467 835.785C542.019 835.593 542.625 835.629 543.152 835.885C543.679 836.142 544.084 836.598 544.277 837.153L545.225 839.874C545.419 840.429 545.823 840.886 546.35 841.142C546.877 841.399 547.483 841.435 548.035 841.243L550.741 840.3C551.014 840.205 551.303 840.165 551.593 840.182C551.882 840.199 552.165 840.273 552.426 840.4C552.687 840.528 552.92 840.705 553.113 840.922C553.306 841.14 553.455 841.393 553.551 841.668L554.499 844.39C554.595 844.664 554.743 844.918 554.937 845.135C555.13 845.353 555.363 845.53 555.624 845.657C555.885 845.784 556.168 845.859 556.457 845.876C556.747 845.893 557.036 845.853 557.309 845.758L560.015 844.815C560.566 844.623 561.173 844.659 561.7 844.916C562.227 845.172 562.631 845.628 562.825 846.184L563.773 848.905C563.966 849.46 564.371 849.916 564.898 850.173C565.425 850.429 566.031 850.465 566.583 850.273L569.288 849.331C569.84 849.138 570.446 849.174 570.973 849.431C571.501 849.688 571.905 850.144 572.099 850.699L573.047 853.42C573.24 853.975 573.645 854.431 574.172 854.688C574.699 854.944 575.305 854.981 575.857 854.788L578.562 853.846C579.114 853.653 579.72 853.69 580.247 853.946C580.774 854.203 581.179 854.659 581.373 855.214L582.321 857.935C582.514 858.49 582.919 858.946 583.446 859.203C583.973 859.46 584.579 859.496 585.131 859.304L587.836 858.361C588.388 858.169 588.994 858.205 589.521 858.461C590.048 858.718 590.453 859.174 590.646 859.729L591.597 862.457C591.79 863.013 592.195 863.469 592.722 863.725C593.249 863.982 593.855 864.018 594.407 863.826L597.119 862.881C597.671 862.689 598.277 862.725 598.805 862.981C599.332 863.238 599.736 863.694 599.93 864.249L600.878 866.97C601.071 867.525 601.476 867.982 602.003 868.238C602.53 868.495 603.136 868.531 603.688 868.339L606.393 867.396C606.945 867.204 607.551 867.24 608.078 867.496C608.605 867.753 609.01 868.209 609.204 868.764L610.149 871.479Z" fill="#FF6F95"/>
</g>
<g opacity="0.4" clip-path="url(#clip8_1959_35046)">
<path d="M262.056 827.544L209.795 816.575C209.016 816.412 208.334 815.946 207.899 815.279C207.464 814.613 207.311 813.802 207.475 813.023L208.276 809.206C208.439 808.427 208.287 807.616 207.852 806.949C207.417 806.283 206.735 805.817 205.956 805.654L163.374 796.717C162.595 796.553 161.783 796.706 161.117 797.141C160.451 797.576 159.985 798.258 159.822 799.037L154.954 822.231C154.79 823.01 154.324 823.692 153.658 824.127C152.992 824.562 152.18 824.714 151.401 824.551L128.207 819.683C127.821 819.602 127.423 819.598 127.036 819.671C126.649 819.743 126.28 819.892 125.95 820.107C125.62 820.323 125.336 820.601 125.114 820.926C124.891 821.251 124.735 821.617 124.654 822.003L109.617 893.652C109.453 894.43 109.606 895.242 110.041 895.908C110.476 896.574 111.158 897.041 111.937 897.204L212.652 918.342C213.431 918.505 214.243 918.353 214.909 917.918C215.575 917.483 216.041 916.801 216.205 916.022L221.075 892.818C221.238 892.039 221.704 891.357 222.37 890.922C223.037 890.487 223.848 890.335 224.627 890.498L247.822 895.366C248.6 895.529 249.412 895.377 250.078 894.942C250.744 894.507 251.21 893.825 251.374 893.046L264.376 831.096C264.539 830.317 264.387 829.506 263.952 828.839C263.517 828.173 262.835 827.707 262.056 827.544ZM208.541 904.288C208.378 905.067 207.912 905.749 207.246 906.184C206.58 906.619 205.768 906.771 204.989 906.608L123.661 889.539C122.882 889.375 122.201 888.909 121.765 888.243C121.33 887.577 121.178 886.765 121.341 885.987L132.31 833.725C132.473 832.946 132.939 832.265 133.605 831.83C134.272 831.394 135.083 831.242 135.862 831.405L168.755 838.309C169.534 838.472 170.216 838.938 170.651 839.605C171.086 840.271 171.239 841.083 171.075 841.861L170.069 846.657C169.96 847.176 170.062 847.717 170.352 848.161C170.642 848.605 171.096 848.916 171.615 849.025L215.157 858.163C215.935 858.327 216.617 858.793 217.052 859.459C217.487 860.125 217.64 860.937 217.476 861.716L208.541 904.288ZM243.711 881.312C243.547 882.091 243.081 882.773 242.415 883.208C241.749 883.643 240.937 883.795 240.158 883.632L226.653 880.797C225.874 880.634 225.192 880.168 224.757 879.502C224.322 878.835 224.169 878.024 224.333 877.245L229.199 854.06C229.362 853.281 229.21 852.47 228.775 851.804C228.34 851.137 227.658 850.671 226.879 850.508L174.627 839.541C173.849 839.378 173.167 838.912 172.732 838.246C172.297 837.58 172.144 836.768 172.308 835.989L173.109 832.172C173.272 831.394 173.12 830.582 172.684 829.916C172.249 829.25 171.568 828.783 170.789 828.62L166.962 827.817C166.184 827.653 165.502 827.187 165.067 826.521C164.632 825.855 164.479 825.043 164.642 824.265L167.477 810.759C167.64 809.98 168.107 809.298 168.773 808.863C169.439 808.428 170.251 808.276 171.029 808.439L203.923 815.343C204.701 815.506 205.383 815.972 205.818 816.638C206.253 817.305 206.406 818.116 206.242 818.895L205.441 822.712C205.278 823.49 205.431 824.302 205.866 824.968C206.301 825.635 206.982 826.101 207.761 826.264L250.334 835.199C251.112 835.363 251.794 835.829 252.229 836.495C252.664 837.161 252.817 837.973 252.653 838.751L243.711 881.312Z" fill="#24E5C2"/>
</g>
<g opacity="0.4" clip-path="url(#clip9_1959_35046)">
<path d="M127.202 496.513L125.43 495.605C124.959 495.336 124.609 494.896 124.454 494.375C124.299 493.855 124.351 493.295 124.599 492.812L125.461 491.128C125.672 490.717 125.711 490.239 125.569 489.799C125.427 489.36 125.117 488.994 124.706 488.784L123.027 487.924C122.779 487.798 122.559 487.624 122.378 487.413C122.198 487.201 122.061 486.956 121.975 486.692C121.889 486.428 121.857 486.149 121.879 485.872C121.901 485.595 121.978 485.325 122.105 485.077L122.967 483.393C123.178 482.982 123.217 482.505 123.075 482.065C122.933 481.626 122.623 481.26 122.212 481.05L115.083 477.398C114.672 477.187 114.361 476.822 114.22 476.382C114.078 475.943 114.117 475.465 114.327 475.054L115.359 473.039C115.57 472.628 115.608 472.15 115.467 471.711C115.325 471.271 115.014 470.906 114.603 470.696L102.691 464.593C102.444 464.467 102.223 464.293 102.043 464.082C101.862 463.87 101.725 463.625 101.64 463.361C101.554 463.097 101.521 462.818 101.543 462.541C101.566 462.264 101.642 461.994 101.769 461.746L102.632 460.062C102.842 459.651 102.881 459.174 102.739 458.734C102.598 458.295 102.287 457.929 101.876 457.719L94.7474 454.067C94.3364 453.856 94.0258 453.491 93.8841 453.051C93.7424 452.612 93.781 452.134 93.9916 451.723L105.507 429.247C105.717 428.836 105.756 428.358 105.614 427.918C105.472 427.479 105.162 427.114 104.751 426.903L103.072 426.043C102.824 425.917 102.604 425.743 102.423 425.532C102.243 425.321 102.106 425.076 102.02 424.811C101.935 424.547 101.902 424.268 101.924 423.991C101.946 423.714 102.023 423.444 102.15 423.197L103.013 421.513C103.223 421.102 103.262 420.624 103.12 420.184C102.978 419.745 102.668 419.38 102.257 419.169L95.128 415.517C94.717 415.306 94.2392 415.268 93.7997 415.409C93.3601 415.551 92.9949 415.862 92.7844 416.273L91.7522 418.287C91.5417 418.698 91.1764 419.009 90.7369 419.151C90.2974 419.292 89.8196 419.254 89.4085 419.043L87.3939 418.011C86.9829 417.8 86.5051 417.762 86.0655 417.903C85.626 418.045 85.2608 418.356 85.0502 418.767L60.4377 466.808C60.2272 467.219 59.862 467.53 59.4224 467.671C58.9829 467.813 58.5051 467.774 58.0941 467.564L56.4152 466.704C56.1675 466.578 55.9471 466.404 55.7666 466.193C55.5862 465.981 55.4492 465.736 55.3635 465.472C55.2778 465.207 55.2452 464.929 55.2674 464.652C55.2896 464.375 55.3663 464.105 55.493 463.857L56.3558 462.173C56.5664 461.762 56.605 461.284 56.4633 460.845C56.3216 460.405 56.011 460.04 55.6 459.83L53.9212 458.97C53.6735 458.843 53.4531 458.67 53.2726 458.458C53.0921 458.247 52.9551 458.002 52.8695 457.738C52.7838 457.473 52.7511 457.195 52.7734 456.918C52.7956 456.641 52.8723 456.371 52.999 456.123L53.8591 454.444C54.0697 454.033 54.1084 453.556 53.9666 453.116C53.8249 452.676 53.5144 452.311 53.1034 452.101L45.4529 448.181C45.1789 448.041 44.8603 448.015 44.5673 448.11C44.2743 448.204 44.0308 448.411 43.8904 448.685L42.5963 451.211C42.3857 451.622 42.0205 451.933 41.581 452.074C41.1415 452.216 40.6636 452.177 40.2526 451.967L37.7214 450.67C37.4474 450.53 37.1289 450.504 36.8359 450.598C36.5428 450.693 36.2994 450.9 36.159 451.174L29.6195 463.938C29.4089 464.349 29.3702 464.827 29.512 465.267C29.6537 465.706 29.9642 466.072 30.3752 466.282L32.0593 467.145C32.3066 467.272 32.5266 467.446 32.7064 467.658C32.8863 467.87 33.0227 468.115 33.1076 468.38C33.1925 468.644 33.2244 468.923 33.2014 469.2C33.1784 469.477 33.101 469.747 32.9736 469.994L32.1135 471.673C31.9029 472.084 31.8643 472.561 32.006 473.001C32.1477 473.44 32.4583 473.806 32.8693 474.016L34.8839 475.048C35.2949 475.259 35.6055 475.624 35.7472 476.064C35.8889 476.503 35.8503 476.981 35.6397 477.392L29.3675 489.635C29.1569 490.046 29.1182 490.524 29.26 490.963C29.4017 491.403 29.7122 491.768 30.1232 491.979L31.8124 492.844C32.0616 492.972 32.2828 493.147 32.4634 493.361C32.644 493.575 32.7803 493.823 32.8644 494.09C32.9485 494.357 32.9787 494.638 32.9533 494.916C32.9278 495.195 32.8472 495.466 32.7162 495.713L29.236 502.506C29.0255 502.917 28.9868 503.395 29.1285 503.835C29.2703 504.274 29.5808 504.639 29.9918 504.85L31.6913 505.721C31.9387 505.847 32.1586 506.022 32.3385 506.234C32.5184 506.446 32.6547 506.691 32.7397 506.955C32.8246 507.22 32.8565 507.499 32.8335 507.776C32.8105 508.053 32.7331 508.323 32.6057 508.57L29.1255 515.363C28.915 515.774 28.8763 516.251 29.018 516.691C29.1598 517.13 29.4703 517.496 29.8813 517.706L31.8959 518.738C32.307 518.949 32.6175 519.314 32.7592 519.754C32.901 520.193 32.8623 520.671 32.6517 521.082L26.3769 533.33C26.1663 533.741 26.1276 534.219 26.2694 534.658C26.4111 535.098 26.7216 535.463 27.1326 535.674L80.7943 563.166C81.0683 563.306 81.3868 563.332 81.6799 563.237C81.9729 563.143 82.2164 562.936 82.3567 562.662L88.9042 549.882C89.1148 549.471 89.48 549.16 89.9195 549.018C90.359 548.877 90.8368 548.915 91.2479 549.126L93.2625 550.158C93.6735 550.369 94.1513 550.407 94.5909 550.266C95.0304 550.124 95.3956 549.813 95.6062 549.402L101.878 537.159C102.089 536.748 102.454 536.438 102.894 536.296C103.333 536.154 103.811 536.193 104.222 536.404L106.753 537.7C107.027 537.841 107.346 537.867 107.639 537.772C107.932 537.678 108.175 537.471 108.316 537.197L127.958 498.857C128.169 498.445 128.207 497.968 128.066 497.528C127.924 497.089 127.613 496.723 127.202 496.513ZM103.469 534.055C103.258 534.466 102.893 534.776 102.454 534.918C102.014 535.06 101.536 535.021 101.125 534.811L98.5941 533.514C98.32 533.373 98.0015 533.348 97.7085 533.442C97.4155 533.537 97.172 533.744 97.0316 534.018L90.4947 546.777C90.2842 547.188 89.9189 547.499 89.4794 547.64C89.0399 547.782 88.5621 547.743 88.1511 547.533L86.1364 546.501C85.7254 546.29 85.2476 546.251 84.8081 546.393C84.3685 546.535 84.0033 546.845 83.7928 547.256L79.8733 554.907C79.7329 555.181 79.4894 555.388 79.1964 555.482C78.9034 555.577 78.5848 555.551 78.3108 555.411L34.8618 533.151C34.4508 532.94 34.1403 532.575 33.9986 532.136C33.8568 531.696 33.8955 531.218 34.1061 530.807L37.7582 523.679C37.9688 523.268 38.0075 522.79 37.8657 522.35C37.724 521.911 37.4135 521.545 37.0025 521.335L35.3236 520.475C35.0759 520.349 34.8555 520.175 34.675 519.964C34.4945 519.752 34.3576 519.507 34.2719 519.243C34.1862 518.979 34.1536 518.7 34.1758 518.423C34.198 518.146 34.2747 517.876 34.4014 517.629L37.8842 510.83C38.0948 510.419 38.1335 509.942 37.9917 509.502C37.85 509.063 37.5395 508.697 37.1285 508.487L35.4496 507.627C35.2019 507.501 34.9815 507.327 34.801 507.115C34.6205 506.904 34.4836 506.659 34.3979 506.395C34.3122 506.13 34.2796 505.852 34.3018 505.575C34.324 505.298 34.4007 505.028 34.5274 504.78L38.0102 497.982C38.2208 497.571 38.2595 497.093 38.1177 496.654C37.976 496.214 37.6655 495.849 37.2545 495.639L35.5756 494.778C35.3279 494.652 35.1075 494.479 34.927 494.267C34.7465 494.056 34.6096 493.811 34.5239 493.547C34.4382 493.282 34.4056 493.004 34.4278 492.726C34.45 492.449 34.5267 492.179 34.6534 491.932L40.7563 480.02C40.9668 479.609 41.0055 479.131 40.8638 478.692C40.7221 478.252 40.4115 477.887 40.0005 477.676L38.3165 476.813C37.818 476.56 37.4404 476.119 37.2665 475.587C37.0927 475.056 37.1367 474.477 37.389 473.978L38.2518 472.293C38.4623 471.882 38.501 471.405 38.3593 470.965C38.2176 470.526 37.907 470.16 37.496 469.95L35.8171 469.09C35.5694 468.964 35.349 468.79 35.1686 468.579C34.9881 468.367 34.8511 468.122 34.7654 467.858C34.6798 467.594 34.6471 467.315 34.6693 467.038C34.6916 466.761 34.7683 466.491 34.895 466.243L41.0084 454.311C41.219 453.9 41.5842 453.589 42.0237 453.447C42.4632 453.306 42.9411 453.344 43.3521 453.555L50.1554 457.04C50.4027 457.167 50.6226 457.341 50.8025 457.553C50.9824 457.765 51.1187 458.01 51.2037 458.275C51.2886 458.54 51.3205 458.818 51.2975 459.095C51.2745 459.372 51.1971 459.642 51.0697 459.889L50.2096 461.568C49.999 461.979 49.9604 462.457 50.1021 462.896C50.2438 463.336 50.5543 463.701 50.9654 463.912L52.6649 464.782C52.9123 464.909 53.1322 465.083 53.3121 465.295C53.492 465.507 53.6283 465.752 53.7132 466.017C53.7982 466.282 53.83 466.56 53.8071 466.837C53.7841 467.114 53.7066 467.384 53.5792 467.631L52.7165 469.315C52.5059 469.726 52.4672 470.204 52.609 470.643C52.7507 471.083 53.0612 471.448 53.4723 471.659L55.4869 472.691C55.8979 472.902 56.2084 473.267 56.3502 473.706C56.4919 474.146 56.4532 474.624 56.2427 475.035L47.3504 492.391C47.1398 492.803 47.1012 493.28 47.2429 493.72C47.3846 494.159 47.6952 494.525 48.1062 494.735L50.1208 495.767C50.5318 495.978 51.0096 496.017 51.4492 495.875C51.8887 495.733 52.2539 495.423 52.4645 495.012L90.1798 421.395C90.3904 420.984 90.7556 420.673 91.1951 420.531C91.6346 420.39 92.1125 420.428 92.5235 420.639L99.3061 424.114C99.5535 424.24 99.7734 424.415 99.9533 424.627C100.133 424.838 100.269 425.084 100.354 425.348C100.439 425.613 100.471 425.892 100.448 426.169C100.425 426.446 100.348 426.716 100.22 426.963L75.7773 474.673C75.5668 475.084 75.5281 475.562 75.6698 476.002C75.8116 476.441 76.1221 476.806 76.5331 477.017L78.5477 478.049C78.9588 478.26 79.4366 478.298 79.8761 478.157C80.3156 478.015 80.6808 477.704 80.8914 477.293L89.7837 459.936C89.9942 459.525 90.3595 459.215 90.799 459.073C91.2385 458.931 91.7163 458.97 92.1273 459.181L99.2561 462.833C99.6671 463.043 99.9776 463.409 100.119 463.848C100.261 464.288 100.222 464.766 100.012 465.177L91.1196 482.533C90.909 482.944 90.8703 483.422 91.0121 483.862C91.1538 484.301 91.4643 484.666 91.8753 484.877L93.89 485.909C94.301 486.12 94.7788 486.158 95.2183 486.017C95.6579 485.875 96.0231 485.564 96.2336 485.153L102.506 472.911C102.716 472.5 103.082 472.189 103.521 472.047C103.961 471.906 104.439 471.944 104.85 472.155L111.983 475.81C112.394 476.02 112.705 476.385 112.847 476.825C112.988 477.265 112.95 477.742 112.739 478.153L103.844 495.515C103.634 495.926 103.595 496.404 103.737 496.844C103.879 497.283 104.189 497.648 104.6 497.859L106.615 498.891C107.026 499.102 107.504 499.14 107.943 498.999C108.383 498.857 108.748 498.546 108.958 498.135L115.233 485.887C115.444 485.476 115.809 485.166 116.249 485.024C116.688 484.882 117.166 484.921 117.577 485.132L119.261 485.994C119.508 486.121 119.728 486.295 119.908 486.507C120.088 486.719 120.224 486.964 120.309 487.229C120.394 487.494 120.426 487.773 120.403 488.05C120.38 488.327 120.303 488.596 120.175 488.843L119.318 490.517C119.107 490.928 119.069 491.406 119.21 491.845C119.352 492.285 119.663 492.65 120.074 492.861L121.758 493.723C122.005 493.85 122.225 494.024 122.405 494.236C122.585 494.448 122.721 494.693 122.806 494.958C122.891 495.223 122.923 495.502 122.9 495.779C122.877 496.055 122.799 496.325 122.672 496.572L103.469 534.055Z" fill="#FF6F95"/>
</g>
<defs>
<clipPath id="clip0_1959_35046">
<rect width="95" height="95" fill="white" transform="translate(707.619) rotate(32.1966)"/>
</clipPath>
<clipPath id="clip1_1959_35046">
<rect width="96" height="95" fill="white" transform="translate(1462.25 135) rotate(27.083)"/>
</clipPath>
<clipPath id="clip2_1959_35046">
<rect width="88" height="117" fill="white" transform="translate(356.15 212) rotate(22.1702)"/>
</clipPath>
<clipPath id="clip3_1959_35046">
<rect width="166" height="94" fill="white" transform="translate(1765 381.706) rotate(-31.0842)"/>
</clipPath>
<clipPath id="clip4_1959_35046">
<rect width="84" height="61" fill="white" transform="translate(1425.9 404) rotate(17.0606)"/>
</clipPath>
<clipPath id="clip5_1959_35046">
<rect width="95" height="103" fill="white" transform="translate(1330 718.175) rotate(-13.4987)"/>
</clipPath>
<clipPath id="clip6_1959_35046">
<rect width="154" height="66" fill="white" transform="translate(1807.47 745) rotate(29.4676)"/>
</clipPath>
<clipPath id="clip7_1959_35046">
<rect width="80" height="139" fill="white" transform="translate(525 826.029) rotate(-19.2083)"/>
</clipPath>
<clipPath id="clip8_1959_35046">
<rect width="138.61" height="108.91" fill="white" transform="translate(131.371 790) rotate(11.8531)"/>
</clipPath>
<clipPath id="clip9_1959_35046">
<rect width="103.443" height="137.925" fill="white" transform="translate(62.8887 399) rotate(27.1269)"/>
</clipPath>
</defs>
</svg>
