<svg width="1876" height="1121" viewBox="0 0 1876 1121" fill="none" xmlns="http://www.w3.org/2000/svg">
<g filter="url(#filter0_f_1959_35045)">
<g opacity="0.4" clip-path="url(#clip0_1959_35045)">
<path d="M1190.02 52.5792L1187.03 53.9194C1186.7 54.0714 1186.34 54.1556 1185.97 54.1672C1185.6 54.1789 1185.23 54.1178 1184.89 53.9874C1184.54 53.857 1184.23 53.6599 1183.96 53.4073C1183.69 53.1548 1183.48 52.8518 1183.33 52.5157L1182.3 50.2276C1182.05 49.6692 1181.58 49.2333 1181.01 49.0159C1180.44 48.7984 1179.8 48.8172 1179.25 49.0681L1107.05 81.5247C1106.49 81.7756 1106.06 82.2381 1105.84 82.8104C1105.62 83.3827 1105.64 84.0179 1105.89 84.5763L1107.12 87.3136C1107.37 87.872 1107.39 88.5073 1107.17 89.0796C1106.96 89.6519 1106.52 90.1144 1105.96 90.3653L1103.23 91.5952C1102.67 91.8461 1102.23 92.3086 1102.02 92.8808C1101.8 93.4531 1101.82 94.0884 1102.07 94.6468L1159.53 222.456C1159.78 223.015 1160.24 223.451 1160.81 223.668C1161.39 223.886 1162.02 223.867 1162.58 223.616L1165.31 222.386C1165.87 222.135 1166.51 222.116 1167.08 222.334C1167.65 222.551 1168.11 222.987 1168.37 223.546L1169.6 226.283C1169.85 226.841 1170.31 227.277 1170.88 227.495C1171.45 227.712 1172.09 227.693 1172.65 227.442L1244.84 194.986C1245.4 194.735 1245.84 194.272 1246.06 193.7C1246.27 193.128 1246.25 192.493 1246 191.934L1244.77 189.197C1244.52 188.638 1244.5 188.003 1244.72 187.431C1244.94 186.859 1245.37 186.396 1245.93 186.145L1249.37 184.6C1249.74 184.433 1250.03 184.124 1250.17 183.743C1250.32 183.361 1250.31 182.938 1250.14 182.565L1192.05 53.3522C1191.88 52.9799 1191.57 52.6893 1191.19 52.5443C1190.81 52.3994 1190.39 52.4119 1190.02 52.5792ZM1242.88 184.986C1243.13 185.544 1243.15 186.179 1242.93 186.752C1242.71 187.324 1242.28 187.786 1241.72 188.037L1169.98 220.289C1169.64 220.441 1169.28 220.525 1168.91 220.537C1168.55 220.548 1168.18 220.487 1167.83 220.357C1167.49 220.226 1167.17 220.029 1166.91 219.777C1166.64 219.524 1166.42 219.221 1166.27 218.885L1109.02 91.5248C1108.76 90.9664 1108.74 90.3311 1108.96 89.7588C1109.18 89.1865 1109.61 88.724 1110.17 88.4731L1182.37 56.0166C1182.93 55.7657 1183.56 55.7469 1184.14 55.9643C1184.71 56.1818 1185.17 56.6177 1185.42 57.1761L1242.88 184.986Z" fill="#24E5C2"/>
<path d="M1219.15 156.427L1216.41 157.66C1215.85 157.911 1215.42 158.374 1215.2 158.946C1214.98 159.518 1215 160.154 1215.25 160.712L1216.8 164.151C1216.97 164.524 1216.98 164.947 1216.83 165.329C1216.69 165.71 1216.4 166.018 1216.03 166.186L1212.59 167.731C1212.03 167.982 1211.4 168.001 1210.82 167.783C1210.25 167.566 1209.79 167.13 1209.54 166.571L1208.31 163.834C1208.06 163.276 1207.59 162.84 1207.02 162.622C1206.45 162.405 1205.81 162.424 1205.26 162.675L1202.52 163.905C1201.96 164.155 1201.53 164.618 1201.31 165.19C1201.09 165.763 1201.11 166.398 1201.36 166.956L1208.84 183.59C1209.09 184.149 1209.55 184.585 1210.13 184.802C1210.7 185.02 1211.33 185.001 1211.89 184.75L1214.63 183.52C1215.19 183.269 1215.82 183.25 1216.39 183.468C1216.96 183.685 1217.43 184.121 1217.68 184.68L1218.91 187.424C1219.16 187.982 1219.63 188.418 1220.2 188.636C1220.77 188.853 1221.41 188.834 1221.96 188.583L1231.64 184.231C1232.2 183.98 1232.64 183.518 1232.85 182.946C1233.07 182.373 1233.05 181.738 1232.8 181.18L1222.2 157.59C1221.95 157.033 1221.49 156.598 1220.91 156.38C1220.34 156.162 1219.71 156.179 1219.15 156.427ZM1223.05 178.048C1223.21 178.42 1223.23 178.844 1223.08 179.225C1222.94 179.607 1222.65 179.915 1222.27 180.083L1219.3 181.42C1218.96 181.572 1218.6 181.656 1218.23 181.668C1217.87 181.679 1217.5 181.618 1217.15 181.488C1216.81 181.357 1216.49 181.16 1216.23 180.908C1215.96 180.655 1215.74 180.352 1215.59 180.016L1214.56 177.728C1214.31 177.169 1214.29 176.534 1214.51 175.962C1214.73 175.39 1215.16 174.927 1215.72 174.676L1219.15 173.134C1219.52 172.967 1219.95 172.954 1220.33 173.099C1220.71 173.244 1221.02 173.535 1221.18 173.907L1223.05 178.048Z" fill="#24E5C2"/>
<path d="M1191.03 110.591L1188.06 111.928C1187.72 112.08 1187.36 112.164 1186.99 112.176C1186.63 112.187 1186.26 112.126 1185.91 111.996C1185.57 111.866 1185.25 111.668 1184.99 111.416C1184.72 111.163 1184.5 110.86 1184.35 110.524L1183.32 108.236C1183.07 107.678 1182.61 107.242 1182.04 107.024C1181.46 106.807 1180.83 106.826 1180.27 107.077L1170.59 111.429C1170.03 111.679 1169.6 112.142 1169.38 112.714C1169.16 113.287 1169.18 113.922 1169.43 114.48L1170.66 117.218C1170.91 117.776 1170.93 118.411 1170.72 118.983C1170.5 119.556 1170.06 120.018 1169.51 120.269L1167.23 121.294C1166.89 121.446 1166.53 121.53 1166.16 121.542C1165.79 121.554 1165.42 121.492 1165.08 121.362C1164.74 121.232 1164.42 121.035 1164.15 120.782C1163.88 120.529 1163.67 120.226 1163.52 119.89L1162.49 117.602C1162.24 117.044 1161.77 116.608 1161.2 116.39C1160.63 116.173 1159.99 116.192 1159.44 116.443L1149.76 120.795C1149.2 121.046 1148.76 121.508 1148.55 122.08C1148.33 122.653 1148.35 123.288 1148.6 123.846L1149.83 126.584C1150.08 127.142 1150.1 127.777 1149.88 128.35C1149.66 128.922 1149.23 129.384 1148.67 129.635L1145.94 130.865C1145.38 131.116 1144.94 131.579 1144.72 132.151C1144.51 132.723 1144.53 133.358 1144.78 133.917L1152.26 150.558C1152.51 151.116 1152.97 151.552 1153.54 151.77C1154.12 151.987 1154.75 151.968 1155.31 151.718L1158.05 150.488C1158.6 150.237 1159.24 150.218 1159.81 150.435C1160.38 150.653 1160.85 151.089 1161.1 151.647L1162.33 154.384C1162.58 154.943 1163.04 155.379 1163.61 155.596C1164.18 155.814 1164.82 155.795 1165.38 155.544L1167.66 154.516C1168 154.365 1168.36 154.282 1168.73 154.271C1169.1 154.26 1169.47 154.323 1169.81 154.454C1170.15 154.585 1170.47 154.783 1170.74 155.036C1171 155.29 1171.22 155.593 1171.37 155.93L1172.4 158.211C1172.65 158.769 1173.11 159.205 1173.68 159.423C1174.25 159.64 1174.89 159.621 1175.45 159.37L1177.73 158.342C1178.07 158.191 1178.43 158.108 1178.8 158.097C1179.17 158.087 1179.53 158.149 1179.88 158.28C1180.22 158.412 1180.54 158.61 1180.81 158.863C1181.07 159.116 1181.29 159.42 1181.44 159.756L1182.46 162.037C1182.71 162.596 1183.18 163.032 1183.75 163.249C1184.32 163.467 1184.96 163.448 1185.51 163.197L1188.25 161.967C1188.81 161.716 1189.24 161.254 1189.46 160.681C1189.68 160.109 1189.66 159.474 1189.41 158.915L1188.18 156.178C1187.93 155.62 1187.91 154.984 1188.12 154.412C1188.34 153.84 1188.78 153.377 1189.34 153.126L1192.07 151.896C1192.63 151.646 1193.07 151.183 1193.28 150.611C1193.5 150.038 1193.48 149.403 1193.23 148.845L1192 146.108C1191.75 145.549 1191.73 144.914 1191.95 144.342C1192.16 143.769 1192.6 143.307 1193.16 143.056L1195.89 141.826C1196.45 141.575 1196.89 141.113 1197.1 140.54C1197.32 139.968 1197.3 139.333 1197.05 138.774L1195.82 136.037C1195.57 135.479 1195.55 134.843 1195.77 134.271C1195.98 133.699 1196.42 133.236 1196.98 132.985L1200.41 131.443C1200.78 131.276 1201.07 130.968 1201.22 130.586C1201.36 130.205 1201.35 129.781 1201.18 129.409L1193.07 111.364C1192.9 110.992 1192.59 110.701 1192.21 110.556C1191.83 110.411 1191.41 110.424 1191.03 110.591ZM1193.92 131.829C1194.17 132.387 1194.19 133.023 1193.97 133.595C1193.76 134.167 1193.32 134.63 1192.76 134.881L1190.03 136.111C1189.47 136.361 1189.03 136.824 1188.82 137.396C1188.6 137.969 1188.62 138.604 1188.87 139.162L1190.1 141.899C1190.35 142.458 1190.37 143.093 1190.15 143.665C1189.93 144.238 1189.5 144.7 1188.94 144.951L1186.21 146.181C1185.65 146.432 1185.21 146.894 1184.99 147.467C1184.78 148.039 1184.8 148.674 1185.05 149.233L1186.28 151.97C1186.53 152.528 1186.55 153.164 1186.33 153.736C1186.11 154.308 1185.68 154.771 1185.12 155.022L1182.85 156.043C1182.51 156.195 1182.15 156.28 1181.78 156.291C1181.41 156.303 1181.05 156.242 1180.7 156.111C1180.36 155.981 1180.04 155.784 1179.77 155.531C1179.51 155.279 1179.29 154.976 1179.14 154.64L1178.11 152.352C1177.86 151.793 1177.4 151.357 1176.82 151.14C1176.25 150.922 1175.62 150.941 1175.06 151.192L1172.78 152.217C1172.44 152.369 1172.08 152.453 1171.71 152.465C1171.34 152.476 1170.98 152.415 1170.63 152.285C1170.29 152.155 1169.97 151.957 1169.7 151.705C1169.44 151.452 1169.22 151.149 1169.07 150.813L1167.73 147.823C1167.56 147.451 1167.25 147.16 1166.87 147.015C1166.49 146.87 1166.06 146.883 1165.69 147.05L1162.71 148.391C1162.37 148.542 1162.01 148.627 1161.64 148.638C1161.28 148.65 1160.91 148.589 1160.56 148.458C1160.22 148.328 1159.9 148.131 1159.64 147.878C1159.37 147.626 1159.15 147.323 1159 146.987L1151.72 130.795C1151.47 130.236 1151.45 129.601 1151.67 129.029C1151.89 128.457 1152.32 127.994 1152.88 127.743L1162.11 123.593C1162.45 123.442 1162.81 123.359 1163.18 123.348C1163.55 123.338 1163.91 123.4 1164.26 123.531C1164.6 123.662 1164.92 123.86 1165.18 124.114C1165.45 124.367 1165.67 124.67 1165.82 125.007L1166.85 127.295C1167.1 127.853 1167.56 128.289 1168.13 128.507C1168.7 128.724 1169.34 128.705 1169.9 128.455L1172.63 127.225C1173.19 126.974 1173.63 126.511 1173.84 125.939C1174.06 125.367 1174.04 124.731 1173.79 124.173L1172.56 121.429C1172.31 120.87 1172.29 120.235 1172.5 119.663C1172.72 119.09 1173.16 118.628 1173.71 118.377L1183.39 114.025C1183.95 113.774 1184.59 113.755 1185.16 113.973C1185.73 114.19 1186.19 114.626 1186.45 115.185L1193.92 131.829Z" fill="#24E5C2"/>
<path d="M1140.7 91.4557L1137.72 92.796C1137.38 92.9479 1137.02 93.0322 1136.65 93.0438C1136.28 93.0555 1135.92 92.9943 1135.57 92.8639C1135.23 92.7335 1134.91 92.5364 1134.64 92.2839C1134.38 92.0314 1134.16 91.7284 1134.01 91.3923L1132.98 89.1042C1132.73 88.5458 1132.27 88.1099 1131.69 87.8924C1131.12 87.675 1130.49 87.6938 1129.93 87.9447L1120.25 92.2966C1119.69 92.5475 1119.26 93.01 1119.04 93.5823C1118.82 94.1546 1118.84 94.7898 1119.09 95.3483L1129.69 118.931C1129.94 119.489 1130.41 119.925 1130.98 120.143C1131.55 120.36 1132.19 120.341 1132.74 120.09L1135.48 118.861C1136.04 118.61 1136.47 118.147 1136.69 117.575C1136.91 117.003 1136.89 116.367 1136.64 115.809L1135.41 113.072C1135.16 112.513 1135.14 111.878 1135.35 111.306C1135.57 110.733 1136.01 110.271 1136.56 110.02L1139.3 108.79C1139.86 108.539 1140.49 108.52 1141.07 108.738C1141.64 108.955 1142.1 109.391 1142.35 109.95L1143.58 112.687C1143.83 113.245 1144.3 113.681 1144.87 113.899C1145.44 114.116 1146.08 114.097 1146.63 113.846L1150.07 112.301C1150.44 112.134 1150.73 111.826 1150.88 111.444C1151.02 111.062 1151.01 110.639 1150.84 110.267L1142.73 92.2288C1142.57 91.8565 1142.26 91.5659 1141.88 91.4209C1141.49 91.2759 1141.07 91.2885 1140.7 91.4557ZM1137.33 98.7899C1137.59 99.3484 1137.6 99.9836 1137.39 100.556C1137.17 101.128 1136.74 101.591 1136.18 101.842L1133.44 103.071C1132.88 103.322 1132.25 103.341 1131.68 103.124C1131.1 102.906 1130.64 102.47 1130.39 101.912L1129.16 99.1747C1128.91 98.6163 1128.89 97.981 1129.11 97.4087C1129.32 96.8364 1129.76 96.3739 1130.32 96.123L1133.05 94.8931C1133.61 94.6422 1134.25 94.6234 1134.82 94.8409C1135.39 95.0583 1135.85 95.4942 1136.1 96.0527L1137.33 98.7899Z" fill="#24E5C2"/>
</g>
<g opacity="0.4" clip-path="url(#clip1_1959_35045)">
<path d="M354.176 38.7872L290.068 63.1161C289.52 63.3242 289.077 63.7436 288.838 64.282C288.598 64.8204 288.582 65.4337 288.792 65.9869L305.495 110.002C305.705 110.556 306.125 111.003 306.661 111.247C307.197 111.491 307.807 111.512 308.355 111.303L317.868 107.693C318.416 107.485 319.026 107.505 319.562 107.749C320.098 107.993 320.518 108.441 320.728 108.995L329.597 132.365C329.807 132.918 330.226 133.366 330.762 133.61C331.298 133.854 331.908 133.875 332.456 133.666L335.834 132.385C336.2 132.246 336.495 131.966 336.654 131.607C336.814 131.248 336.825 130.84 336.685 130.471L335.125 126.361C334.985 125.992 334.996 125.584 335.156 125.225C335.316 124.866 335.611 124.586 335.976 124.447L339.361 123.163C339.909 122.955 340.352 122.535 340.591 121.997C340.831 121.459 340.847 120.845 340.637 120.292L339.78 118.032C339.652 117.7 339.591 117.345 339.6 116.99C339.609 116.634 339.687 116.284 339.831 115.96C339.975 115.636 340.181 115.344 340.437 115.1C340.694 114.857 340.995 114.667 341.326 114.542L343.566 113.692C344.114 113.484 344.557 113.064 344.796 112.526C345.036 111.987 345.052 111.374 344.842 110.821L343.985 108.561C343.731 107.887 343.752 107.14 344.045 106.485C344.337 105.829 344.876 105.319 345.544 105.066L347.785 104.215C348.333 104.007 348.776 103.588 349.015 103.049C349.254 102.511 349.271 101.898 349.061 101.344L348.217 99.1194C347.963 98.4449 347.984 97.6982 348.277 97.0429C348.569 96.3877 349.108 95.8774 349.776 95.6239L352.017 94.7737C352.565 94.5656 353.008 94.1462 353.247 93.6078C353.486 93.0694 353.503 92.4561 353.293 91.9029L352.251 89.1563C352.041 88.603 352.057 87.9897 352.297 87.4513C352.536 86.913 352.979 86.4936 353.527 86.2854L356.208 85.2678C356.757 85.0596 357.2 84.6402 357.439 84.1019C357.678 83.5635 357.695 82.9502 357.485 82.397L356.456 79.6851C356.246 79.1319 355.826 78.6839 355.29 78.4399C354.754 78.1959 354.145 78.1757 353.596 78.3839L343.394 82.2556C343.028 82.3943 342.622 82.3809 342.265 82.2182C341.907 82.0555 341.628 81.7569 341.488 81.3881L340.366 78.4329C340.112 77.7584 340.134 77.0117 340.426 76.3564C340.719 75.7012 341.258 75.1909 341.926 74.9374L344.166 74.0872C344.715 73.879 345.157 73.4596 345.397 72.9213C345.636 72.3829 345.652 71.7696 345.442 71.2163L344.585 68.9565C344.457 68.6215 344.396 68.2646 344.406 67.9066C344.415 67.5485 344.496 67.1964 344.642 66.8707C344.789 66.545 344.998 66.2522 345.258 66.0093C345.519 65.7664 345.825 65.5782 346.158 65.4558L348.399 64.6056C348.947 64.3974 349.39 63.978 349.629 63.4396C349.869 62.9013 349.885 62.288 349.675 61.7347L348.817 59.4749C348.562 58.8017 348.582 58.0556 348.873 57.4006C349.165 56.7455 349.703 56.2353 350.37 55.982L352.611 55.1318C353.159 54.9237 353.602 54.5043 353.841 53.9659C354.08 53.4275 354.097 52.8142 353.887 52.261L352.858 49.5491C352.648 48.9959 352.664 48.3826 352.904 47.8442C353.143 47.3058 353.586 46.8864 354.134 46.6783L356.788 45.6711C357.337 45.463 357.779 45.0436 358.019 44.5052C358.258 43.9668 358.274 43.3535 358.064 42.8003L357.035 40.0884C356.825 39.5352 356.406 39.0873 355.87 38.8433C355.334 38.5992 354.724 38.5791 354.176 38.7872ZM346.864 54.4093C346.991 54.7419 347.052 55.0962 347.043 55.4518C347.034 55.8074 346.956 56.1573 346.812 56.4815C346.668 56.8057 346.462 57.0979 346.206 57.3412C345.95 57.5845 345.648 57.7743 345.318 57.8995L343.077 58.7497C342.529 58.9579 342.086 59.3773 341.847 59.9157C341.607 60.4541 341.591 61.0673 341.801 61.6206L342.658 63.8805C342.785 64.2138 342.845 64.5685 342.836 64.9244C342.826 65.2803 342.747 65.6304 342.603 65.9548C342.458 66.2791 342.252 66.5713 341.995 66.8147C341.738 67.0581 341.436 67.2479 341.106 67.3733L338.169 68.4877C337.803 68.6265 337.508 68.9061 337.349 69.265C337.189 69.6239 337.178 70.0328 337.318 70.4016L338.611 73.8088C338.821 74.3621 338.805 74.9753 338.565 75.5137C338.326 76.0521 337.883 76.4715 337.335 76.6796L334.64 77.7025C334.091 77.9106 333.649 78.33 333.409 78.8684C333.17 79.4068 333.153 80.0201 333.363 80.5733L337.005 90.1691C337.215 90.7224 337.634 91.1703 338.17 91.4143C338.707 91.6583 339.316 91.6785 339.864 91.4703L342.56 90.4475C343.108 90.2393 343.718 90.2595 344.254 90.5035C344.79 90.7476 345.209 91.1955 345.419 91.7487L346.449 94.4606C346.659 95.0138 346.642 95.6271 346.403 96.1655C346.163 96.7039 345.721 97.1233 345.172 97.3314L342.477 98.3543C341.928 98.5624 341.486 98.9818 341.247 99.5202C341.007 100.059 340.991 100.672 341.201 101.225L342.23 103.937C342.44 104.49 342.423 105.103 342.184 105.642C341.944 106.18 341.502 106.6 340.953 106.808L338.272 107.825C337.723 108.034 337.281 108.453 337.041 108.991C336.802 109.53 336.786 110.143 336.996 110.696L337.853 112.956C338.107 113.624 338.089 114.365 337.803 115.017C337.518 115.669 336.988 116.18 336.328 116.438L333.364 117.563C332.998 117.702 332.592 117.689 332.234 117.526C331.877 117.363 331.597 117.065 331.457 116.696L324.676 98.8255C324.536 98.4567 324.256 98.1581 323.899 97.9954C323.541 97.8327 323.135 97.8193 322.769 97.958L312.567 101.83C312.019 102.038 311.409 102.018 310.873 101.774C310.337 101.53 309.917 101.082 309.707 100.528L298.228 70.281C298.019 69.7277 298.035 69.1145 298.274 68.5761C298.514 68.0377 298.956 67.6183 299.505 67.4101L343.146 50.8482C343.695 50.6401 344.304 50.6602 344.84 50.9043C345.377 51.1483 345.796 51.5962 346.006 52.1494L346.864 54.4093Z" fill="#FF6F95"/>
</g>
<g opacity="0.4" clip-path="url(#clip2_1959_35045)">
<path d="M509.486 608.673L507.22 609.423C506.885 609.534 506.532 609.578 506.179 609.551C505.827 609.525 505.483 609.428 505.167 609.267C504.85 609.106 504.568 608.884 504.336 608.613C504.104 608.342 503.927 608.028 503.815 607.689L503.056 605.394C502.871 604.833 502.472 604.367 501.948 604.099C501.425 603.832 500.819 603.784 500.264 603.968L497.544 604.867C496.989 605.051 496.383 605.003 495.859 604.736C495.335 604.468 494.937 604.002 494.751 603.44L493.84 600.687C493.655 600.125 493.256 599.659 492.732 599.391C492.209 599.124 491.603 599.076 491.048 599.26L446.908 613.854C446.353 614.037 445.895 614.437 445.634 614.964C445.373 615.491 445.331 616.102 445.516 616.664L446.427 619.418C446.613 619.98 446.57 620.592 446.309 621.119C446.048 621.646 445.59 622.045 445.035 622.228L441.611 623.36C441.241 623.483 440.935 623.749 440.761 624.1C440.587 624.452 440.559 624.859 440.683 625.234L441.827 628.694C442.013 629.256 441.97 629.868 441.709 630.395C441.448 630.922 440.99 631.321 440.435 631.504L437.715 632.404C437.16 632.587 436.702 632.986 436.441 633.513C436.18 634.04 436.137 634.652 436.323 635.214L451.104 679.919C451.29 680.481 451.689 680.947 452.212 681.215C452.736 681.482 453.342 681.529 453.897 681.346L456.164 680.596C456.498 680.486 456.851 680.443 457.203 680.471C457.554 680.498 457.898 680.595 458.213 680.756C458.529 680.917 458.81 681.14 459.042 681.41C459.273 681.68 459.45 681.994 459.561 682.332L460.318 684.62C460.504 685.182 460.902 685.648 461.426 685.915C461.95 686.183 462.556 686.23 463.111 686.047L465.384 685.295C466.059 685.072 466.797 685.129 467.434 685.455C468.071 685.78 468.556 686.347 468.782 687.031L469.541 689.326C469.726 689.888 470.125 690.353 470.649 690.621C471.173 690.889 471.778 690.936 472.333 690.752L517.177 675.925C517.547 675.803 517.853 675.537 518.027 675.186C518.201 674.834 518.229 674.426 518.105 674.052L516.961 670.592C516.776 670.03 516.377 669.564 515.853 669.296C515.329 669.029 514.724 668.982 514.169 669.165L470.475 683.612C469.8 683.835 469.063 683.777 468.426 683.452C467.789 683.126 467.304 682.559 467.078 681.876L466.321 679.588C466.135 679.026 465.737 678.56 465.213 678.293C464.689 678.025 464.083 677.978 463.528 678.161L460.802 679.063C460.247 679.246 459.641 679.199 459.117 678.932C458.593 678.664 458.195 678.198 458.009 677.636L443.228 632.931C443.042 632.369 443.084 631.757 443.345 631.23C443.606 630.703 444.065 630.304 444.619 630.121L447.346 629.219C447.901 629.036 448.36 628.636 448.621 628.109C448.882 627.582 448.924 626.971 448.738 626.409L447.828 623.655C447.642 623.093 447.684 622.481 447.945 621.954C448.206 621.427 448.665 621.028 449.22 620.845L492.913 606.398C493.589 606.177 494.327 606.236 494.964 606.562C495.602 606.889 496.087 607.457 496.313 608.141L497.069 610.429C497.255 610.991 497.654 611.457 498.177 611.724C498.701 611.992 499.307 612.039 499.862 611.856L502.129 611.106C502.803 610.885 503.539 610.944 504.175 611.27C504.81 611.596 505.294 612.162 505.519 612.844L515.524 643.102C515.71 643.664 515.667 644.276 515.406 644.803C515.145 645.33 514.687 645.729 514.132 645.912L504.515 649.092C503.96 649.276 503.354 649.228 502.83 648.961C502.306 648.693 501.908 648.227 501.722 647.666L496.189 630.93C496.003 630.368 495.604 629.902 495.08 629.635C494.557 629.367 493.951 629.32 493.396 629.503L491.157 630.244C490.486 630.474 489.749 630.425 489.109 630.108C488.469 629.791 487.978 629.232 487.743 628.552L486.973 626.222C486.787 625.66 486.388 625.194 485.865 624.927C485.341 624.659 484.735 624.612 484.18 624.796L466.954 630.491C466.584 630.613 466.278 630.88 466.104 631.231C465.93 631.582 465.902 631.99 466.026 632.365L467.17 635.825C467.356 636.387 467.313 636.998 467.052 637.525C466.791 638.052 466.333 638.451 465.778 638.635L463.058 639.534C462.503 639.718 462.045 640.117 461.784 640.644C461.523 641.171 461.481 641.783 461.666 642.344L467.2 659.08C467.385 659.642 467.784 660.108 468.308 660.375C468.831 660.643 469.437 660.69 469.992 660.506L472.287 659.748C472.623 659.641 472.977 659.602 473.329 659.633C473.681 659.665 474.024 659.766 474.338 659.932C474.652 660.097 474.931 660.323 475.16 660.597C475.388 660.871 475.561 661.187 475.668 661.528L476.429 663.83C476.615 664.392 477.014 664.858 477.538 665.125C478.061 665.393 478.667 665.44 479.222 665.257L516.457 652.945C517.012 652.762 517.471 652.363 517.732 651.836C517.993 651.309 518.035 650.697 517.849 650.135L516.925 647.339C516.739 646.777 516.781 646.165 517.042 645.638C517.303 645.111 517.762 644.712 518.316 644.529L521.036 643.629C521.591 643.446 522.05 643.047 522.311 642.52C522.572 641.993 522.614 641.381 522.428 640.819L512.272 610.102C512.087 609.542 511.69 609.077 511.167 608.809C510.645 608.541 510.041 608.492 509.486 608.673ZM494.817 649.948C495.003 650.51 494.961 651.122 494.7 651.649C494.439 652.176 493.98 652.575 493.426 652.759L476.897 658.224C476.342 658.407 475.736 658.36 475.212 658.092C474.688 657.825 474.29 657.359 474.104 656.797L468.571 640.061C468.385 639.5 468.427 638.888 468.688 638.361C468.949 637.834 469.408 637.435 469.963 637.251L486.003 631.948C486.678 631.725 487.416 631.782 488.053 632.107C488.69 632.433 489.175 633 489.401 633.683L494.817 649.948Z" fill="#24E5C2"/>
</g>
<g opacity="0.4" clip-path="url(#clip3_1959_35045)">
<path d="M1702.71 668.787L1700.47 667.945C1699.8 667.691 1699.25 667.18 1698.95 666.523C1698.65 665.867 1698.63 665.118 1698.88 664.444L1699.74 662.178C1699.94 661.623 1699.92 661.008 1699.68 660.468C1699.44 659.929 1698.99 659.508 1698.43 659.3L1696.13 658.434C1695.46 658.18 1694.91 657.669 1694.61 657.012C1694.31 656.356 1694.29 655.607 1694.54 654.933L1695.4 652.667C1695.6 652.112 1695.58 651.497 1695.34 650.957C1695.09 650.418 1694.65 649.997 1694.09 649.789L1684.47 646.17C1683.91 645.961 1683.3 645.982 1682.76 646.226C1682.22 646.471 1681.8 646.92 1681.59 647.475L1680.57 650.194C1680.36 650.749 1679.94 651.198 1679.4 651.443C1678.86 651.687 1678.25 651.708 1677.69 651.499L1674.97 650.476C1674.42 650.268 1673.8 650.288 1673.26 650.533C1672.72 650.777 1672.3 651.226 1672.09 651.781L1668.21 662.099C1668.07 662.469 1668.09 662.879 1668.25 663.239C1668.41 663.599 1668.71 663.879 1669.08 664.018L1672.5 665.303C1672.77 665.406 1673.02 665.563 1673.24 665.763C1673.45 665.964 1673.63 666.205 1673.75 666.472C1673.87 666.739 1673.94 667.028 1673.95 667.321C1673.96 667.614 1673.91 667.906 1673.8 668.181L1672.78 670.9C1672.57 671.455 1672.15 671.904 1671.61 672.149C1671.07 672.393 1670.46 672.414 1669.9 672.205L1667.18 671.182C1666.63 670.974 1666.01 670.994 1665.47 671.239C1664.93 671.484 1664.51 671.933 1664.31 672.487L1663.28 675.206C1663.07 675.761 1662.65 676.21 1662.11 676.455C1661.57 676.7 1660.96 676.72 1660.4 676.511L1657.69 675.489C1657.13 675.28 1656.52 675.3 1655.98 675.545C1655.44 675.79 1655.02 676.239 1654.81 676.794L1653.79 679.513C1653.58 680.067 1653.16 680.516 1652.62 680.761C1652.08 681.006 1651.46 681.026 1650.91 680.817L1648.19 679.795C1647.63 679.586 1647.02 679.606 1646.48 679.851C1645.94 680.096 1645.52 680.545 1645.31 681.1L1644.28 683.826C1644.08 684.38 1643.66 684.83 1643.12 685.074C1642.58 685.319 1641.96 685.339 1641.41 685.131L1638.69 684.108C1638.13 683.899 1637.52 683.92 1636.98 684.164C1636.44 684.409 1636.02 684.858 1635.81 685.413L1634.52 688.829C1634.39 689.199 1634.4 689.609 1634.56 689.969C1634.73 690.328 1635.02 690.609 1635.39 690.748L1638.81 692.033C1639.37 692.241 1639.98 692.221 1640.52 691.976C1641.06 691.732 1641.48 691.282 1641.69 690.728L1642.71 688.009C1642.92 687.454 1643.34 687.005 1643.88 686.76C1644.42 686.516 1645.03 686.495 1645.59 686.704L1647.86 687.556C1648.19 687.683 1648.5 687.875 1648.76 688.121C1649.02 688.367 1649.23 688.663 1649.38 688.992C1649.53 689.32 1649.61 689.674 1649.62 690.033C1649.63 690.393 1649.56 690.751 1649.43 691.086L1648.58 693.352C1648.37 693.906 1648.39 694.521 1648.64 695.061C1648.88 695.601 1649.33 696.021 1649.89 696.23L1652.6 697.252C1653.16 697.461 1653.77 697.441 1654.31 697.196C1654.85 696.951 1655.27 696.502 1655.48 695.947L1656.77 692.531C1656.91 692.161 1656.89 691.751 1656.73 691.392C1656.57 691.032 1656.27 690.752 1655.9 690.612L1652.81 689.451C1652.17 689.175 1651.66 688.663 1651.39 688.021C1651.11 687.379 1651.1 686.656 1651.34 686.003L1652.21 683.696C1652.42 683.141 1652.84 682.692 1653.38 682.447C1653.92 682.202 1654.54 682.182 1655.09 682.391L1657.36 683.243C1658.03 683.497 1658.58 684.008 1658.87 684.665C1659.17 685.322 1659.2 686.07 1658.94 686.745L1657.83 689.715C1657.69 690.084 1657.7 690.494 1657.86 690.854C1658.03 691.214 1658.33 691.494 1658.7 691.633L1662.11 692.918C1662.67 693.127 1663.28 693.107 1663.82 692.862C1664.36 692.617 1664.78 692.168 1664.99 691.613L1666.02 688.887C1666.22 688.333 1666.2 687.718 1665.96 687.178C1665.71 686.638 1665.27 686.218 1664.71 686.009L1661.99 684.987C1661.44 684.778 1660.99 684.357 1660.74 683.818C1660.5 683.278 1660.48 682.663 1660.69 682.108L1661.54 679.829C1661.78 679.198 1662.25 678.678 1662.85 678.37C1663.45 678.063 1664.14 677.989 1664.8 678.163L1665.06 678.26L1665.31 678.357L1667.31 679.107C1667.86 679.316 1668.48 679.295 1669.02 679.051C1669.56 678.806 1669.98 678.357 1670.19 677.802L1671.21 675.083C1671.42 674.529 1671.84 674.079 1672.38 673.835C1672.92 673.59 1673.53 673.57 1674.09 673.778L1676.35 674.63C1677.03 674.884 1677.57 675.396 1677.87 676.053C1678.17 676.709 1678.19 677.457 1677.94 678.132L1676.82 681.095C1676.69 681.465 1676.7 681.875 1676.86 682.235C1677.03 682.595 1677.33 682.875 1677.69 683.014L1688.02 686.897C1688.57 687.106 1689.19 687.086 1689.73 686.841C1690.27 686.596 1690.69 686.147 1690.9 685.592L1691.92 682.873C1692.13 682.319 1692.55 681.87 1693.09 681.625C1693.63 681.38 1694.24 681.36 1694.8 681.569L1697.52 682.591C1698.07 682.8 1698.69 682.779 1699.23 682.535C1699.77 682.29 1700.19 681.841 1700.4 681.286L1704.01 671.665C1704.12 671.391 1704.17 671.098 1704.16 670.805C1704.15 670.512 1704.08 670.223 1703.96 669.956C1703.84 669.689 1703.66 669.448 1703.45 669.247C1703.24 669.047 1702.98 668.89 1702.71 668.787ZM1693.49 678.69C1693.29 679.245 1692.87 679.694 1692.33 679.939C1691.79 680.184 1691.17 680.204 1690.62 679.995L1680.99 676.374C1680.43 676.166 1679.98 675.745 1679.74 675.205C1679.49 674.666 1679.47 674.051 1679.68 673.496L1680.71 670.777C1680.91 670.222 1680.89 669.607 1680.65 669.068C1680.4 668.528 1679.96 668.107 1679.4 667.899L1676.68 666.876C1676.13 666.668 1675.68 666.247 1675.43 665.707C1675.19 665.168 1675.17 664.553 1675.38 663.998L1679 654.377C1679.2 653.822 1679.62 653.373 1680.16 653.129C1680.7 652.884 1681.32 652.864 1681.87 653.072L1691.04 656.52C1691.72 656.774 1692.26 657.286 1692.56 657.942C1692.86 658.599 1692.88 659.347 1692.63 660.022L1691.78 662.288C1691.57 662.842 1691.59 663.457 1691.83 663.997C1692.08 664.537 1692.53 664.957 1693.08 665.166L1695.81 666.191C1696.36 666.4 1696.81 666.82 1697.06 667.36C1697.3 667.9 1697.32 668.515 1697.11 669.069L1693.49 678.69Z" fill="#FF6F95"/>
</g>
<g opacity="0.4" clip-path="url(#clip4_1959_35045)">
<path d="M1661.62 1016.44L1658.71 1015.43C1658.12 1015.23 1657.64 1014.8 1657.36 1014.24C1657.09 1013.68 1657.05 1013.03 1657.25 1012.45L1658.24 1009.57C1658.45 1008.98 1658.41 1008.34 1658.13 1007.78C1657.86 1007.22 1657.37 1006.79 1656.78 1006.58L1653.88 1005.58C1653.29 1005.38 1652.8 1004.95 1652.53 1004.39C1652.25 1003.83 1652.21 1003.18 1652.42 1002.6L1653.41 999.717C1653.61 999.13 1653.57 998.485 1653.3 997.926C1653.02 997.366 1652.54 996.936 1651.95 996.732L1568.1 967.77C1567.51 967.566 1566.86 967.603 1566.3 967.874C1565.74 968.145 1565.31 968.627 1565.11 969.215L1528.76 1074.43C1528.56 1075.02 1528.6 1075.66 1528.88 1076.22C1529.15 1076.78 1529.64 1077.21 1530.23 1077.41L1628.8 1111.46C1629.39 1111.67 1630.04 1111.63 1630.6 1111.36C1631.16 1111.09 1631.59 1110.6 1631.79 1110.02L1663.09 1019.42C1663.29 1018.83 1663.25 1018.19 1662.97 1017.63C1662.7 1017.07 1662.21 1016.64 1661.62 1016.44ZM1592.29 985.957C1592.42 985.566 1592.71 985.244 1593.08 985.064C1593.46 984.883 1593.89 984.858 1594.28 984.994L1612.64 991.336C1613.23 991.54 1613.72 991.969 1613.99 992.529C1614.27 993.089 1614.31 993.733 1614.1 994.321L1605.54 1019.13C1605.33 1019.71 1605.37 1020.36 1605.65 1020.92C1605.92 1021.48 1606.41 1021.91 1607 1022.11L1617.26 1025.66C1617.85 1025.86 1618.5 1025.82 1619.06 1025.55C1619.62 1025.28 1620.05 1024.8 1620.25 1024.21L1629.07 998.666C1629.21 998.274 1629.5 997.953 1629.87 997.772C1630.25 997.591 1630.68 997.566 1631.07 997.703L1634.7 998.955C1635.29 999.16 1635.78 999.589 1636.05 1000.15C1636.33 1000.71 1636.37 1001.35 1636.16 1001.94L1625.07 1034.06C1624.87 1034.64 1624.44 1035.13 1623.88 1035.4C1623.31 1035.67 1622.67 1035.7 1622.07 1035.5L1581.65 1021.54C1581.26 1021.4 1580.93 1021.11 1580.75 1020.74C1580.57 1020.37 1580.54 1019.94 1580.67 1019.55L1592.29 985.957ZM1612.24 1095.08C1612.04 1095.67 1611.61 1096.15 1611.05 1096.42C1610.49 1096.69 1609.84 1096.73 1609.25 1096.53L1554.09 1077.47C1553.7 1077.34 1553.37 1077.05 1553.19 1076.68C1553.01 1076.31 1552.98 1075.88 1553.12 1075.48L1564.46 1042.63C1564.67 1042.04 1565.1 1041.56 1565.66 1041.29C1566.22 1041.02 1566.87 1040.98 1567.46 1041.19L1621.38 1059.81C1621.74 1059.94 1622.07 1060.13 1622.35 1060.38C1622.63 1060.63 1622.86 1060.93 1623.03 1061.26C1623.19 1061.6 1623.29 1061.97 1623.31 1062.34C1623.34 1062.72 1623.28 1063.09 1623.16 1063.44L1612.24 1095.08ZM1626.96 1100.17C1626.75 1100.75 1626.33 1101.24 1625.76 1101.51C1625.2 1101.78 1624.55 1101.81 1623.96 1101.61L1621.06 1100.61C1620.47 1100.4 1619.99 1099.98 1619.71 1099.42C1619.44 1098.86 1619.4 1098.21 1619.6 1097.62L1630.69 1065.51C1630.9 1064.92 1630.86 1064.28 1630.58 1063.72C1630.31 1063.16 1629.82 1062.73 1629.23 1062.52L1626.81 1061.69C1626.09 1061.44 1625.5 1060.92 1625.17 1060.24C1624.83 1059.56 1624.78 1058.77 1625.03 1058.06L1625.86 1055.66C1626.06 1055.07 1626.02 1054.43 1625.75 1053.87C1625.47 1053.31 1624.99 1052.88 1624.4 1052.67L1569.24 1033.62C1568.85 1033.48 1568.41 1033.51 1568.04 1033.69C1567.67 1033.87 1567.38 1034.19 1567.24 1034.58L1565.99 1038.2C1565.79 1038.79 1565.36 1039.27 1564.8 1039.54C1564.24 1039.81 1563.59 1039.85 1563 1039.65L1559.35 1038.39C1558.96 1038.25 1558.52 1038.27 1558.15 1038.45C1557.78 1038.64 1557.49 1038.96 1557.35 1039.35L1546.01 1072.2C1545.8 1072.79 1545.37 1073.27 1544.81 1073.54C1544.25 1073.81 1543.6 1073.85 1543.01 1073.65L1540.11 1072.65C1539.52 1072.44 1539.03 1072.01 1538.76 1071.45C1538.48 1070.89 1538.44 1070.25 1538.65 1069.66L1569.94 979.066C1570.14 978.478 1570.57 977.996 1571.14 977.725C1571.7 977.454 1572.34 977.417 1572.94 977.621L1583.2 981.166C1583.79 981.371 1584.28 981.8 1584.55 982.36C1584.83 982.92 1584.87 983.564 1584.66 984.151L1570.79 1024.31C1570.66 1024.71 1570.68 1025.14 1570.87 1025.51C1571.05 1025.88 1571.37 1026.17 1571.77 1026.3L1626.92 1045.35C1627.51 1045.56 1628.15 1045.52 1628.72 1045.25C1629.28 1044.98 1629.71 1044.5 1629.91 1043.91L1643.53 1004.48C1643.73 1003.9 1644.16 1003.42 1644.72 1003.14C1645.28 1002.87 1645.93 1002.84 1646.52 1003.04L1648.94 1003.87C1649.29 1004 1649.62 1004.19 1649.91 1004.44C1650.19 1004.69 1650.42 1004.99 1650.58 1005.33C1650.75 1005.66 1650.85 1006.03 1650.87 1006.4C1650.89 1006.78 1650.84 1007.15 1650.72 1007.51L1649.89 1009.91C1649.69 1010.49 1649.73 1011.14 1650 1011.7C1650.28 1012.26 1650.77 1012.69 1651.36 1012.89L1653.77 1013.73C1654.49 1013.97 1655.08 1014.5 1655.42 1015.18C1655.75 1015.86 1655.8 1016.64 1655.55 1017.36L1626.96 1100.17Z" fill="#24E5C2"/>
</g>
<g opacity="0.4" clip-path="url(#clip5_1959_35045)">
<path d="M57.9065 218.124L53.6964 219.889C53.3178 220.047 52.8918 220.049 52.512 219.894C52.1322 219.738 51.8297 219.438 51.6711 219.06L49.9066 214.85C49.748 214.471 49.4455 214.171 49.0657 214.016C48.6859 213.86 48.2598 213.862 47.8813 214.021L44.8557 215.289C44.1662 215.578 43.3902 215.581 42.6978 215.299C42.0055 215.017 41.4534 214.471 41.1625 213.783L39.8886 210.743C39.7299 210.364 39.4274 210.064 39.0476 209.909C38.6678 209.753 38.2418 209.755 37.8633 209.914L34.8591 211.173C34.1695 211.462 33.3935 211.465 32.7012 211.183C32.0089 210.901 31.4567 210.356 31.1659 209.667L23.9706 192.498C23.812 192.119 23.8102 191.693 23.9657 191.313C24.1211 190.934 24.4211 190.631 24.7997 190.472L29.0098 188.708C29.3884 188.549 29.6883 188.247 29.8438 187.867C29.9993 187.487 29.9975 187.061 29.8389 186.683L25.1138 175.408C24.9552 175.03 24.6527 174.73 24.2729 174.574C23.8931 174.419 23.467 174.42 23.0885 174.579L20.0558 175.85C19.3662 176.139 18.5902 176.143 17.8979 175.86C17.2056 175.578 16.6535 175.033 16.3626 174.344L15.0856 171.297C14.927 170.918 14.6245 170.618 14.2447 170.463C13.8649 170.308 13.4388 170.309 13.0603 170.468L-12.3792 181.129C-12.7577 181.288 -13.0577 181.59 -13.2132 181.97C-13.3686 182.35 -13.3669 182.776 -13.2082 183.155L-11.9313 186.202C-11.7883 186.543 -11.714 186.909 -11.7124 187.278C-11.7109 187.648 -11.7822 188.015 -11.9223 188.357C-12.0624 188.699 -12.2686 189.011 -12.529 189.273C-12.7895 189.536 -13.0991 189.745 -13.4402 189.888L-16.4801 191.162C-16.8586 191.32 -17.1586 191.623 -17.3141 192.003C-17.4695 192.382 -17.4678 192.808 -17.3091 193.187L-12.5841 204.462C-12.4254 204.84 -12.1229 205.14 -11.7431 205.296C-11.3633 205.451 -10.9373 205.449 -10.5588 205.291L-6.34858 203.526C-5.97006 203.368 -5.54404 203.366 -5.16422 203.521C-4.78441 203.677 -4.48191 203.977 -4.32328 204.355L2.87202 221.524C3.16072 222.213 3.16394 222.989 2.88097 223.68C2.59799 224.371 2.052 224.922 1.36311 225.21L-1.67679 226.484C-2.0553 226.643 -2.35529 226.945 -2.51078 227.325C-2.66626 227.705 -2.66449 228.131 -2.50586 228.51L-1.23188 231.55C-0.943171 232.238 -0.939952 233.014 -1.22293 233.705C-1.5059 234.396 -2.05189 234.947 -2.74078 235.236L-5.78068 236.51C-6.15919 236.668 -6.45918 236.971 -6.61466 237.351C-6.77014 237.73 -6.76838 238.156 -6.60975 238.535L-4.84531 242.745C-4.68669 243.124 -4.68491 243.55 -4.8404 243.929C-4.99588 244.309 -5.29587 244.612 -5.67438 244.77L-9.88457 246.535C-10.2631 246.693 -10.5631 246.996 -10.7186 247.376C-10.874 247.756 -10.8723 248.182 -10.7136 248.56L-0.0642398 273.971C0.0943896 274.35 0.396886 274.65 0.776701 274.805C1.15652 274.96 1.58254 274.959 1.96106 274.8L5.00095 273.526C5.69129 273.239 6.4673 273.237 7.15884 273.522C7.85037 273.806 8.401 274.353 8.68997 275.042L9.96096 278.075C10.0395 278.262 10.1542 278.432 10.2985 278.576C10.4428 278.719 10.6138 278.832 10.8019 278.909C10.99 278.986 11.1914 279.025 11.3946 279.024C11.5978 279.023 11.7988 278.983 11.9863 278.904L15.0262 277.63C15.7165 277.343 16.4925 277.341 17.184 277.625C17.8756 277.91 18.4262 278.456 18.7152 279.146L19.9862 282.179C20.1448 282.557 20.4473 282.857 20.8271 283.013C21.2069 283.168 21.6329 283.167 22.0115 283.008L61.5515 266.437C61.93 266.279 62.23 265.976 62.3855 265.596C62.541 265.216 62.5392 264.79 62.3806 264.412L61.1096 261.379C60.8222 260.688 60.8201 259.911 61.1036 259.219C61.3871 258.526 61.9332 257.974 62.6227 257.683L65.6554 256.412C66.0339 256.253 66.3339 255.951 66.4894 255.571C66.6449 255.191 66.6431 254.765 66.4845 254.387L65.2135 251.354C64.9261 250.663 64.9239 249.886 65.2075 249.194C65.491 248.501 66.0371 247.949 66.7265 247.658L69.7522 246.39C70.1307 246.231 70.4307 245.929 70.5862 245.549C70.7416 245.169 70.7399 244.743 70.5812 244.364L59.9318 218.953C59.7732 218.575 59.4707 218.275 59.0909 218.119C58.7111 217.964 58.2851 217.966 57.9065 218.124ZM-9.75115 191.404C-10.0385 190.713 -10.0407 189.936 -9.75718 189.243C-9.47366 188.551 -8.92752 187.999 -8.23811 187.708L14.8251 178.042C15.5155 177.755 16.2915 177.753 16.983 178.038C17.6746 178.322 18.2252 178.869 18.5142 179.558L19.7852 182.591C19.9438 182.969 19.9456 183.395 19.7901 183.775C19.6346 184.155 19.3346 184.457 18.9561 184.616L-6.45487 195.266C-6.83338 195.424 -7.25941 195.426 -7.63922 195.27C-8.01904 195.115 -8.32153 194.815 -8.48016 194.436L-9.75115 191.404ZM0.960206 236.78C0.672833 236.089 0.670668 235.313 0.954183 234.62C1.2377 233.927 1.78384 233.375 2.47326 233.084L5.50602 231.813C5.88453 231.654 6.18452 231.352 6.34 230.972C6.49549 230.592 6.49372 230.166 6.33509 229.788L5.05214 226.726C4.76476 226.035 4.7626 225.259 5.04611 224.566C5.32963 223.874 5.87577 223.321 6.56518 223.03L9.60508 221.756C9.98359 221.598 10.2836 221.295 10.4391 220.915C10.5945 220.536 10.5928 220.11 10.4341 219.731L2.7484 201.392C2.58977 201.013 2.588 200.587 2.74348 200.207C2.89896 199.828 3.19896 199.525 3.57747 199.366L14.8522 194.641C15.2307 194.483 15.6567 194.481 16.0366 194.636C16.4164 194.792 16.7189 195.092 16.8775 195.47L24.5632 213.81C24.7219 214.188 25.0244 214.488 25.4042 214.644C25.784 214.799 26.21 214.797 26.5885 214.639L29.6284 213.365C30.3188 213.078 31.0948 213.076 31.7863 213.36C32.4779 213.644 33.0285 214.191 33.3175 214.881L34.5884 217.914C34.7471 218.292 35.0496 218.592 35.4294 218.748C35.8092 218.903 36.2352 218.901 36.6137 218.743L39.6536 217.469C39.9979 217.325 40.3671 217.252 40.7399 217.252C41.1127 217.252 41.4818 217.326 41.8259 217.47C42.17 217.614 42.4822 217.824 42.7446 218.089C43.007 218.354 43.2143 218.668 43.3546 219.013L44.6256 222.046C44.7842 222.425 44.786 222.851 44.6305 223.23C44.4751 223.61 44.1751 223.913 43.7965 224.071L4.25649 240.642C3.87798 240.801 3.45195 240.802 3.07214 240.647C2.69232 240.491 2.38982 240.191 2.23119 239.813L0.960206 236.78ZM58.4965 251.14C58.118 251.299 57.818 251.602 57.6625 251.981C57.5071 252.361 57.5088 252.787 57.6675 253.166L58.9414 256.206C59.2301 256.894 59.2334 257.67 58.9504 258.361C58.6674 259.052 58.1214 259.603 57.4325 259.892L20.2402 275.478C19.5506 275.767 18.7746 275.771 18.0823 275.489C17.39 275.207 16.8379 274.661 16.547 273.973L15.273 270.933C15.1144 270.554 14.8119 270.254 14.4321 270.099C14.0523 269.943 13.6263 269.945 13.2477 270.104L10.215 271.375C9.52544 271.664 8.74943 271.667 8.05712 271.385C7.36481 271.103 6.81269 270.557 6.52182 269.869L-0.688431 252.664C-0.847061 252.285 -0.84883 251.859 -0.693349 251.48C-0.53787 251.1 -0.237876 250.797 0.140637 250.639L53.8098 228.147C54.1883 227.988 54.6143 227.986 54.9941 228.142C55.374 228.297 55.6765 228.597 55.8351 228.976L63.0334 246.152C63.3221 246.841 63.3253 247.616 63.0423 248.307C62.7593 248.999 62.2134 249.549 61.5245 249.838L58.4965 251.14Z" fill="#24E5C2"/>
</g>
<g opacity="0.4" clip-path="url(#clip6_1959_35045)">
<path d="M1856.89 72.7209L1854.63 71.6134C1854.17 71.3875 1853.82 70.9884 1853.65 70.504C1853.49 70.0196 1853.52 69.4895 1853.75 69.0303L1855.13 66.2084C1855.28 65.9023 1855.3 65.5489 1855.19 65.226C1855.08 64.903 1854.85 64.637 1854.54 64.4864L1851.71 63.095C1851.25 62.869 1850.89 62.4699 1850.73 61.9855C1850.56 61.5011 1850.59 60.971 1850.82 60.5118L1851.93 58.2555C1852.15 57.7963 1852.19 57.2662 1852.02 56.7818C1851.85 56.2974 1851.5 55.8983 1851.04 55.6724L1848.78 54.5649C1848.32 54.339 1847.97 53.9399 1847.81 53.4555C1847.64 52.971 1847.67 52.4409 1847.9 51.9818L1849 49.7312C1849.23 49.2721 1849.26 48.742 1849.09 48.2575C1848.93 47.7731 1848.58 47.374 1848.12 47.1481L1787.99 17.6416C1787.69 17.491 1787.33 17.4682 1787.01 17.5781C1786.68 17.688 1786.42 17.9218 1786.27 18.2279L1785.06 20.6862C1784.93 20.9625 1784.74 21.2093 1784.51 21.4124C1784.27 21.6155 1784.01 21.771 1783.71 21.8698C1783.42 21.9687 1783.11 22.009 1782.8 21.9885C1782.5 21.968 1782.2 21.887 1781.92 21.7503L1780.04 20.8274C1779.58 20.6015 1779.05 20.5672 1778.56 20.7321C1778.08 20.897 1777.68 21.2476 1777.45 21.7068L1776.35 23.9631C1776.12 24.4223 1775.72 24.7729 1775.24 24.9378C1774.75 25.1027 1774.22 25.0684 1773.76 24.8425L1771.5 23.7322C1771.04 23.5062 1770.51 23.472 1770.02 23.6369C1769.54 23.8018 1769.14 24.1524 1768.91 24.6115L1767.81 26.8563C1767.59 27.3155 1767.19 27.6661 1766.7 27.831C1766.22 27.9959 1765.69 27.9616 1765.23 27.7357L1762.39 26.3443C1762.08 26.1937 1761.73 26.1708 1761.41 26.2807C1761.08 26.3907 1760.82 26.6244 1760.67 26.9305L1703.2 144.036C1702.97 144.496 1702.94 145.026 1703.1 145.51C1703.27 145.995 1703.62 146.394 1704.08 146.62L1706.34 147.727C1706.8 147.953 1707.15 148.352 1707.32 148.836C1707.48 149.321 1707.45 149.851 1707.22 150.31L1706.12 152.561C1705.9 153.02 1705.86 153.55 1706.03 154.034C1706.19 154.519 1706.55 154.918 1707.01 155.144L1709.27 156.254C1709.73 156.48 1710.08 156.879 1710.25 157.364C1710.41 157.848 1710.38 158.378 1710.16 158.837L1709.05 161.094C1708.82 161.553 1708.79 162.083 1708.96 162.567C1709.12 163.052 1709.47 163.451 1709.93 163.677L1712.19 164.784C1712.65 165.01 1713 165.409 1713.17 165.894C1713.34 166.378 1713.3 166.908 1713.08 167.367L1711.98 169.612C1711.75 170.071 1711.72 170.601 1711.88 171.086C1712.05 171.57 1712.4 171.969 1712.86 172.195L1772.41 201.418C1772.87 201.644 1773.4 201.678 1773.88 201.513C1774.37 201.348 1774.77 200.998 1774.99 200.538L1775.91 198.663C1776.05 198.387 1776.24 198.14 1776.47 197.937C1776.7 197.734 1776.97 197.578 1777.26 197.479C1777.55 197.38 1777.86 197.34 1778.17 197.361C1778.48 197.381 1778.78 197.462 1779.06 197.599L1780.94 198.522C1781.4 198.748 1781.93 198.782 1782.41 198.617C1782.9 198.452 1783.3 198.101 1783.52 197.642L1784.63 195.386C1784.85 194.927 1785.25 194.576 1785.74 194.411C1786.22 194.246 1786.75 194.281 1787.21 194.507L1790.05 195.898C1790.36 196.049 1790.71 196.072 1791.03 195.962C1791.36 195.852 1791.62 195.618 1791.77 195.312L1793.16 192.484C1793.39 192.025 1793.79 191.674 1794.27 191.509C1794.75 191.345 1795.29 191.379 1795.75 191.605L1798 192.712C1798.46 192.938 1798.99 192.972 1799.48 192.808C1799.96 192.643 1800.36 192.292 1800.59 191.833L1857.78 75.304C1857.89 75.0767 1857.95 74.8295 1857.97 74.5767C1857.98 74.3238 1857.95 74.0702 1857.87 73.8303C1857.79 73.5905 1857.66 73.369 1857.49 73.1787C1857.32 72.9883 1857.12 72.8328 1856.89 72.7209ZM1774.65 27.4256C1774.87 26.9664 1775.27 26.6158 1775.76 26.4509C1776.24 26.286 1776.77 26.3203 1777.23 26.5462L1779.49 27.6537C1779.95 27.8796 1780.48 27.9139 1780.97 27.749C1781.45 27.5841 1781.85 27.2335 1782.07 26.7744L1783.18 24.518C1783.41 24.0588 1783.81 23.7082 1784.29 23.5433C1784.78 23.3784 1785.31 23.4127 1785.77 23.6386L1845.31 52.8611C1845.77 53.0871 1846.12 53.4862 1846.29 53.9706C1846.46 54.455 1846.42 54.9851 1846.2 55.4442L1845.09 57.7006C1844.87 58.1598 1844.83 58.6899 1845 59.1743C1845.17 59.6587 1845.52 60.0578 1845.98 60.2837L1848.23 61.3912C1848.69 61.6171 1849.05 62.0162 1849.21 62.5006C1849.38 62.985 1849.35 63.5151 1849.12 63.9743L1845.38 71.5859C1845.25 71.8623 1845.06 72.1091 1844.83 72.3122C1844.6 72.5153 1844.33 72.6707 1844.04 72.7695C1843.74 72.8684 1843.44 72.9087 1843.13 72.8882C1842.82 72.8677 1842.52 72.7867 1842.24 72.65L1840.36 71.7271C1839.9 71.5012 1839.55 71.1021 1839.38 70.6177C1839.22 70.1333 1839.25 69.6032 1839.48 69.144L1840.59 66.8704C1840.82 66.4112 1840.85 65.8811 1840.68 65.3967C1840.52 64.9123 1840.17 64.5132 1839.71 64.2872L1837.45 63.1798C1836.99 62.9539 1836.64 62.5548 1836.47 62.0703C1836.3 61.5859 1836.34 61.0558 1836.56 60.5967L1837.66 58.3518C1837.89 57.8927 1837.92 57.3626 1837.76 56.8782C1837.59 56.3937 1837.24 55.9947 1836.78 55.7687L1788.69 32.1687C1788.23 31.9428 1787.7 31.9085 1787.21 32.0734C1786.73 32.2383 1786.33 32.5889 1786.1 33.048L1785 35.2929C1784.78 35.752 1784.38 36.1026 1783.89 36.2675C1783.41 36.4324 1782.88 36.3981 1782.42 36.1722L1779.58 34.7808C1779.27 34.6302 1778.92 34.6073 1778.6 34.7172C1778.27 34.8272 1778.01 35.0609 1777.86 35.367L1776.64 37.8484C1776.5 38.1248 1776.32 38.3716 1776.08 38.5747C1775.85 38.7778 1775.58 38.9332 1775.29 39.0321C1775 39.1309 1774.69 39.1712 1774.38 39.1507C1774.07 39.1302 1773.77 39.0493 1773.5 38.9125L1771.62 37.9897C1771.16 37.7637 1770.8 37.3646 1770.64 36.8802C1770.47 36.3958 1770.5 35.8657 1770.73 35.4065L1774.65 27.4256ZM1825.44 64.375L1811.73 57.6451C1811.27 57.4192 1810.73 57.3849 1810.25 57.5498C1809.76 57.7147 1809.37 58.0653 1809.14 58.5245L1808.03 60.7808C1807.81 61.24 1807.41 61.5906 1806.92 61.7555C1806.44 61.9204 1805.91 61.8861 1805.45 61.6602L1774.55 46.4966C1774.09 46.2707 1773.74 45.8716 1773.57 45.3872C1773.4 44.9027 1773.44 44.3727 1773.66 43.9135L1774.77 41.6571C1775 41.198 1775.39 40.8474 1775.88 40.6825C1776.36 40.5176 1776.9 40.5519 1777.36 40.7778L1779.61 41.8852C1780.07 42.1112 1780.6 42.1455 1781.09 41.9806C1781.57 41.8156 1781.97 41.4651 1782.2 41.0059L1783.12 39.1304C1783.39 38.5718 1783.88 38.1452 1784.47 37.9446C1785.06 37.7439 1785.7 37.7857 1786.26 38.0605L1833.98 61.476C1834.44 61.702 1834.79 62.101 1834.96 62.5855C1835.12 63.0699 1835.09 63.6 1834.86 64.0591L1833.76 66.3097C1833.53 66.7689 1833.5 67.299 1833.67 67.7834C1833.83 68.2678 1834.18 68.6669 1834.64 68.8928L1836.9 70.0003C1837.36 70.2262 1837.71 70.6253 1837.88 71.1097C1838.05 71.5942 1838.01 72.1242 1837.79 72.5834L1836.86 74.4704C1836.59 75.0255 1836.11 75.45 1835.52 75.651C1834.94 75.8519 1834.29 75.8131 1833.74 75.5431L1826.11 71.8004C1825.65 71.5745 1825.3 71.1754 1825.13 70.691C1824.97 70.2066 1825 69.6765 1825.22 69.2173L1826.33 66.961C1826.56 66.5018 1826.59 65.9717 1826.42 65.4873C1826.26 65.0029 1825.91 64.6038 1825.44 64.3778L1825.44 64.375ZM1795.04 188.658C1794.9 188.934 1794.71 189.181 1794.48 189.384C1794.25 189.587 1793.98 189.743 1793.69 189.842C1793.4 189.941 1793.09 189.981 1792.78 189.96C1792.47 189.94 1792.17 189.859 1791.9 189.722L1790.02 188.799C1789.55 188.573 1789.02 188.539 1788.54 188.704C1788.05 188.869 1787.65 189.22 1787.43 189.679L1786.51 191.56C1786.37 191.836 1786.18 192.083 1785.95 192.286C1785.72 192.489 1785.45 192.645 1785.16 192.744C1784.87 192.842 1784.56 192.883 1784.25 192.862C1783.94 192.842 1783.64 192.761 1783.36 192.624L1781.48 191.701C1781.02 191.475 1780.49 191.441 1780.01 191.606C1779.52 191.771 1779.12 192.121 1778.9 192.581L1777.79 194.837C1777.56 195.296 1777.17 195.647 1776.68 195.812C1776.2 195.976 1775.67 195.942 1775.2 195.716L1715.66 166.494C1715.2 166.268 1714.85 165.869 1714.68 165.384C1714.51 164.9 1714.55 164.37 1714.77 163.911L1715.88 161.654C1716.11 161.195 1716.14 160.665 1715.97 160.181C1715.81 159.696 1715.45 159.297 1714.99 159.071L1712.74 157.964C1712.28 157.738 1711.93 157.339 1711.76 156.854C1711.59 156.37 1711.63 155.84 1711.85 155.381L1712.96 153.13C1713.18 152.671 1713.21 152.141 1713.05 151.656C1712.88 151.172 1712.53 150.773 1712.07 150.547L1709.81 149.437C1709.35 149.211 1709 148.812 1708.83 148.327C1708.66 147.843 1708.7 147.313 1708.92 146.853L1726.85 110.313C1727.08 109.854 1727.48 109.503 1727.96 109.338C1728.45 109.173 1728.98 109.208 1729.44 109.434L1731.7 110.544C1732.16 110.77 1732.51 111.169 1732.68 111.653C1732.85 112.138 1732.81 112.668 1732.59 113.127L1731.48 115.378C1731.26 115.837 1731.22 116.367 1731.39 116.851C1731.56 117.336 1731.91 117.735 1732.37 117.961L1734.63 119.068C1735.09 119.294 1735.44 119.693 1735.6 120.178C1735.77 120.662 1735.74 121.192 1735.51 121.651L1734.12 124.485C1733.97 124.791 1733.95 125.144 1734.06 125.467C1734.17 125.79 1734.41 126.056 1734.71 126.207L1737.55 127.598C1738.01 127.824 1738.36 128.223 1738.53 128.708C1738.69 129.192 1738.66 129.722 1738.43 130.181L1737.34 132.415C1737.11 132.874 1737.08 133.404 1737.25 133.888C1737.41 134.373 1737.76 134.772 1738.22 134.998L1740.48 136.105C1740.94 136.331 1741.29 136.73 1741.46 137.215C1741.63 137.699 1741.59 138.229 1741.37 138.688L1740.26 140.939C1740.04 141.398 1740 141.928 1740.17 142.413C1740.34 142.897 1740.69 143.296 1741.15 143.522L1743.41 144.63C1743.87 144.855 1744.22 145.255 1744.38 145.739C1744.55 146.223 1744.52 146.753 1744.29 147.213L1743.19 149.463C1742.96 149.922 1742.93 150.452 1743.09 150.937C1743.26 151.421 1743.61 151.82 1744.07 152.046L1752.06 155.965C1752.52 156.191 1752.87 156.59 1753.04 157.074C1753.2 157.559 1753.17 158.089 1752.94 158.548L1751.56 161.376C1751.41 161.682 1751.38 162.035 1751.5 162.358C1751.61 162.681 1751.84 162.947 1752.15 163.098L1783.63 178.548C1784.09 178.774 1784.62 178.808 1785.11 178.644C1785.59 178.479 1785.99 178.128 1786.22 177.669L1787.14 175.793C1787.41 175.235 1787.9 174.808 1788.49 174.608C1789.08 174.407 1789.72 174.449 1790.28 174.724L1792.16 175.646C1792.62 175.872 1793.15 175.907 1793.64 175.742C1794.12 175.577 1794.52 175.226 1794.75 174.767L1795.85 172.516C1796.08 172.057 1796.48 171.707 1796.96 171.542C1797.45 171.377 1797.98 171.411 1798.44 171.637L1800.69 172.745C1801.15 172.971 1801.51 173.37 1801.67 173.854C1801.84 174.338 1801.81 174.869 1801.58 175.328L1795.04 188.658ZM1803.5 167.032L1801.24 165.924C1800.78 165.698 1800.25 165.664 1799.77 165.829C1799.28 165.994 1798.88 166.344 1798.66 166.803L1797.73 168.685C1797.6 168.961 1797.41 169.208 1797.18 169.411C1796.95 169.614 1796.68 169.769 1796.38 169.868C1796.09 169.967 1795.78 170.007 1795.48 169.987C1795.17 169.966 1794.87 169.886 1794.59 169.749L1792.71 168.826C1792.25 168.6 1791.72 168.566 1791.23 168.731C1790.75 168.896 1790.35 169.246 1790.12 169.705L1789.2 171.587C1789.07 171.863 1788.88 172.11 1788.64 172.313C1788.41 172.516 1788.14 172.671 1787.85 172.77C1787.56 172.869 1787.25 172.909 1786.94 172.889C1786.64 172.868 1786.33 172.787 1786.06 172.651L1755.53 157.669C1755.07 157.443 1754.72 157.044 1754.55 156.559C1754.39 156.075 1754.42 155.545 1754.64 155.086L1755.75 152.835C1755.97 152.376 1756.01 151.846 1755.84 151.361C1755.67 150.877 1755.32 150.478 1754.86 150.252L1746.88 146.333C1746.42 146.107 1746.06 145.708 1745.9 145.224C1745.73 144.739 1745.77 144.209 1745.99 143.75L1747.1 141.5C1747.32 141.04 1747.35 140.51 1747.19 140.026C1747.02 139.541 1746.67 139.142 1746.21 138.916L1743.95 137.809C1743.49 137.583 1743.14 137.184 1742.97 136.7C1742.81 136.215 1742.84 135.685 1743.07 135.226L1744.17 132.975C1744.4 132.516 1744.43 131.986 1744.26 131.502C1744.1 131.017 1743.75 130.618 1743.28 130.392L1741.03 129.285C1740.57 129.059 1740.22 128.66 1740.05 128.175C1739.88 127.691 1739.92 127.161 1740.14 126.702L1741.25 124.445C1741.47 123.986 1741.51 123.456 1741.34 122.972C1741.18 122.487 1740.82 122.088 1740.36 121.862L1738.11 120.755C1737.65 120.529 1737.29 120.13 1737.13 119.645C1736.96 119.161 1736.99 118.631 1737.22 118.172L1738.32 115.921C1738.55 115.462 1738.58 114.932 1738.42 114.447C1738.25 113.963 1737.9 113.564 1737.44 113.338L1735.18 112.23C1734.72 112.005 1734.37 111.605 1734.2 111.121C1734.04 110.637 1734.07 110.106 1734.3 109.647L1735.4 107.397C1735.63 106.938 1735.66 106.407 1735.49 105.923C1735.33 105.439 1734.97 105.04 1734.51 104.814L1732.25 103.703C1731.79 103.477 1731.44 103.078 1731.27 102.594C1731.11 102.109 1731.14 101.579 1731.37 101.12L1752.09 58.8898C1752.32 58.4307 1752.71 58.0801 1753.2 57.9152C1753.68 57.7503 1754.22 57.7845 1754.68 58.0105L1756.94 59.1208C1757.4 59.3467 1757.75 59.7458 1757.92 60.2302C1758.08 60.7146 1758.05 61.2447 1757.82 61.7039L1753.92 69.6618C1753.69 70.1209 1753.66 70.651 1753.83 71.1354C1753.99 71.6199 1754.34 72.0189 1754.81 72.2449L1757.06 73.3523C1757.52 73.5783 1757.87 73.9773 1758.04 74.4618C1758.21 74.9462 1758.17 75.4763 1757.95 75.9354L1756.84 78.186C1756.62 78.6452 1756.59 79.1753 1756.75 79.6597C1756.92 80.1441 1757.27 80.5432 1757.73 80.7691L1765.71 84.6878C1766.18 84.9137 1766.53 85.3128 1766.69 85.7972C1766.86 86.2817 1766.83 86.8118 1766.6 87.2709L1765.5 89.5215C1765.27 89.9807 1765.24 90.5108 1765.4 90.9952C1765.57 91.4796 1765.92 91.8787 1766.38 92.1046L1780.1 98.8345C1780.56 99.0605 1780.91 99.4595 1781.07 99.944C1781.24 100.428 1781.21 100.958 1780.98 101.418L1779.88 103.668C1779.65 104.127 1779.62 104.657 1779.79 105.142C1779.95 105.626 1780.3 106.025 1780.76 106.251L1805.94 118.607C1806.4 118.832 1806.93 118.867 1807.42 118.702C1807.9 118.537 1808.3 118.186 1808.52 117.727L1809.45 115.852C1809.58 115.575 1809.77 115.328 1810 115.125C1810.23 114.921 1810.5 114.765 1810.79 114.666C1811.09 114.567 1811.4 114.526 1811.7 114.546C1812.01 114.565 1812.31 114.646 1812.59 114.782L1820.2 118.516C1820.66 118.742 1821.19 118.776 1821.68 118.611C1822.16 118.446 1822.56 118.096 1822.79 117.637L1823.89 115.386C1824.11 114.927 1824.51 114.576 1825 114.411C1825.48 114.246 1826.01 114.281 1826.48 114.507L1828.73 115.614C1829.19 115.84 1829.54 116.239 1829.71 116.724C1829.88 117.208 1829.84 117.738 1829.62 118.197L1806.08 166.152C1805.97 166.38 1805.82 166.583 1805.63 166.75C1805.44 166.917 1805.21 167.045 1804.97 167.127C1804.73 167.208 1804.48 167.242 1804.23 167.226C1803.97 167.209 1803.73 167.143 1803.5 167.032ZM1833.84 109.599C1833.69 109.905 1833.42 110.139 1833.1 110.249C1832.77 110.358 1832.42 110.336 1832.11 110.185L1829.28 108.794C1828.82 108.568 1828.29 108.533 1827.8 108.698C1827.32 108.863 1826.92 109.214 1826.69 109.673L1825.77 111.554C1825.63 111.831 1825.45 112.077 1825.21 112.28C1824.98 112.484 1824.71 112.639 1824.42 112.738C1824.13 112.837 1823.82 112.877 1823.51 112.856C1823.2 112.836 1822.9 112.755 1822.63 112.618L1815.02 108.884C1814.56 108.658 1814.03 108.624 1813.54 108.789C1813.06 108.954 1812.66 109.304 1812.43 109.764L1811.51 111.645C1811.37 111.921 1811.19 112.168 1810.95 112.371C1810.72 112.574 1810.45 112.73 1810.16 112.828C1809.87 112.927 1809.56 112.968 1809.25 112.947C1808.94 112.927 1808.64 112.846 1808.37 112.709L1783.57 100.538C1783.11 100.312 1782.76 99.9133 1782.59 99.4289C1782.42 98.9444 1782.46 98.4143 1782.68 97.9552L1783.79 95.7046C1784.01 95.2454 1784.04 94.7153 1783.88 94.2309C1783.71 93.7465 1783.36 93.3474 1782.9 93.1215L1769.19 86.3916C1768.73 86.1656 1768.37 85.7666 1768.21 85.2821C1768.04 84.7977 1768.07 84.2676 1768.3 83.8085L1769.4 81.5579C1769.63 81.0987 1769.66 80.5686 1769.5 80.0842C1769.33 79.5998 1768.98 79.2007 1768.52 78.9748L1760.53 75.0561C1760.07 74.8302 1759.72 74.4311 1759.56 73.9467C1759.39 73.4622 1759.42 72.9321 1759.65 72.473L1763.55 64.5151C1763.78 64.056 1763.81 63.5259 1763.65 63.0414C1763.48 62.557 1763.13 62.1579 1762.67 61.932L1760.41 60.8245C1759.95 60.5986 1759.6 60.1995 1759.43 59.7151C1759.27 59.2307 1759.3 58.7006 1759.52 58.2414L1760.63 55.9908C1760.85 55.5317 1760.89 55.0016 1760.72 54.5172C1760.55 54.0327 1760.2 53.6337 1759.74 53.4077L1757.48 52.2974C1757.02 52.0715 1756.67 51.6724 1756.5 51.188C1756.33 50.7036 1756.37 50.1735 1756.59 49.7143L1763.31 36.0319C1763.53 35.5727 1763.93 35.2221 1764.42 35.0572C1764.9 34.8923 1765.43 34.9266 1765.89 35.1525L1768.16 36.2628C1768.62 36.4887 1768.97 36.8878 1769.13 37.3722C1769.3 37.8567 1769.27 38.3868 1769.04 38.8459L1767.93 41.1023C1767.71 41.5614 1767.68 42.0915 1767.84 42.576C1768.01 43.0604 1768.36 43.4595 1768.82 43.6854L1771.08 44.7928C1771.54 45.0188 1771.89 45.4179 1772.06 45.9023C1772.22 46.3867 1772.19 46.9168 1771.96 47.376L1770.86 49.6265C1770.63 50.0857 1770.6 50.6158 1770.77 51.1002C1770.93 51.5847 1771.29 51.9837 1771.75 52.2097L1831.29 81.4322C1831.75 81.6581 1832.28 81.6924 1832.77 81.5275C1833.25 81.3626 1833.65 81.012 1833.88 80.5528L1834.8 78.6773C1835.07 78.1187 1835.56 77.6921 1836.15 77.4915C1836.74 77.2909 1837.38 77.3326 1837.94 77.6075L1839.82 78.5303C1840.28 78.7563 1840.81 78.7905 1841.3 78.6256C1841.78 78.4607 1842.18 78.1101 1842.41 77.651L1843.52 75.3946C1843.74 74.9355 1844.14 74.5849 1844.63 74.42C1845.11 74.2551 1845.64 74.2893 1846.1 74.5153L1848.36 75.6227C1848.82 75.8487 1849.17 76.2477 1849.34 76.7322C1849.5 77.2166 1849.47 77.7467 1849.24 78.2058L1833.84 109.599Z" fill="#24E5C2"/>
</g>
<g opacity="0.4" clip-path="url(#clip7_1959_35045)">
<path d="M1091.27 1065.58L1091.12 1065.92C1091.14 1065.86 1091.17 1065.8 1091.2 1065.75C1091.22 1065.69 1091.24 1065.64 1091.27 1065.58Z" fill="#24E5C2"/>
<path d="M1081.07 1014.25L1083.81 1007.92C1084.12 1007.19 1084.14 1006.36 1083.84 1005.62C1083.55 1004.88 1082.97 1004.29 1082.24 1003.98L1078.66 1002.43C1077.93 1002.12 1077.11 1002.1 1076.37 1002.4C1075.63 1002.69 1075.04 1003.27 1074.72 1004L1069.25 1016.66C1068.93 1017.4 1068.34 1017.97 1067.6 1018.26C1066.86 1018.56 1066.04 1018.54 1065.31 1018.23L1061.72 1016.68C1060.99 1016.37 1060.17 1016.36 1059.43 1016.65C1058.69 1016.94 1058.1 1017.52 1057.78 1018.25L1052.31 1030.91C1052 1031.64 1051.99 1032.46 1052.28 1033.2C1052.57 1033.94 1053.15 1034.54 1053.88 1034.85L1075.64 1044.25C1076.37 1044.56 1077.19 1044.58 1077.93 1044.28C1078.67 1043.99 1079.26 1043.41 1079.58 1042.68L1085.05 1030.02C1085.36 1029.29 1085.38 1028.47 1085.08 1027.73C1084.79 1026.99 1084.21 1026.39 1083.48 1026.08L1079.9 1024.53C1079.17 1024.22 1078.6 1023.62 1078.3 1022.89C1078.01 1022.15 1078.02 1021.32 1078.34 1020.59L1081.07 1014.25Z" fill="#24E5C2"/>
<path d="M1123.45 1010.99L1118.95 1009.05C1118.22 1008.73 1117.65 1008.14 1117.35 1007.4C1117.06 1006.66 1117.07 1005.83 1117.39 1005.1L1118.93 1001.52C1119.25 1000.79 1119.26 999.965 1118.97 999.226C1118.67 998.486 1118.1 997.893 1117.37 997.578L1113.79 996.032C1113.06 995.716 1112.48 995.124 1112.19 994.384C1111.9 993.644 1111.91 992.819 1112.22 992.088L1121.62 970.33C1121.94 969.6 1121.95 968.774 1121.65 968.034C1121.36 967.295 1120.79 966.702 1120.05 966.387L1116.47 964.837C1115.73 964.521 1115.16 963.928 1114.87 963.189C1114.57 962.449 1114.58 961.624 1114.9 960.893L1116.85 956.385C1117.06 955.898 1117.07 955.348 1116.87 954.855C1116.67 954.362 1116.29 953.967 1115.8 953.756L1093.13 943.964C1092.4 943.649 1091.57 943.636 1090.83 943.93C1090.09 944.223 1089.5 944.798 1089.18 945.529L1087.63 949.118C1087.32 949.849 1086.73 950.424 1085.99 950.718C1085.25 951.011 1084.42 950.999 1083.69 950.683L1080.11 949.137C1079.38 948.822 1078.55 948.809 1077.81 949.103C1077.07 949.396 1076.48 949.971 1076.17 950.702L1066.77 972.46C1066.46 973.19 1065.86 973.765 1065.12 974.059C1064.38 974.352 1063.56 974.34 1062.83 974.025L1059.25 972.478C1058.52 972.163 1057.69 972.151 1056.95 972.444C1056.21 972.738 1055.62 973.313 1055.3 974.043L1053.76 977.624C1053.44 978.354 1052.85 978.929 1052.11 979.223C1051.37 979.516 1050.54 979.504 1049.81 979.188L1046.23 977.642C1045.5 977.327 1044.68 977.314 1043.94 977.608C1043.2 977.901 1042.61 978.477 1042.29 979.207L1021.12 1028.24C1020.8 1028.97 1020.79 1029.8 1021.08 1030.54C1021.37 1031.28 1021.95 1031.87 1022.68 1032.18L1026.26 1033.73C1026.99 1034.05 1027.57 1034.64 1027.86 1035.38C1028.15 1036.12 1028.14 1036.94 1027.83 1037.67L1026.28 1041.25C1025.96 1041.98 1025.95 1042.81 1026.24 1043.55C1026.54 1044.29 1027.11 1044.88 1027.84 1045.2L1085.97 1070.3C1086.7 1070.61 1087.52 1070.62 1088.26 1070.33C1089 1070.04 1089.59 1069.46 1089.91 1068.73L1091.12 1065.92C1091.14 1065.86 1091.17 1065.8 1091.2 1065.75C1091.22 1065.69 1091.24 1065.64 1091.27 1065.58L1091.2 1065.75C1091.22 1065.69 1091.24 1065.64 1091.27 1065.58C1091.68 1064.74 1092.4 1064.09 1093.28 1063.77C1094.16 1063.45 1095.13 1063.47 1095.99 1063.84L1098.97 1065.13C1099.7 1065.44 1100.53 1065.46 1101.27 1065.16C1102.01 1064.87 1102.6 1064.29 1102.91 1063.56L1124.48 1013.61C1124.69 1013.13 1124.7 1012.58 1124.51 1012.09C1124.32 1011.6 1123.94 1011.2 1123.45 1010.99ZM1085.26 954.627C1085.41 954.265 1085.64 953.938 1085.92 953.663C1086.2 953.389 1086.54 953.173 1086.9 953.028C1087.27 952.882 1087.66 952.811 1088.05 952.816C1088.45 952.822 1088.84 952.906 1089.2 953.062L1110.96 962.458C1111.69 962.773 1112.26 963.366 1112.56 964.106C1112.85 964.845 1112.84 965.671 1112.52 966.401L1103.13 988.159C1102.81 988.89 1102.22 989.465 1101.48 989.758C1100.74 990.052 1099.91 990.04 1099.18 989.724L1076.51 979.932C1076.02 979.721 1075.64 979.326 1075.44 978.833C1075.24 978.34 1075.25 977.79 1075.46 977.303L1085.26 954.627ZM1031.77 1036.1C1031.04 1035.78 1030.47 1035.19 1030.17 1034.45C1029.88 1033.71 1029.89 1032.89 1030.21 1032.16L1051.38 983.132C1051.69 982.402 1052.29 981.826 1053.03 981.533C1053.77 981.239 1054.59 981.252 1055.32 981.567L1113.44 1006.67C1114.17 1006.98 1114.75 1007.57 1115.04 1008.31C1115.34 1009.05 1115.32 1009.88 1115.01 1010.61L1093.83 1059.64C1093.52 1060.37 1092.93 1060.95 1092.19 1061.24C1091.45 1061.54 1090.62 1061.52 1089.89 1061.21L1031.77 1036.1Z" fill="#24E5C2"/>
</g>
</g>
<defs>
<filter id="filter0_f_1959_35045" x="-43" y="0.637207" width="1918.04" height="1119.59" filterUnits="userSpaceOnUse" color-interpolation-filters="sRGB">
<feFlood flood-opacity="0" result="BackgroundImageFix"/>
<feBlend mode="normal" in="SourceGraphic" in2="BackgroundImageFix" result="shape"/>
<feGaussianBlur stdDeviation="4" result="effect1_foregroundBlur_1959_35045"/>
</filter>
<clipPath id="clip0_1959_35045">
<rect width="99" height="160" fill="white" transform="translate(1098 85.5928) rotate(-24.2066)"/>
</clipPath>
<clipPath id="clip1_1959_35045">
<rect width="73" height="81" fill="white" transform="translate(288 63.9009) rotate(-20.7818)"/>
</clipPath>
<clipPath id="clip2_1959_35045">
<rect width="80" height="81" fill="white" transform="translate(431 619.114) rotate(-18.2957)"/>
</clipPath>
<clipPath id="clip3_1959_35045">
<rect width="59" height="59" fill="white" transform="translate(1654.77 635) rotate(20.6113)"/>
</clipPath>
<clipPath id="clip4_1959_35045">
<rect width="109" height="116" fill="white" transform="translate(1565.87 967) rotate(19.0564)"/>
</clipPath>
<clipPath id="clip5_1959_35045">
<rect width="76.6063" height="107.253" fill="white" transform="translate(-35 190.609) rotate(-22.7379)"/>
</clipPath>
<clipPath id="clip6_1959_35045">
<rect width="108.489" height="171.846" fill="white" transform="translate(1769.64 8.63721) rotate(26.14)"/>
</clipPath>
<clipPath id="clip7_1959_35045">
<rect width="89.11" height="118.82" fill="white" transform="translate(1063.11 931) rotate(23.3566)"/>
</clipPath>
</defs>
</svg>
