<svg width="100" height="25" viewBox="0 0 100 25" fill="none" xmlns="http://www.w3.org/2000/svg">
<g clip-path="url(#clip0_2177_1696)">
<path d="M12.2038 8.71381V7.55875C12.2029 7.18532 12.0545 6.82747 11.7913 6.56358C11.528 6.29968 11.1713 6.15126 10.7992 6.15081H4.47256C4.09988 6.15035 3.74226 6.29838 3.47826 6.56237C3.21426 6.82636 3.06546 7.18473 3.06456 7.55875V10.889C3.06434 11.0746 3.1006 11.2584 3.17128 11.43C3.24196 11.6015 3.34566 11.7574 3.47645 11.8886C3.60724 12.0199 3.76255 12.124 3.93347 12.1949C4.1044 12.2659 4.28759 12.3023 4.47256 12.302H11.693C11.8285 12.302 11.9584 12.356 12.0542 12.4522C12.1499 12.5483 12.2038 12.6787 12.2038 12.8146V13.9663C12.2038 14.3406 12.3519 14.6996 12.6157 14.9643C12.8794 15.2289 13.2371 15.3776 13.6101 15.3776H14.7576C14.893 15.3776 15.0229 15.4316 15.1187 15.5278C15.2145 15.6239 15.2683 15.7543 15.2683 15.8902V21.0163C15.2683 21.1522 15.2145 21.2826 15.1187 21.3787C15.0229 21.4749 14.893 21.5289 14.7576 21.5289H13.6101C13.2374 21.5289 12.8799 21.6773 12.6163 21.9416C12.3526 22.2059 12.2042 22.5645 12.2038 22.9385V24.0919C12.2038 24.2278 12.1499 24.3582 12.0542 24.4543C11.9584 24.5505 11.8285 24.6045 11.693 24.6045H3.53957C3.4041 24.6045 3.27419 24.5505 3.17841 24.4543C3.08262 24.3582 3.02881 24.2278 3.02881 24.0919V22.9385C3.02836 22.5648 2.88023 22.2065 2.61691 21.9422C2.3536 21.678 1.9966 21.5293 1.62422 21.5289H0.51076C0.375298 21.5289 0.245384 21.4749 0.149598 21.3787C0.0538121 21.2826 0 21.1522 0 21.0163L0 18.9658C0 18.8299 0.0538121 18.6995 0.149598 18.6034C0.245384 18.5073 0.375298 18.4532 0.51076 18.4532H2.5538C2.68926 18.4532 2.81918 18.5073 2.91496 18.6034C3.01075 18.6995 3.06456 18.8299 3.06456 18.9658V20.1175C3.06456 20.303 3.10099 20.4866 3.17177 20.658C3.24255 20.8293 3.34629 20.985 3.47706 21.1161C3.60782 21.2472 3.76305 21.3511 3.93387 21.4219C4.10468 21.4927 4.28773 21.5291 4.47256 21.5289H10.7992C10.9838 21.5289 11.1666 21.4923 11.3371 21.4214C11.5076 21.3504 11.6625 21.2465 11.793 21.1154C11.9234 20.9843 12.0268 20.8287 12.0973 20.6575C12.1678 20.4862 12.204 20.3028 12.2038 20.1175V16.7856C12.2029 16.4122 12.0545 16.0543 11.7913 15.7904C11.528 15.5265 11.1713 15.3781 10.7992 15.3776H3.53957C3.4041 15.3776 3.27419 15.3236 3.17841 15.2275C3.08262 15.1314 3.02881 15.001 3.02881 14.865V13.71C3.02791 13.3365 2.87958 12.9787 2.61631 12.7148C2.35305 12.4509 1.9963 12.3025 1.62422 12.302H0.51076C0.375298 12.302 0.245384 12.248 0.149598 12.1519C0.0538121 12.0558 0 11.9254 0 11.7894L0 6.66341C0 6.52746 0.0538121 6.39707 0.149598 6.30094C0.245384 6.20481 0.375298 6.15081 0.51076 6.15081H1.62422C1.80881 6.15081 1.9916 6.11429 2.16212 6.04334C2.33265 5.97239 2.48756 5.8684 2.61801 5.73732C2.74847 5.60624 2.85189 5.45064 2.92238 5.27942C2.99287 5.10819 3.02903 4.9247 3.02881 4.73944V3.5878C3.02881 3.45185 3.08262 3.32146 3.17841 3.22533C3.27419 3.1292 3.4041 3.0752 3.53957 3.0752H11.693C11.8285 3.0752 11.9584 3.1292 12.0542 3.22533C12.1499 3.32146 12.2038 3.45185 12.2038 3.5878V4.73944C12.2038 5.11376 12.3519 5.47275 12.6157 5.73743C12.8794 6.00211 13.2371 6.15081 13.6101 6.15081H14.7576C14.893 6.15081 15.0229 6.20481 15.1187 6.30094C15.2145 6.39707 15.2683 6.52746 15.2683 6.66341V8.71381C15.2683 8.84976 15.2145 8.98015 15.1187 9.07628C15.0229 9.17241 14.893 9.22642 14.7576 9.22642H12.7145C12.5791 9.22642 12.4491 9.17241 12.3534 9.07628C12.2576 8.98015 12.2038 8.84976 12.2038 8.71381Z" fill="#49FFDE"/>
<path d="M75.4831 8.71381V7.55875C75.4822 7.18532 75.3338 6.82747 75.0706 6.56358C74.8073 6.29968 74.4506 6.15126 74.0785 6.15081H67.7604C67.5757 6.15058 67.3928 6.18686 67.2221 6.25759C67.0514 6.32831 66.8962 6.43208 66.7655 6.56298C66.6347 6.69387 66.5309 6.84934 66.4601 7.02048C66.3892 7.19163 66.3526 7.37512 66.3524 7.56046V10.889C66.3521 11.0746 66.3884 11.2584 66.4591 11.43C66.5298 11.6015 66.6335 11.7574 66.7643 11.8886C66.8951 12.0199 67.0504 12.124 67.2213 12.1949C67.3922 12.2659 67.5754 12.3023 67.7604 12.302H74.9808C75.1163 12.302 75.2462 12.356 75.342 12.4522C75.4378 12.5483 75.4916 12.6787 75.4916 12.8146V13.9663C75.4916 14.3391 75.6386 14.6968 75.9004 14.9612C76.1623 15.2257 76.5179 15.3754 76.8893 15.3776H78.0369C78.1723 15.3776 78.3022 15.4316 78.398 15.5278C78.4938 15.6239 78.5476 15.7543 78.5476 15.8902V21.0163C78.5476 21.1522 78.4938 21.2826 78.398 21.3787C78.3022 21.4749 78.1723 21.5289 78.0369 21.5289H76.8893C76.5167 21.5289 76.1592 21.6773 75.8956 21.9416C75.6319 22.2059 75.4835 22.5645 75.4831 22.9385V24.0919C75.4831 24.2278 75.4292 24.3582 75.3335 24.4543C75.2377 24.5505 75.1078 24.6045 74.9723 24.6045H66.8189C66.6834 24.6045 66.5535 24.5505 66.4577 24.4543C66.3619 24.3582 66.3081 24.2278 66.3081 24.0919V22.9385C66.3077 22.5648 66.1595 22.2065 65.8962 21.9422C65.6329 21.678 65.2759 21.5293 64.9035 21.5289H63.7901C63.6546 21.5289 63.5247 21.4749 63.4289 21.3787C63.3331 21.2826 63.2793 21.1522 63.2793 21.0163V18.9658C63.2793 18.8299 63.3331 18.6995 63.4289 18.6034C63.5247 18.5073 63.6546 18.4532 63.7901 18.4532H65.8331C65.9686 18.4532 66.0985 18.5073 66.1943 18.6034C66.29 18.6995 66.3439 18.8299 66.3439 18.9658V20.1175C66.3439 20.3037 66.3806 20.4881 66.4519 20.66C66.5232 20.8319 66.6277 20.9879 66.7594 21.1191C66.891 21.2503 67.0473 21.3541 67.2191 21.4244C67.3909 21.4947 67.5748 21.5302 67.7604 21.5289H74.087C74.2716 21.5289 74.4544 21.4923 74.6249 21.4214C74.7954 21.3504 74.9503 21.2465 75.0808 21.1154C75.2112 20.9843 75.3147 20.8287 75.3851 20.6575C75.4556 20.4862 75.4918 20.3028 75.4916 20.1175V16.7856C75.4911 16.5999 75.4542 16.4162 75.3829 16.2449C75.3116 16.0737 75.2073 15.9182 75.0761 15.7874C74.9448 15.6566 74.7891 15.5531 74.6179 15.4828C74.4468 15.4125 74.2634 15.3767 74.0785 15.3776H66.8189C66.6834 15.3776 66.5535 15.3236 66.4577 15.2275C66.3619 15.1314 66.3081 15.001 66.3081 14.865V13.71C66.3072 13.3365 66.1589 12.9787 65.8956 12.7148C65.6323 12.4509 65.2756 12.3025 64.9035 12.302H63.7901C63.6546 12.302 63.5247 12.248 63.4289 12.1519C63.3331 12.0558 63.2793 11.9254 63.2793 11.7894V6.66341C63.2793 6.52746 63.3331 6.39707 63.4289 6.30094C63.5247 6.20481 63.6546 6.15081 63.7901 6.15081H64.9035C65.0881 6.15081 65.2709 6.11429 65.4414 6.04334C65.6119 5.97239 65.7669 5.8684 65.8973 5.73732C66.0278 5.60624 66.1312 5.45064 66.2017 5.27942C66.2722 5.10819 66.3083 4.9247 66.3081 4.73944V3.5878C66.3081 3.45185 66.3619 3.32146 66.4577 3.22533C66.5535 3.1292 66.6834 3.0752 66.8189 3.0752H74.9723C75.1078 3.0752 75.2377 3.1292 75.3335 3.22533C75.4292 3.32146 75.4831 3.45185 75.4831 3.5878V4.73944C75.4831 5.11376 75.6312 5.47275 75.895 5.73743C76.1587 6.00211 76.5164 6.15081 76.8893 6.15081H78.0369C78.1723 6.15081 78.3022 6.20481 78.398 6.30094C78.4938 6.39707 78.5476 6.52746 78.5476 6.66341V8.71381C78.5476 8.84976 78.4938 8.98015 78.398 9.07628C78.3022 9.17241 78.1723 9.22642 78.0369 9.22642H75.9938C75.8584 9.22642 75.7284 9.17241 75.6327 9.07628C75.5369 8.98015 75.4831 8.84976 75.4831 8.71381Z" fill="#49FFDE"/>
<path d="M36.7212 22.0415V24.0919C36.7212 24.2278 36.6674 24.3582 36.5716 24.4543C36.4759 24.5505 36.3459 24.6045 36.2105 24.6045H22.0794C21.8988 24.6045 21.7256 24.5325 21.5979 24.4043C21.4702 24.2761 21.3984 24.1023 21.3984 23.921V3.5878C21.3984 3.45185 21.4522 3.32146 21.548 3.22533C21.6438 3.1292 21.7737 3.0752 21.9092 3.0752H23.9522C24.0877 3.0752 24.2176 3.1292 24.3134 3.22533C24.4092 3.32146 24.463 3.45185 24.463 3.5878V20.1175C24.463 20.4918 24.6112 20.8508 24.8749 21.1155C25.1386 21.3802 25.4963 21.5289 25.8693 21.5289H36.2105C36.3459 21.5289 36.4759 21.5829 36.5716 21.679C36.6674 21.7751 36.7212 21.9055 36.7212 22.0415Z" fill="#49FFDE"/>
<path d="M99.9986 3.5878V24.0919C99.9986 24.2278 99.9448 24.3582 99.849 24.4543C99.7532 24.5505 99.6233 24.6045 99.4878 24.6045H97.4448C97.3093 24.6045 97.1794 24.5505 97.0836 24.4543C96.9878 24.3582 96.934 24.2278 96.934 24.0919V16.7856C96.9331 16.4122 96.7848 16.0543 96.5215 15.7904C96.2583 15.5265 95.9015 15.3781 95.5294 15.3776H89.1466C88.774 15.3776 88.4165 15.5261 88.1528 15.7904C87.8892 16.0547 87.7408 16.4133 87.7403 16.7873V24.0919C87.7403 24.2278 87.6865 24.3582 87.5907 24.4543C87.495 24.5505 87.365 24.6045 87.2296 24.6045H85.1865C85.0511 24.6045 84.9212 24.5505 84.8254 24.4543C84.7296 24.3582 84.6758 24.2278 84.6758 24.0919V3.5878C84.6758 3.45185 84.7296 3.32146 84.8254 3.22533C84.9212 3.1292 85.0511 3.0752 85.1865 3.0752H87.2296C87.365 3.0752 87.495 3.1292 87.5907 3.22533C87.6865 3.32146 87.7403 3.45185 87.7403 3.5878V10.889C87.7401 11.0744 87.7763 11.2582 87.8469 11.4296C87.9175 11.601 88.021 11.7568 88.1516 11.888C88.2822 12.0193 88.4373 12.1234 88.6081 12.1944C88.7788 12.2655 88.9618 12.302 89.1466 12.302H95.5294C95.714 12.302 95.8968 12.2655 96.0673 12.1946C96.2379 12.1236 96.3928 12.0196 96.5232 11.8885C96.6537 11.7575 96.7571 11.6019 96.8276 11.4306C96.8981 11.2594 96.9342 11.0759 96.934 10.8907V3.5878C96.934 3.45185 96.9878 3.32146 97.0836 3.22533C97.1794 3.1292 97.3093 3.0752 97.4448 3.0752H99.4878C99.6233 3.0752 99.7532 3.1292 99.849 3.22533C99.9448 3.32146 99.9986 3.45185 99.9986 3.5878Z" fill="#49FFDE"/>
<path d="M44.8928 0.512602V1.95643C44.7276 1.90407 44.5553 1.87755 44.382 1.87783H42.339C41.8875 1.87783 41.4544 2.05785 41.1351 2.37829C40.8158 2.69873 40.6365 3.13334 40.6365 3.5865V6.15122H39.2744C39.139 6.15122 39.0091 6.09721 38.9133 6.00108C38.8175 5.90495 38.7637 5.77457 38.7637 5.63862V0.512602C38.7637 0.376651 38.8175 0.246269 38.9133 0.150138C39.0091 0.0540061 39.139 0 39.2744 0L44.382 0C44.5175 0 44.6474 0.0540061 44.7432 0.150138C44.839 0.246269 44.8928 0.376651 44.8928 0.512602Z" fill="#FF6F95"/>
<path d="M52.8941 6.15137V20.1181C52.8944 20.1462 52.889 20.1742 52.8784 20.2003C52.8678 20.2264 52.8522 20.2502 52.8324 20.2702C52.8126 20.2902 52.7891 20.3061 52.7632 20.3169C52.7372 20.3278 52.7094 20.3333 52.6813 20.3333H46.2985C46.2702 20.3338 46.2421 20.3286 46.2159 20.3179C46.1897 20.3072 46.1658 20.2914 46.1458 20.2713C46.1258 20.2512 46.11 20.2273 46.0994 20.201C46.0888 20.1747 46.0836 20.1465 46.084 20.1181V6.15137H52.8941Z" fill="#FF6F95"/>
<path d="M57.1509 3.5878V21.0163C57.1509 21.1522 57.0971 21.2826 57.0013 21.3787C56.9055 21.4749 56.7756 21.5289 56.6402 21.5289H55.4927C55.3081 21.5286 55.1252 21.5649 54.9546 21.6357C54.784 21.7064 54.629 21.8102 54.4984 21.9411C54.3678 22.0721 54.2641 22.2275 54.1934 22.3987C54.1228 22.5698 54.0864 22.7532 54.0864 22.9385V24.0919C54.0864 24.2278 54.0326 24.3582 53.9368 24.4543C53.841 24.5505 53.7111 24.6045 53.5756 24.6045H45.4034C45.268 24.6045 45.1381 24.5505 45.0423 24.4543C44.9465 24.3582 44.8927 24.2278 44.8927 24.0919V22.9385C44.8922 22.5648 44.7441 22.2065 44.4808 21.9422C44.2175 21.678 43.8605 21.5293 43.4881 21.5289H42.3389C42.2034 21.5289 42.0735 21.4749 41.9777 21.3787C41.8819 21.2826 41.8281 21.1522 41.8281 21.0163V3.5878C41.8281 3.45185 41.8819 3.32146 41.9777 3.22533C42.0735 3.1292 42.2034 3.0752 42.3389 3.0752H44.3819C44.5174 3.0752 44.6473 3.1292 44.7431 3.22533C44.8389 3.32146 44.8927 3.45185 44.8927 3.5878V20.1175C44.8925 20.3029 44.9287 20.4865 44.9993 20.6579C45.0699 20.8292 45.1735 20.9849 45.3041 21.116C45.4347 21.2471 45.5898 21.351 45.7605 21.4219C45.9313 21.4927 46.1142 21.5291 46.299 21.5289H52.6818C52.8664 21.5289 53.0492 21.4923 53.2197 21.4214C53.3902 21.3504 53.5451 21.2465 53.6756 21.1154C53.806 20.9843 53.9094 20.8287 53.9799 20.6575C54.0504 20.4862 54.0866 20.3028 54.0864 20.1175V3.5878C54.0864 3.45185 54.1402 3.32146 54.236 3.22533C54.3318 3.1292 54.4617 3.0752 54.5971 3.0752H56.6402C56.7756 3.0752 56.9055 3.1292 57.0013 3.22533C57.0971 3.32146 57.1509 3.45185 57.1509 3.5878Z" fill="#49FFDE"/>
</g>
<defs>
<clipPath id="clip0_2177_1696">
<rect width="100" height="24.6032" fill="white"/>
</clipPath>
</defs>
</svg>
