<svg width="100" height="25" viewBox="0 0 100 25" fill="none" xmlns="http://www.w3.org/2000/svg">
<g id="logo (decorative) 1" clip-path="url(#clip0_2177_31077)">
<g id="Layer 2">
<g id="Layer 2_2">
<path id="Vector" d="M12.2038 8.7143V7.55924C12.2029 7.18581 12.0545 6.82796 11.7913 6.56407C11.528 6.30017 11.1713 6.15174 10.7992 6.15129H4.47256C4.09988 6.15084 3.74226 6.29887 3.47826 6.56286C3.21426 6.82685 3.06546 7.18522 3.06456 7.55924V10.8894C3.06434 11.0751 3.1006 11.2589 3.17128 11.4305C3.24196 11.602 3.34566 11.7579 3.47645 11.8891C3.60724 12.0204 3.76255 12.1245 3.93347 12.1954C4.1044 12.2663 4.28759 12.3027 4.47256 12.3025H11.693C11.8285 12.3025 11.9584 12.3565 12.0542 12.4527C12.1499 12.5488 12.2038 12.6792 12.2038 12.8151V13.9668C12.2038 14.3411 12.3519 14.7001 12.6157 14.9647C12.8794 15.2294 13.2371 15.3781 13.6101 15.3781H14.7576C14.893 15.3781 15.0229 15.4321 15.1187 15.5283C15.2145 15.6244 15.2683 15.7548 15.2683 15.8907V21.0167C15.2683 21.1527 15.2145 21.2831 15.1187 21.3792C15.0229 21.4753 14.893 21.5293 14.7576 21.5293H13.6101C13.2374 21.5293 12.8799 21.6778 12.6163 21.9421C12.3526 22.2064 12.2042 22.565 12.2038 22.939V24.0924C12.2038 24.2283 12.1499 24.3587 12.0542 24.4548C11.9584 24.5509 11.8285 24.605 11.693 24.605H3.53957C3.4041 24.605 3.27419 24.5509 3.17841 24.4548C3.08262 24.3587 3.02881 24.2283 3.02881 24.0924V22.939C3.02836 22.5653 2.88023 22.207 2.61691 21.9427C2.3536 21.6785 1.9966 21.5298 1.62422 21.5293H0.51076C0.375298 21.5293 0.245384 21.4753 0.149598 21.3792C0.0538121 21.2831 0 21.1527 0 21.0167L0 18.9663C0 18.8304 0.0538121 18.7 0.149598 18.6039C0.245384 18.5077 0.375298 18.4537 0.51076 18.4537H2.5538C2.68926 18.4537 2.81918 18.5077 2.91496 18.6039C3.01075 18.7 3.06456 18.8304 3.06456 18.9663V20.118C3.06456 20.3035 3.10099 20.4871 3.17177 20.6585C3.24255 20.8298 3.34629 20.9855 3.47706 21.1166C3.60782 21.2477 3.76305 21.3516 3.93387 21.4224C4.10468 21.4932 4.28773 21.5296 4.47256 21.5293H10.7992C10.9838 21.5293 11.1666 21.4928 11.3371 21.4219C11.5076 21.3509 11.6625 21.2469 11.793 21.1159C11.9234 20.9848 12.0268 20.8292 12.0973 20.658C12.1678 20.4867 12.204 20.3032 12.2038 20.118V16.7861C12.2029 16.4126 12.0545 16.0548 11.7913 15.7909C11.528 15.527 11.1713 15.3786 10.7992 15.3781H3.53957C3.4041 15.3781 3.27419 15.3241 3.17841 15.228C3.08262 15.1319 3.02881 15.0015 3.02881 14.8655V13.7105C3.02791 13.337 2.87958 12.9792 2.61631 12.7153C2.35305 12.4514 1.9963 12.303 1.62422 12.3025H0.51076C0.375298 12.3025 0.245384 12.2485 0.149598 12.1524C0.0538121 12.0562 0 11.9259 0 11.7899L0 6.6639C0 6.52795 0.0538121 6.39756 0.149598 6.30143C0.245384 6.2053 0.375298 6.15129 0.51076 6.15129H1.62422C1.80881 6.15129 1.9916 6.11478 2.16212 6.04383C2.33265 5.97288 2.48756 5.86889 2.61801 5.73781C2.74847 5.60673 2.85189 5.45113 2.92238 5.27991C2.99287 5.10868 3.02903 4.92519 3.02881 4.73993V3.58829C3.02881 3.45233 3.08262 3.32195 3.17841 3.22582C3.27419 3.12969 3.4041 3.07568 3.53957 3.07568H11.693C11.8285 3.07568 11.9584 3.12969 12.0542 3.22582C12.1499 3.32195 12.2038 3.45233 12.2038 3.58829V4.73993C12.2038 5.11425 12.3519 5.47323 12.6157 5.73792C12.8794 6.0026 13.2371 6.15129 13.6101 6.15129H14.7576C14.893 6.15129 15.0229 6.2053 15.1187 6.30143C15.2145 6.39756 15.2683 6.52795 15.2683 6.6639V8.7143C15.2683 8.85025 15.2145 8.98063 15.1187 9.07677C15.0229 9.1729 14.893 9.2269 14.7576 9.2269H12.7145C12.5791 9.2269 12.4491 9.1729 12.3534 9.07677C12.2576 8.98063 12.2038 8.85025 12.2038 8.7143Z" fill="#007770"/>
<path id="Vector_2" d="M75.4835 8.7143V7.55924C75.4826 7.18581 75.3343 6.82796 75.0711 6.56407C74.8078 6.30017 74.451 6.15174 74.079 6.15129H67.7609C67.5762 6.15107 67.3933 6.18735 67.2226 6.25807C67.0519 6.32879 66.8967 6.43257 66.766 6.56346C66.6352 6.69436 66.5314 6.84982 66.4606 7.02097C66.3897 7.19212 66.3531 7.37561 66.3529 7.56095V10.8894C66.3526 11.0751 66.3889 11.2589 66.4596 11.4305C66.5303 11.602 66.634 11.7579 66.7648 11.8891C66.8955 12.0204 67.0508 12.1245 67.2218 12.1954C67.3927 12.2663 67.5759 12.3027 67.7609 12.3025H74.9813C75.1168 12.3025 75.2467 12.3565 75.3425 12.4527C75.4382 12.5488 75.4921 12.6792 75.4921 12.8151V13.9668C75.4921 14.3396 75.639 14.6973 75.9009 14.9617C76.1628 15.2262 76.5183 15.3759 76.8898 15.3781H78.0373C78.1728 15.3781 78.3027 15.4321 78.3985 15.5283C78.4943 15.6244 78.5481 15.7548 78.5481 15.8907V21.0167C78.5481 21.1527 78.4943 21.2831 78.3985 21.3792C78.3027 21.4753 78.1728 21.5293 78.0373 21.5293H76.8898C76.5172 21.5293 76.1597 21.6778 75.896 21.9421C75.6324 22.2064 75.484 22.565 75.4835 22.939V24.0924C75.4835 24.2283 75.4297 24.3587 75.3339 24.4548C75.2382 24.5509 75.1082 24.605 74.9728 24.605H66.8194C66.6839 24.605 66.554 24.5509 66.4582 24.4548C66.3624 24.3587 66.3086 24.2283 66.3086 24.0924V22.939C66.3081 22.5653 66.16 22.207 65.8967 21.9427C65.6334 21.6785 65.2764 21.5298 64.904 21.5293H63.7905C63.6551 21.5293 63.5252 21.4753 63.4294 21.3792C63.3336 21.2831 63.2798 21.1527 63.2798 21.0167V18.9663C63.2798 18.8304 63.3336 18.7 63.4294 18.6039C63.5252 18.5077 63.6551 18.4537 63.7905 18.4537H65.8336C65.969 18.4537 66.099 18.5077 66.1948 18.6039C66.2905 18.7 66.3443 18.8304 66.3443 18.9663V20.118C66.3443 20.3042 66.3811 20.4886 66.4524 20.6605C66.5237 20.8324 66.6282 20.9884 66.7598 21.1196C66.8915 21.2508 67.0478 21.3545 67.2196 21.4249C67.3914 21.4952 67.5753 21.5307 67.7609 21.5293H74.0875C74.2721 21.5293 74.4549 21.4928 74.6254 21.4219C74.7959 21.3509 74.9508 21.2469 75.0813 21.1159C75.2117 20.9848 75.3151 20.8292 75.3856 20.658C75.4561 20.4867 75.4923 20.3032 75.4921 20.118V16.7861C75.4916 16.6004 75.4547 16.4167 75.3834 16.2454C75.3121 16.0741 75.2078 15.9187 75.0766 15.7879C74.9453 15.6571 74.7896 15.5536 74.6184 15.4833C74.4472 15.413 74.2639 15.3772 74.079 15.3781H66.8194C66.6839 15.3781 66.554 15.3241 66.4582 15.228C66.3624 15.1319 66.3086 15.0015 66.3086 14.8655V13.7105C66.3077 13.337 66.1594 12.9792 65.8961 12.7153C65.6328 12.4514 65.2761 12.303 64.904 12.3025H63.7905C63.6551 12.3025 63.5252 12.2485 63.4294 12.1524C63.3336 12.0562 63.2798 11.9259 63.2798 11.7899V6.6639C63.2798 6.52795 63.3336 6.39756 63.4294 6.30143C63.5252 6.2053 63.6551 6.15129 63.7905 6.15129H64.904C65.0886 6.15129 65.2714 6.11478 65.4419 6.04383C65.6124 5.97288 65.7673 5.86889 65.8978 5.73781C66.0282 5.60673 66.1317 5.45113 66.2022 5.27991C66.2727 5.10868 66.3088 4.92519 66.3086 4.73993V3.58829C66.3086 3.45233 66.3624 3.32195 66.4582 3.22582C66.554 3.12969 66.6839 3.07568 66.8194 3.07568H74.9728C75.1082 3.07568 75.2382 3.12969 75.3339 3.22582C75.4297 3.32195 75.4835 3.45233 75.4835 3.58829V4.73993C75.4835 5.11425 75.6317 5.47323 75.8954 5.73792C76.1592 6.0026 76.5169 6.15129 76.8898 6.15129H78.0373C78.1728 6.15129 78.3027 6.2053 78.3985 6.30143C78.4943 6.39756 78.5481 6.52795 78.5481 6.6639V8.7143C78.5481 8.85025 78.4943 8.98063 78.3985 9.07677C78.3027 9.1729 78.1728 9.2269 78.0373 9.2269H75.9943C75.8588 9.2269 75.7289 9.1729 75.6331 9.07677C75.5374 8.98063 75.4835 8.85025 75.4835 8.7143Z" fill="#007770"/>
<path id="Vector_3" d="M36.7203 22.0419V24.0924C36.7203 24.2283 36.6664 24.3587 36.5707 24.4548C36.4749 24.5509 36.345 24.605 36.2095 24.605H22.0785C21.8979 24.605 21.7246 24.5329 21.5969 24.4048C21.4692 24.2766 21.3975 24.1028 21.3975 23.9215V3.58829C21.3975 3.45233 21.4513 3.32195 21.5471 3.22582C21.6428 3.12969 21.7728 3.07568 21.9082 3.07568H23.9513C24.0867 3.07568 24.2166 3.12969 24.3124 3.22582C24.4082 3.32195 24.462 3.45233 24.462 3.58829V20.118C24.462 20.4923 24.6102 20.8513 24.8739 21.116C25.1376 21.3806 25.4953 21.5293 25.8683 21.5293H36.2095C36.345 21.5293 36.4749 21.5834 36.5707 21.6795C36.6664 21.7756 36.7203 21.906 36.7203 22.0419Z" fill="#007770"/>
<path id="Vector_4" d="M100 3.58829V24.0924C100 24.2283 99.9462 24.3587 99.8505 24.4548C99.7547 24.5509 99.6247 24.605 99.4893 24.605H97.4462C97.3108 24.605 97.1809 24.5509 97.0851 24.4548C96.9893 24.3587 96.9355 24.2283 96.9355 24.0924V16.7861C96.9346 16.4126 96.7863 16.0548 96.523 15.7909C96.2597 15.527 95.903 15.3786 95.5309 15.3781H89.1481C88.7754 15.3781 88.418 15.5266 88.1543 15.7909C87.8906 16.0552 87.7423 16.4138 87.7418 16.7878V24.0924C87.7418 24.2283 87.688 24.3587 87.5922 24.4548C87.4964 24.5509 87.3665 24.605 87.231 24.605H85.188C85.0525 24.605 84.9226 24.5509 84.8268 24.4548C84.7311 24.3587 84.6772 24.2283 84.6772 24.0924V3.58829C84.6772 3.45233 84.7311 3.32195 84.8268 3.22582C84.9226 3.12969 85.0525 3.07568 85.188 3.07568H87.231C87.3665 3.07568 87.4964 3.12969 87.5922 3.22582C87.688 3.32195 87.7418 3.45233 87.7418 3.58829V10.8894C87.7416 11.0749 87.7778 11.2586 87.8484 11.4301C87.9189 11.6015 88.0225 11.7573 88.1531 11.8885C88.2837 12.0198 88.4388 12.1239 88.6095 12.1949C88.7803 12.266 88.9633 12.3025 89.1481 12.3025H95.5309C95.7155 12.3025 95.8983 12.266 96.0688 12.195C96.2393 12.1241 96.3942 12.0201 96.5247 11.889C96.6551 11.758 96.7586 11.6024 96.8291 11.4311C96.8995 11.2599 96.9357 11.0764 96.9355 10.8912V3.58829C96.9355 3.45233 96.9893 3.32195 97.0851 3.22582C97.1809 3.12969 97.3108 3.07568 97.4462 3.07568H99.4893C99.6247 3.07568 99.7547 3.12969 99.8505 3.22582C99.9462 3.32195 100 3.45233 100 3.58829Z" fill="#007770"/>
<path id="Vector_5" d="M44.8923 0.512602V1.95643C44.7271 1.90407 44.5548 1.87755 44.3815 1.87783H42.3385C41.887 1.87783 41.4539 2.05785 41.1346 2.37829C40.8153 2.69873 40.636 3.13334 40.636 3.5865V6.15122H39.2739C39.1385 6.15122 39.0086 6.09721 38.9128 6.00108C38.817 5.90495 38.7632 5.77457 38.7632 5.63862V0.512602C38.7632 0.376651 38.817 0.246269 38.9128 0.150138C39.0086 0.0540061 39.1385 0 39.2739 0L44.3815 0C44.517 0 44.6469 0.0540061 44.7427 0.150138C44.8385 0.246269 44.8923 0.376651 44.8923 0.512602Z" fill="#FF6F95"/>
<path id="Vector_6" d="M52.8944 6.15137V20.1181C52.8946 20.1462 52.8893 20.1742 52.8787 20.2003C52.8681 20.2264 52.8524 20.2502 52.8327 20.2702C52.8129 20.2902 52.7893 20.3061 52.7634 20.3169C52.7375 20.3278 52.7097 20.3333 52.6816 20.3333H46.2988C46.2705 20.3338 46.2424 20.3286 46.2161 20.3179C46.1899 20.3072 46.1661 20.2914 46.1461 20.2713C46.1261 20.2512 46.1103 20.2273 46.0997 20.201C46.089 20.1747 46.0838 20.1465 46.0843 20.1181V6.15137H52.8944Z" fill="#FF6F95"/>
<path id="Vector_7" d="M57.1507 3.58829V21.0167C57.1507 21.1527 57.0969 21.2831 57.0011 21.3792C56.9053 21.4753 56.7754 21.5293 56.6399 21.5293H55.4924C55.3078 21.5291 55.125 21.5654 54.9544 21.6362C54.7838 21.7069 54.6287 21.8107 54.4981 21.9416C54.3675 22.0725 54.2639 22.228 54.1932 22.3992C54.1225 22.5703 54.0861 22.7537 54.0861 22.939V24.0924C54.0861 24.2283 54.0323 24.3587 53.9365 24.4548C53.8407 24.5509 53.7108 24.605 53.5754 24.605H45.4032C45.2677 24.605 45.1378 24.5509 45.042 24.4548C44.9463 24.3587 44.8924 24.2283 44.8924 24.0924V22.939C44.892 22.5653 44.7439 22.207 44.4806 21.9427C44.2172 21.6785 43.8602 21.5298 43.4879 21.5293H42.3386C42.2032 21.5293 42.0733 21.4753 41.9775 21.3792C41.8817 21.2831 41.8279 21.1527 41.8279 21.0167V3.58829C41.8279 3.45233 41.8817 3.32195 41.9775 3.22582C42.0733 3.12969 42.2032 3.07568 42.3386 3.07568H44.3817C44.5171 3.07568 44.6471 3.12969 44.7428 3.22582C44.8386 3.32195 44.8924 3.45233 44.8924 3.58829V20.118C44.8922 20.3034 44.9284 20.487 44.999 20.6584C45.0696 20.8297 45.1732 20.9854 45.3038 21.1165C45.4345 21.2476 45.5896 21.3515 45.7603 21.4224C45.931 21.4932 46.114 21.5296 46.2987 21.5293H52.6815C52.8661 21.5293 53.0489 21.4928 53.2194 21.4219C53.39 21.3509 53.5449 21.2469 53.6753 21.1159C53.8058 20.9848 53.9092 20.8292 53.9797 20.658C54.0502 20.4867 54.0863 20.3032 54.0861 20.118V3.58829C54.0861 3.45233 54.1399 3.32195 54.2357 3.22582C54.3315 3.12969 54.4614 3.07568 54.5969 3.07568H56.6399C56.7754 3.07568 56.9053 3.12969 57.0011 3.22582C57.0969 3.32195 57.1507 3.45233 57.1507 3.58829Z" fill="#007770"/>
</g>
</g>
</g>
<defs>
<clipPath id="clip0_2177_31077">
<rect width="100" height="24.6032" fill="white"/>
</clipPath>
</defs>
</svg>
